<mxfile modified="2021-05-12T03:11:20.816Z" host="app.diagrams.net" agent="5.0 (Macintosh; Intel Mac OS X 10_15_3) AppleWebKit/537.36 (KHTML, like Gecko) Chrome/90.0.4430.93 Safari/537.36" etag="2aCUHl9HALQXcdkkmPIc" version="14.6.12" type="github">
  <diagram id="WI9T0HZ2pTsCkuznbFz-" name="Page-1">
    <mxGraphModel dx="1426" dy="771" grid="1" gridSize="10" guides="1" tooltips="1" connect="1" arrows="1" fold="1" page="1" pageScale="1" pageWidth="1169" pageHeight="827" math="0" shadow="0">
      <root>
        <mxCell id="0" />
        <mxCell id="1" parent="0" />
        <mxCell id="FN3_UUnZCpq1qiRNQo3k-1" value="" style="shape=image;verticalLabelPosition=bottom;labelBackgroundColor=#ffffff;verticalAlign=top;aspect=fixed;imageAspect=0;image=data:image/svg+xml,PHN2ZyB4bWxuczpjYz0iaHR0cDovL2NyZWF0aXZlY29tbW9ucy5vcmcvbnMjIiB4bWxuczpkYz0iaHR0cDovL3B1cmwub3JnL2RjL2VsZW1lbnRzLzEuMS8iIHhtbG5zOmlua3NjYXBlPSJodHRwOi8vd3d3Lmlua3NjYXBlLm9yZy9uYW1lc3BhY2VzL2lua3NjYXBlIiB4bWxuczpyZGY9Imh0dHA6Ly93d3cudzMub3JnLzE5OTkvMDIvMjItcmRmLXN5bnRheC1ucyMiIHhtbG5zOnNvZGlwb2RpPSJodHRwOi8vc29kaXBvZGkuc291cmNlZm9yZ2UubmV0L0RURC9zb2RpcG9kaS0wLmR0ZCIgeG1sbnM6c3ZnPSJodHRwOi8vd3d3LnczLm9yZy8yMDAwL3N2ZyIgeG1sbnM9Imh0dHA6Ly93d3cudzMub3JnLzIwMDAvc3ZnIiB4bWxuczp4bGluaz0iaHR0cDovL3d3dy53My5vcmcvMTk5OS94bGluayIgdmVyc2lvbj0iMS4xIiBpZD0ic3ZnOTk3MDUiIGlua3NjYXBlOnZlcnNpb249IjAuOTIuMyAoMjQwNTU0NiwgMjAxOC0wMy0xMSkiIHNvZGlwb2RpOmRvY25hbWU9ImRvY3VtZW50ZGJfMS5zdmciIHg9IjBweCIgeT0iMHB4IiB2aWV3Qm94PSIwIDAgMTkuNzIgMjUuNjQiIHN0eWxlPSJlbmFibGUtYmFja2dyb3VuZDpuZXcgMCAwIDE5LjcyIDI1LjY0OyIgeG1sOnNwYWNlPSJwcmVzZXJ2ZSI+JiN4YTs8c29kaXBvZGk6bmFtZWR2aWV3IGJvcmRlcmNvbG9yPSIjNjY2NjY2IiBib3JkZXJvcGFjaXR5PSIxIiBmaXQtbWFyZ2luLWJvdHRvbT0iMCIgZml0LW1hcmdpbi1sZWZ0PSIwIiBmaXQtbWFyZ2luLXJpZ2h0PSIwIiBmaXQtbWFyZ2luLXRvcD0iMCIgZ3JpZHRvbGVyYW5jZT0iMTAiIGd1aWRldG9sZXJhbmNlPSIxMCIgaWQ9Im5hbWVkdmlldzk5NzA3IiBpbmtzY2FwZTpjdXJyZW50LWxheWVyPSJzdmc5OTcwNSIgaW5rc2NhcGU6Y3g9IjE0Ljc3NjAwNiIgaW5rc2NhcGU6Y3k9Ii0xLjA5NjkzNDkiIGlua3NjYXBlOnBhZ2VvcGFjaXR5PSIwIiBpbmtzY2FwZTpwYWdlc2hhZG93PSIyIiBpbmtzY2FwZTp3aW5kb3ctaGVpZ2h0PSIxMDE3IiBpbmtzY2FwZTp3aW5kb3ctbWF4aW1pemVkPSIxIiBpbmtzY2FwZTp3aW5kb3ctd2lkdGg9IjE5MjAiIGlua3NjYXBlOndpbmRvdy14PSItOCIgaW5rc2NhcGU6d2luZG93LXk9Ii04IiBpbmtzY2FwZTp6b29tPSIxMS45OTc0MDQiIG9iamVjdHRvbGVyYW5jZT0iMTAiIHBhZ2Vjb2xvcj0iI2ZmZmZmZiIgc2hvd2dyaWQ9ImZhbHNlIj4mI3hhOwk8L3NvZGlwb2RpOm5hbWVkdmlldz4mI3hhOzxnIGlkPSJnOTk3MDMiIHRyYW5zZm9ybT0idHJhbnNsYXRlKC0xNy40OTksLTAuNjM2OSkiPiYjeGE7CTx0aXRsZSBpZD0idGl0bGU5OTY5MyI+UGFnZS0xPC90aXRsZT4mI3hhOwk8ZyBpZD0iZ3JvdXAzNzAyLTEiIHRyYW5zZm9ybT0idHJhbnNsYXRlKDE3LjQ5OSwtMjcuOTIzMSkiPiYjeGE7CQk8dGl0bGUgaWQ9InRpdGxlOTk2OTUiPkRvY3VtZW50REIgIzE8L3RpdGxlPiYjeGE7CQk8ZyBpZD0ic2hhcGUzNzAzLTIiPiYjeGE7CQkJPHRpdGxlIGlkPSJ0aXRsZTk5Njk3Ij5TaGVldC4zNzAzPC90aXRsZT4mI3hhOwkJCTxwYXRoIGlkPSJwYXRoOTk2OTkiIGlua3NjYXBlOmNvbm5lY3Rvci1jdXJ2YXR1cmU9IjAiIHN0eWxlPSJmaWxsOiMzRjU3NjU7IiBkPSJNOS44NiwyOC41NmMtNS40OCwwLTkuODYsMS44My05Ljg2LDMuOHYxNy45NyAgICAgYzAsMS45Nyw0LjQ2LDMuODcsOS44NiwzLjg3YzUuNDgsMCw5Ljg2LTEuNzUsOS44Ni0zLjhWMzIuNDNDMTkuNzIsMzAuNDYsMTUuMjcsMjguNTYsOS44NiwyOC41NnogTTAuMjIsNTEuMTN2LTAuMjIgICAgIEMwLjIyLDUwLjk5LDAuMjIsNTEuMDYsMC4yMiw1MS4xM3ogTTcuMDEsMzkuOTZjLTAuNjYsMC0wLjk1LTAuMjItMC45NSwwLjUxdjEuMzhjMCwxLjAzLTAuMTQsMS42OC0wLjg3LDEuOXYwLjA4ICAgICBjMC43MywwLjI5LDAuODcsMS4wOSwwLjg3LDIuMzN2MS42MWMwLDAuNTEsMC4wOCwwLjUxLDAuMjIsMC43M2MwLjE1LDAuMjIsMC4zNywwLjIyLDAuNzMsMC4yMnYwLjQ0djAuOTUgICAgIGMtMS4wMiwwLTEuNzUtMC4yMi0yLjE5LTAuNTljLTAuNDQtMC4zNi0wLjY2LTEuMDktMC42Ni0yLjExdi0xLjc2YzAtMC45NS0wLjM2LTAuOTUtMC45NS0wLjk1di0xLjgyYzAuNjYsMCwwLjk1LDAsMC45NS0wLjgxICAgICB2LTEuMzhjMC0wLjg4LDAuMjItMS40NiwwLjY2LTEuNzZjMC40NC0wLjM2LDEuMTctMC41MSwyLjE5LTAuNTFMNy4wMSwzOS45NnogTTE2LjczLDQzLjMydjEuNDZjLTAuNjYsMC0wLjk1LDAtMC45NSwwLjk1djEuNjggICAgIGMwLDEuMDItMC4yMiwxLjc1LTAuNjYsMi4xOWMtMC40NCwwLjM2LTEuMTcsMC41OC0yLjI2LDAuNTh2LTEuMzljMC4yOSwwLDAuNTgtMC4wNywwLjczLTAuMjJjMC4xNC0wLjIxLDAuMjItMC4yMSwwLjIyLTAuNzMgICAgIHYtMS42YzAtMS4yNCwwLjIxLTEuOTcsMC45NC0yLjM0di0wLjA3Yy0wLjczLTAuMjItMC45NC0wLjg4LTAuOTQtMS45OHYtMS4zMWMwLTAuNzMtMC4zNy0wLjUxLTAuOTUtMC41MXYtMS41NCAgICAgYzEuMDIsMCwxLjc1LDAuMjIsMi4xOSwwLjUyYzAuNDQsMC4zNiwwLjczLDAuOTUsMC43MywxLjc1djEuMzljMCwwLjgsMC4yOSwwLjczLDAuOTUsMC43M0wxNi43Myw0My4zMnogTTkuODYsMzQuMTEgICAgIGMtMy44NywwLTcuMDEtMC45NS03LjAxLTIuMTJjMC0xLjE3LDMuMTQtMi4xMSw3LjAxLTIuMTFzNy4wMSwwLjk0LDcuMDEsMi4xMUMxNi44NywzMy4yNCwxMy43MywzNC4xMSw5Ljg2LDM0LjExeiIvPiYjeGE7CQk8L2c+JiN4YTsJPC9nPiYjeGE7PC9nPiYjeGE7PC9zdmc+;" vertex="1" parent="1">
          <mxGeometry x="440" y="263" width="46.15" height="60" as="geometry" />
        </mxCell>
        <mxCell id="FN3_UUnZCpq1qiRNQo3k-22" style="edgeStyle=orthogonalEdgeStyle;shape=flexArrow;rounded=0;orthogonalLoop=1;jettySize=auto;html=1;" edge="1" parent="1">
          <mxGeometry relative="1" as="geometry">
            <mxPoint x="607.08" y="593.5" as="targetPoint" />
            <mxPoint x="497.08" y="593.5" as="sourcePoint" />
          </mxGeometry>
        </mxCell>
        <mxCell id="FN3_UUnZCpq1qiRNQo3k-2" value="" style="shape=image;verticalLabelPosition=bottom;labelBackgroundColor=#ffffff;verticalAlign=top;aspect=fixed;imageAspect=0;image=data:image/svg+xml,PHN2ZyB4bWxuczpjYz0iaHR0cDovL2NyZWF0aXZlY29tbW9ucy5vcmcvbnMjIiB4bWxuczpkYz0iaHR0cDovL3B1cmwub3JnL2RjL2VsZW1lbnRzLzEuMS8iIHhtbG5zOmlua3NjYXBlPSJodHRwOi8vd3d3Lmlua3NjYXBlLm9yZy9uYW1lc3BhY2VzL2lua3NjYXBlIiB4bWxuczpyZGY9Imh0dHA6Ly93d3cudzMub3JnLzE5OTkvMDIvMjItcmRmLXN5bnRheC1ucyMiIHhtbG5zOnNvZGlwb2RpPSJodHRwOi8vc29kaXBvZGkuc291cmNlZm9yZ2UubmV0L0RURC9zb2RpcG9kaS0wLmR0ZCIgeG1sbnM6c3ZnPSJodHRwOi8vd3d3LnczLm9yZy8yMDAwL3N2ZyIgeG1sbnM9Imh0dHA6Ly93d3cudzMub3JnLzIwMDAvc3ZnIiB4bWxuczp4bGluaz0iaHR0cDovL3d3dy53My5vcmcvMTk5OS94bGluayIgdmVyc2lvbj0iMS4xIiBpZD0ic3ZnOTk3MDUiIGlua3NjYXBlOnZlcnNpb249IjAuOTIuMyAoMjQwNTU0NiwgMjAxOC0wMy0xMSkiIHNvZGlwb2RpOmRvY25hbWU9ImRvY3VtZW50ZGJfMS5zdmciIHg9IjBweCIgeT0iMHB4IiB2aWV3Qm94PSIwIDAgMTkuNzIgMjUuNjQiIHN0eWxlPSJlbmFibGUtYmFja2dyb3VuZDpuZXcgMCAwIDE5LjcyIDI1LjY0OyIgeG1sOnNwYWNlPSJwcmVzZXJ2ZSI+JiN4YTs8c29kaXBvZGk6bmFtZWR2aWV3IGJvcmRlcmNvbG9yPSIjNjY2NjY2IiBib3JkZXJvcGFjaXR5PSIxIiBmaXQtbWFyZ2luLWJvdHRvbT0iMCIgZml0LW1hcmdpbi1sZWZ0PSIwIiBmaXQtbWFyZ2luLXJpZ2h0PSIwIiBmaXQtbWFyZ2luLXRvcD0iMCIgZ3JpZHRvbGVyYW5jZT0iMTAiIGd1aWRldG9sZXJhbmNlPSIxMCIgaWQ9Im5hbWVkdmlldzk5NzA3IiBpbmtzY2FwZTpjdXJyZW50LWxheWVyPSJzdmc5OTcwNSIgaW5rc2NhcGU6Y3g9IjE0Ljc3NjAwNiIgaW5rc2NhcGU6Y3k9Ii0xLjA5NjkzNDkiIGlua3NjYXBlOnBhZ2VvcGFjaXR5PSIwIiBpbmtzY2FwZTpwYWdlc2hhZG93PSIyIiBpbmtzY2FwZTp3aW5kb3ctaGVpZ2h0PSIxMDE3IiBpbmtzY2FwZTp3aW5kb3ctbWF4aW1pemVkPSIxIiBpbmtzY2FwZTp3aW5kb3ctd2lkdGg9IjE5MjAiIGlua3NjYXBlOndpbmRvdy14PSItOCIgaW5rc2NhcGU6d2luZG93LXk9Ii04IiBpbmtzY2FwZTp6b29tPSIxMS45OTc0MDQiIG9iamVjdHRvbGVyYW5jZT0iMTAiIHBhZ2Vjb2xvcj0iI2ZmZmZmZiIgc2hvd2dyaWQ9ImZhbHNlIj4mI3hhOwk8L3NvZGlwb2RpOm5hbWVkdmlldz4mI3hhOzxnIGlkPSJnOTk3MDMiIHRyYW5zZm9ybT0idHJhbnNsYXRlKC0xNy40OTksLTAuNjM2OSkiPiYjeGE7CTx0aXRsZSBpZD0idGl0bGU5OTY5MyI+UGFnZS0xPC90aXRsZT4mI3hhOwk8ZyBpZD0iZ3JvdXAzNzAyLTEiIHRyYW5zZm9ybT0idHJhbnNsYXRlKDE3LjQ5OSwtMjcuOTIzMSkiPiYjeGE7CQk8dGl0bGUgaWQ9InRpdGxlOTk2OTUiPkRvY3VtZW50REIgIzE8L3RpdGxlPiYjeGE7CQk8ZyBpZD0ic2hhcGUzNzAzLTIiPiYjeGE7CQkJPHRpdGxlIGlkPSJ0aXRsZTk5Njk3Ij5TaGVldC4zNzAzPC90aXRsZT4mI3hhOwkJCTxwYXRoIGlkPSJwYXRoOTk2OTkiIGlua3NjYXBlOmNvbm5lY3Rvci1jdXJ2YXR1cmU9IjAiIHN0eWxlPSJmaWxsOiMzRjU3NjU7IiBkPSJNOS44NiwyOC41NmMtNS40OCwwLTkuODYsMS44My05Ljg2LDMuOHYxNy45NyAgICAgYzAsMS45Nyw0LjQ2LDMuODcsOS44NiwzLjg3YzUuNDgsMCw5Ljg2LTEuNzUsOS44Ni0zLjhWMzIuNDNDMTkuNzIsMzAuNDYsMTUuMjcsMjguNTYsOS44NiwyOC41NnogTTAuMjIsNTEuMTN2LTAuMjIgICAgIEMwLjIyLDUwLjk5LDAuMjIsNTEuMDYsMC4yMiw1MS4xM3ogTTcuMDEsMzkuOTZjLTAuNjYsMC0wLjk1LTAuMjItMC45NSwwLjUxdjEuMzhjMCwxLjAzLTAuMTQsMS42OC0wLjg3LDEuOXYwLjA4ICAgICBjMC43MywwLjI5LDAuODcsMS4wOSwwLjg3LDIuMzN2MS42MWMwLDAuNTEsMC4wOCwwLjUxLDAuMjIsMC43M2MwLjE1LDAuMjIsMC4zNywwLjIyLDAuNzMsMC4yMnYwLjQ0djAuOTUgICAgIGMtMS4wMiwwLTEuNzUtMC4yMi0yLjE5LTAuNTljLTAuNDQtMC4zNi0wLjY2LTEuMDktMC42Ni0yLjExdi0xLjc2YzAtMC45NS0wLjM2LTAuOTUtMC45NS0wLjk1di0xLjgyYzAuNjYsMCwwLjk1LDAsMC45NS0wLjgxICAgICB2LTEuMzhjMC0wLjg4LDAuMjItMS40NiwwLjY2LTEuNzZjMC40NC0wLjM2LDEuMTctMC41MSwyLjE5LTAuNTFMNy4wMSwzOS45NnogTTE2LjczLDQzLjMydjEuNDZjLTAuNjYsMC0wLjk1LDAtMC45NSwwLjk1djEuNjggICAgIGMwLDEuMDItMC4yMiwxLjc1LTAuNjYsMi4xOWMtMC40NCwwLjM2LTEuMTcsMC41OC0yLjI2LDAuNTh2LTEuMzljMC4yOSwwLDAuNTgtMC4wNywwLjczLTAuMjJjMC4xNC0wLjIxLDAuMjItMC4yMSwwLjIyLTAuNzMgICAgIHYtMS42YzAtMS4yNCwwLjIxLTEuOTcsMC45NC0yLjM0di0wLjA3Yy0wLjczLTAuMjItMC45NC0wLjg4LTAuOTQtMS45OHYtMS4zMWMwLTAuNzMtMC4zNy0wLjUxLTAuOTUtMC41MXYtMS41NCAgICAgYzEuMDIsMCwxLjc1LDAuMjIsMi4xOSwwLjUyYzAuNDQsMC4zNiwwLjczLDAuOTUsMC43MywxLjc1djEuMzljMCwwLjgsMC4yOSwwLjczLDAuOTUsMC43M0wxNi43Myw0My4zMnogTTkuODYsMzQuMTEgICAgIGMtMy44NywwLTcuMDEtMC45NS03LjAxLTIuMTJjMC0xLjE3LDMuMTQtMi4xMSw3LjAxLTIuMTFzNy4wMSwwLjk0LDcuMDEsMi4xMUMxNi44NywzMy4yNCwxMy43MywzNC4xMSw5Ljg2LDM0LjExeiIvPiYjeGE7CQk8L2c+JiN4YTsJPC9nPiYjeGE7PC9nPiYjeGE7PC9zdmc+;" vertex="1" parent="1">
          <mxGeometry x="440" y="564" width="46.15" height="60" as="geometry" />
        </mxCell>
        <mxCell id="FN3_UUnZCpq1qiRNQo3k-3" value="WebService" style="text;html=1;resizable=0;autosize=1;align=center;verticalAlign=middle;points=[];fillColor=none;strokeColor=none;rounded=0;" vertex="1" parent="1">
          <mxGeometry x="423.08" y="320" width="80" height="20" as="geometry" />
        </mxCell>
        <mxCell id="FN3_UUnZCpq1qiRNQo3k-4" value="Kp3rsServer" style="text;html=1;resizable=0;autosize=1;align=center;verticalAlign=middle;points=[];fillColor=none;strokeColor=none;rounded=0;" vertex="1" parent="1">
          <mxGeometry x="423.08" y="624" width="80" height="20" as="geometry" />
        </mxCell>
        <mxCell id="FN3_UUnZCpq1qiRNQo3k-6" value="Contract_List_BSC" style="text;html=1;resizable=0;autosize=1;align=center;verticalAlign=middle;points=[];fillColor=none;strokeColor=none;rounded=0;" vertex="1" parent="1">
          <mxGeometry x="592.08" y="624" width="120" height="20" as="geometry" />
        </mxCell>
        <mxCell id="FN3_UUnZCpq1qiRNQo3k-7" value="" style="shape=image;verticalLabelPosition=bottom;labelBackgroundColor=#ffffff;verticalAlign=top;aspect=fixed;imageAspect=0;image=data:image/svg+xml,PHN2ZyB4bWxuczpjYz0iaHR0cDovL2NyZWF0aXZlY29tbW9ucy5vcmcvbnMjIiB4bWxuczpkYz0iaHR0cDovL3B1cmwub3JnL2RjL2VsZW1lbnRzLzEuMS8iIHhtbG5zOmlua3NjYXBlPSJodHRwOi8vd3d3Lmlua3NjYXBlLm9yZy9uYW1lc3BhY2VzL2lua3NjYXBlIiB4bWxuczpyZGY9Imh0dHA6Ly93d3cudzMub3JnLzE5OTkvMDIvMjItcmRmLXN5bnRheC1ucyMiIHhtbG5zOnNvZGlwb2RpPSJodHRwOi8vc29kaXBvZGkuc291cmNlZm9yZ2UubmV0L0RURC9zb2RpcG9kaS0wLmR0ZCIgeG1sbnM6c3ZnPSJodHRwOi8vd3d3LnczLm9yZy8yMDAwL3N2ZyIgeG1sbnM9Imh0dHA6Ly93d3cudzMub3JnLzIwMDAvc3ZnIiB4bWxuczp4bGluaz0iaHR0cDovL3d3dy53My5vcmcvMTk5OS94bGluayIgdmVyc2lvbj0iMS4xIiBpZD0ic3ZnOTg2NjciIGlua3NjYXBlOnZlcnNpb249IjAuOTIuMyAoMjQwNTU0NiwgMjAxOC0wMy0xMSkiIHNvZGlwb2RpOmRvY25hbWU9ImRhdGFiYXNlX21pcnJvci5zdmciIHg9IjBweCIgeT0iMHB4IiB2aWV3Qm94PSIwIDAgNjEuODkgNTAuNzEiIHN0eWxlPSJlbmFibGUtYmFja2dyb3VuZDpuZXcgMCAwIDYxLjg5IDUwLjcxOyIgeG1sOnNwYWNlPSJwcmVzZXJ2ZSI+JiN4YTs8c29kaXBvZGk6bmFtZWR2aWV3IGJvcmRlcmNvbG9yPSIjNjY2NjY2IiBib3JkZXJvcGFjaXR5PSIxIiBmaXQtbWFyZ2luLWJvdHRvbT0iMCIgZml0LW1hcmdpbi1sZWZ0PSIwIiBmaXQtbWFyZ2luLXJpZ2h0PSIwIiBmaXQtbWFyZ2luLXRvcD0iMCIgZ3JpZHRvbGVyYW5jZT0iMTAiIGd1aWRldG9sZXJhbmNlPSIxMCIgaWQ9Im5hbWVkdmlldzk4NjY5IiBpbmtzY2FwZTpjdXJyZW50LWxheWVyPSJzdmc5ODY2NyIgaW5rc2NhcGU6Y3g9IjQxLjI2MDEyOCIgaW5rc2NhcGU6Y3k9IjMzLjgwNDE5NCIgaW5rc2NhcGU6cGFnZW9wYWNpdHk9IjAiIGlua3NjYXBlOnBhZ2VzaGFkb3c9IjIiIGlua3NjYXBlOndpbmRvdy1oZWlnaHQ9IjEwMTciIGlua3NjYXBlOndpbmRvdy1tYXhpbWl6ZWQ9IjEiIGlua3NjYXBlOndpbmRvdy13aWR0aD0iMTkyMCIgaW5rc2NhcGU6d2luZG93LXg9Ii04IiBpbmtzY2FwZTp3aW5kb3cteT0iLTgiIGlua3NjYXBlOnpvb209IjEyLjgyMTk3OCIgb2JqZWN0dG9sZXJhbmNlPSIxMCIgcGFnZWNvbG9yPSIjZmZmZmZmIiBzaG93Z3JpZD0iZmFsc2UiPiYjeGE7CTwvc29kaXBvZGk6bmFtZWR2aWV3PiYjeGE7PGcgaWQ9Imc5ODY2NSIgdHJhbnNmb3JtPSJ0cmFuc2xhdGUoMCwwLjAwMTEpIj4mI3hhOwk8dGl0bGUgaWQ9InRpdGxlOTg2NDUiPlBhZ2UtMTwvdGl0bGU+JiN4YTsJPGcgaWQ9Imdyb3VwMzg1Mi0xIj4mI3hhOwkJPHRpdGxlIGlkPSJ0aXRsZTk4NjQ3Ij5EYXRhYmFzZSBNaXJyb3I8L3RpdGxlPiYjeGE7CQk8ZyBpZD0ic2hhcGUzODUzLTIiIHRyYW5zZm9ybT0idHJhbnNsYXRlKDcuMzc5ODEsLTEuNjU0MTYpIj4mI3hhOwkJCTx0aXRsZSBpZD0idGl0bGU5ODY0OSI+U2hlZXQuMzg1MzwvdGl0bGU+JiN4YTsJCQk8cGF0aCBpZD0icGF0aDk4NjUxIiBpbmtzY2FwZTpjb25uZWN0b3ItY3VydmF0dXJlPSIwIiBzdHlsZT0iZmlsbDojM0Y1NzY1OyIgZD0iTTE0LjgsMzcuMTRoLTQuN2w0Ljc4LDQuOTNIOS4wNiAgICAgYy0yLjM1LDAtNC41NS0yLjE2LTUuMzYtNC45M0gwYzAuOTMsNC44Miw0LjgyLDguNjQsOS4xNCw4LjY0aDUuNzhsLTQuODIsNC45M2g0LjYzbDYuNzgtNi44MkwxNC44LDM3LjE0eiIvPiYjeGE7CQk8L2c+JiN4YTsJCTxnIGlkPSJzaGFwZTM4NTQtNCIgdHJhbnNmb3JtPSJ0cmFuc2xhdGUoMCwtMTYuNzMxMSkiPiYjeGE7CQkJPHRpdGxlIGlkPSJ0aXRsZTk4NjU0Ij5EYXRhYmFzZTwvdGl0bGU+JiN4YTsJCQk8cGF0aCBpZD0icGF0aDk4NjU2IiBpbmtzY2FwZTpjb25uZWN0b3ItY3VydmF0dXJlPSIwIiBzdHlsZT0iZmlsbDojM0Y1NzY1OyIgZD0iTTAsMjQuODNjMCwyMC41MSwwLDIwLjUxLDAsMjAuNTFsMCwwICAgICBjMC42NiwzLjEyLDcuMjksNS4zNywxNS4zOSw1LjM3YzguMTUsMCwxNC43OC0yLjI1LDE1LjM4LTUuMzdsMCwwbDAsMGMwLTAuMiwwLTAuMiwwLTAuNGMwLDAsMCwwLDAtMC4yYzAtMTkuNzEsMC0xOS43MSwwLTE5LjcxICAgICBjLTIuNDUsMi43Mi05LjA5LDQuMTgtMTUuMzgsNC4xOEM5LjE1LDI5LjIxLDIuNTIsMjcuNzUsMCwyNC44M3ogTTE1LjM5LDI4LjE1QzYuOSwyOC4xNSwwLDI1LjY5LDAsMjIuNTdzNi45LTUuODQsMTUuMzktNS44NCAgICAgYzguNTUsMCwxNS4zOCwyLjcyLDE1LjM4LDUuODRTMjMuOTQsMjguMTUsMTUuMzksMjguMTV6Ii8+JiN4YTsJCTwvZz4mI3hhOwkJPGcgaWQ9InNoYXBlMzg1NS02IiB0cmFuc2Zvcm09InRyYW5zbGF0ZSgzMS4xMjAxKSI+JiN4YTsJCQk8dGl0bGUgaWQ9InRpdGxlOTg2NTkiPkRhdGFiYXNlLjc4NDwvdGl0bGU+JiN4YTsJCQk8cGF0aCBpZD0icGF0aDk4NjYxIiBpbmtzY2FwZTpjb25uZWN0b3ItY3VydmF0dXJlPSIwIiBzdHlsZT0iZmlsbDojM0Y1NzY1OyIgZD0iTTAsMjQuODNjMCwyMC41MSwwLDIwLjUxLDAsMjAuNTFsMCwwICAgICBjMC42NiwzLjEyLDcuMjksNS4zNywxNS4zOSw1LjM3YzguMTUsMCwxNC43OC0yLjI1LDE1LjM4LTUuMzdsMCwwbDAsMGMwLTAuMiwwLTAuMiwwLTAuNGMwLDAsMCwwLDAtMC4yYzAtMTkuNzEsMC0xOS43MSwwLTE5LjcxICAgICBjLTIuNDUsMi43Mi05LjA5LDQuMTgtMTUuMzgsNC4xOEM5LjE1LDI5LjIxLDIuNTIsMjcuNzUsMCwyNC44M3ogTTE1LjM5LDI4LjE1QzYuOSwyOC4xNSwwLDI1LjY5LDAsMjIuNTdzNi45LTUuODQsMTUuMzktNS44NCAgICAgYzguNTUsMCwxNS4zOCwyLjcyLDE1LjM4LDUuODRTMjMuOTQsMjguMTUsMTUuMzksMjguMTV6Ii8+JiN4YTsJCTwvZz4mI3hhOwk8L2c+JiN4YTs8L2c+JiN4YTs8L3N2Zz4=;" vertex="1" parent="1">
          <mxGeometry x="432.08" y="414" width="62" height="51" as="geometry" />
        </mxCell>
        <mxCell id="FN3_UUnZCpq1qiRNQo3k-8" value="DataCenter" style="text;html=1;resizable=0;autosize=1;align=center;verticalAlign=middle;points=[];fillColor=none;strokeColor=none;rounded=0;" vertex="1" parent="1">
          <mxGeometry x="423.08" y="465" width="80" height="20" as="geometry" />
        </mxCell>
        <mxCell id="FN3_UUnZCpq1qiRNQo3k-24" style="edgeStyle=orthogonalEdgeStyle;shape=flexArrow;rounded=0;orthogonalLoop=1;jettySize=auto;html=1;" edge="1" parent="1">
          <mxGeometry relative="1" as="geometry">
            <mxPoint x="500" y="442" as="targetPoint" />
            <mxPoint x="600" y="442" as="sourcePoint" />
          </mxGeometry>
        </mxCell>
        <mxCell id="FN3_UUnZCpq1qiRNQo3k-9" value="" style="shape=image;verticalLabelPosition=bottom;labelBackgroundColor=#ffffff;verticalAlign=top;aspect=fixed;imageAspect=0;image=data:image/svg+xml,PHN2ZyB4bWxuczpjYz0iaHR0cDovL2NyZWF0aXZlY29tbW9ucy5vcmcvbnMjIiB4bWxuczpkYz0iaHR0cDovL3B1cmwub3JnL2RjL2VsZW1lbnRzLzEuMS8iIHhtbG5zOmlua3NjYXBlPSJodHRwOi8vd3d3Lmlua3NjYXBlLm9yZy9uYW1lc3BhY2VzL2lua3NjYXBlIiB4bWxuczpyZGY9Imh0dHA6Ly93d3cudzMub3JnLzE5OTkvMDIvMjItcmRmLXN5bnRheC1ucyMiIHhtbG5zOnNvZGlwb2RpPSJodHRwOi8vc29kaXBvZGkuc291cmNlZm9yZ2UubmV0L0RURC9zb2RpcG9kaS0wLmR0ZCIgeG1sbnM6c3ZnPSJodHRwOi8vd3d3LnczLm9yZy8yMDAwL3N2ZyIgeG1sbnM9Imh0dHA6Ly93d3cudzMub3JnLzIwMDAvc3ZnIiB4bWxuczp4bGluaz0iaHR0cDovL3d3dy53My5vcmcvMTk5OS94bGluayIgdmVyc2lvbj0iMS4xIiBpZD0ic3ZnMTA0MTk4IiBpbmtzY2FwZTp2ZXJzaW9uPSIwLjkyLjMgKDI0MDU1NDYsIDIwMTgtMDMtMTEpIiBzb2RpcG9kaTpkb2NuYW1lPSJyZXBvcnRpbmdfc2VydmljZXMuc3ZnIiB4PSIwcHgiIHk9IjBweCIgdmlld0JveD0iMCAwIDUyLjggNjcuODEiIHN0eWxlPSJlbmFibGUtYmFja2dyb3VuZDpuZXcgMCAwIDUyLjggNjcuODE7IiB4bWw6c3BhY2U9InByZXNlcnZlIj4mI3hhOzxzb2RpcG9kaTpuYW1lZHZpZXcgYm9yZGVyY29sb3I9IiM2NjY2NjYiIGJvcmRlcm9wYWNpdHk9IjEiIGZpdC1tYXJnaW4tYm90dG9tPSIwIiBmaXQtbWFyZ2luLWxlZnQ9IjAiIGZpdC1tYXJnaW4tcmlnaHQ9IjAiIGZpdC1tYXJnaW4tdG9wPSIwIiBncmlkdG9sZXJhbmNlPSIxMCIgZ3VpZGV0b2xlcmFuY2U9IjEwIiBpZD0ibmFtZWR2aWV3MTA0MjAwIiBpbmtzY2FwZTpjdXJyZW50LWxheWVyPSJzdmcxMDQxOTgiIGlua3NjYXBlOmN4PSIzNS4xOTk5OTgiIGlua3NjYXBlOmN5PSItMTAuMjIiIGlua3NjYXBlOnBhZ2VvcGFjaXR5PSIwIiBpbmtzY2FwZTpwYWdlc2hhZG93PSIyIiBpbmtzY2FwZTp3aW5kb3ctaGVpZ2h0PSIxMDE3IiBpbmtzY2FwZTp3aW5kb3ctbWF4aW1pemVkPSIxIiBpbmtzY2FwZTp3aW5kb3ctd2lkdGg9IjE5MjAiIGlua3NjYXBlOndpbmRvdy14PSItOCIgaW5rc2NhcGU6d2luZG93LXk9Ii04IiBpbmtzY2FwZTp6b29tPSI0LjE4MDE4NTkiIG9iamVjdHRvbGVyYW5jZT0iMTAiIHBhZ2Vjb2xvcj0iI2ZmZmZmZiIgc2hvd2dyaWQ9ImZhbHNlIj4mI3hhOwk8L3NvZGlwb2RpOm5hbWVkdmlldz4mI3hhOzxnIGlkPSJnMTA0MTk2IiB0cmFuc2Zvcm09InRyYW5zbGF0ZSgtNTYuMzY0LC0yLjMwMjYzNzgpIj4mI3hhOwk8dGl0bGUgaWQ9InRpdGxlMTA0MTA4Ij5QYWdlLTE8L3RpdGxlPiYjeGE7CTxnIGlkPSJncm91cDM1ODMtMSIgdHJhbnNmb3JtPSJ0cmFuc2xhdGUoNTYuMzY0LC04NS40Mzc1KSI+JiN4YTsJCTx0aXRsZSBpZD0idGl0bGUxMDQxMTAiPlJlcG9ydGluZyBTZXJ2aWNlczwvdGl0bGU+JiN4YTsJCTxnIGlkPSJncm91cDM1ODQtMiI+JiN4YTsJCQk8dGl0bGUgaWQ9InRpdGxlMTA0MTEyIj5TaGVldC4zNTg0PC90aXRsZT4mI3hhOwkJCTxnIGlkPSJzaGFwZTM1ODUtMyI+JiN4YTsJCQkJPHRpdGxlIGlkPSJ0aXRsZTEwNDExNCI+U2hlZXQuMzU4NTwvdGl0bGU+JiN4YTsJCQkJPHBhdGggaWQ9InBhdGgxMDQxMTYiIGlua3NjYXBlOmNvbm5lY3Rvci1jdXJ2YXR1cmU9IjAiIHN0eWxlPSJmaWxsOiMzRjU3NjU7IiBkPSJNMjQuNTIsODcuNzRDOS41LDg3Ljc0LDAsOTIuNTEsMCw5Ny43OXY0Ny41OSAgICAgIGMwLDQuODUsNC4yOSw5LjQ2LDE3LjYsMTAuMTd2LTQyLjY3bDIzLjcyLTAuMDRsOC45NCw4LjE2Vjk4LjIzQzUwLjI4LDkyLjk1LDM5LjUsODcuNzQsMjQuNTIsODcuNzR6IE0yNC42Miw5MS4zOSAgICAgIGMxMC42NSwwLDE3Ljk4LDIuNTEsMTcuOTgsNS42MWMwLDMuMDctNy4zMyw1LjUtMTcuOTgsNS41Yy0xMC42OSwwLTE5LjM1LTIuNDktMTkuMzUtNS41NkM1LjI3LDkzLjg4LDEzLjkzLDkxLjM5LDI0LjYyLDkxLjM5eiAgICAgICIvPiYjeGE7CQkJPC9nPiYjeGE7CQk8L2c+JiN4YTsJCTxnIGlkPSJncm91cDM1ODYtNSIgdHJhbnNmb3JtPSJ0cmFuc2xhdGUoMjAuMTE4LC04LjYyMTI1ZS00KSI+JiN4YTsJCQk8dGl0bGUgaWQ9InRpdGxlMTA0MTIwIj5TaGVldC4zNTg2PC90aXRsZT4mI3hhOwkJCTxnIGlkPSJzaGFwZTM1ODctNiI+JiN4YTsJCQkJPHRpdGxlIGlkPSJ0aXRsZTEwNDEyMiI+U2hlZXQuMzU4NzwvdGl0bGU+JiN4YTsJCQkJPHBhdGggaWQ9InBhdGgxMDQxMjQiIGlua3NjYXBlOmNvbm5lY3Rvci1jdXJ2YXR1cmU9IjAiIHN0eWxlPSJmaWxsOiMzRjU3NjU7IiBkPSJNMzAuMTcsMTUzLjA5SDIuNTF2LTM1LjE4aDE3LjZ2MTAuMDRoMTAuMDYgICAgICBWMTUzLjA5eiBNMTkuMjEsMTE1LjRIMHY0MC4xNWgzMi42OHYtMjguODZMMTkuMjEsMTE1LjR6Ii8+JiN4YTsJCQk8L2c+JiN4YTsJCTwvZz4mI3hhOwkJPGcgaWQ9Imdyb3VwMzU4OC04IiB0cmFuc2Zvcm09InRyYW5zbGF0ZSgyNy4wMjY4LC0xMC44ODEzKSI+JiN4YTsJCQk8dGl0bGUgaWQ9InRpdGxlMTA0MTI4Ij5TaGVldC4zNTg4PC90aXRsZT4mI3hhOwkJCTxnIGlkPSJncm91cDM1ODktOSIgdHJhbnNmb3JtPSJ0cmFuc2xhdGUoMCwtMjAuMDk4NykiPiYjeGE7CQkJCTx0aXRsZSBpZD0idGl0bGUxMDQxMzAiPlNoZWV0LjM1ODk8L3RpdGxlPiYjeGE7CQkJCTxnIGlkPSJzaGFwZTM1OTAtMTAiPiYjeGE7CQkJCQk8dGl0bGUgaWQ9InRpdGxlMTA0MTMyIj5TaGVldC4zNTkwPC90aXRsZT4mI3hhOwkJCQkJPHJlY3QgaWQ9InJlY3QxMDQxMzQiIHg9IjAiIHk9IjE1My4wNCIgc3R5bGU9ImZpbGw6IzNGNTc2NTsiIHdpZHRoPSI3LjU1IiBoZWlnaHQ9IjIuNTIiLz4mI3hhOwkJCQk8L2c+JiN4YTsJCQk8L2c+JiN4YTsJCQk8ZyBpZD0iZ3JvdXAzNTkxLTEyIiB0cmFuc2Zvcm09InRyYW5zbGF0ZSgwLC0xNS4wNzkpIj4mI3hhOwkJCQk8dGl0bGUgaWQ9InRpdGxlMTA0MTM4Ij5TaGVldC4zNTkxPC90aXRsZT4mI3hhOwkJCQk8ZyBpZD0ic2hhcGUzNTkyLTEzIj4mI3hhOwkJCQkJPHRpdGxlIGlkPSJ0aXRsZTEwNDE0MCI+U2hlZXQuMzU5MjwvdGl0bGU+JiN4YTsJCQkJCTxyZWN0IGlkPSJyZWN0MTA0MTQyIiB4PSIwIiB5PSIxNTMuMDUiIHN0eWxlPSJmaWxsOiMzRjU3NjU7IiB3aWR0aD0iNy41NSIgaGVpZ2h0PSIyLjUxIi8+JiN4YTsJCQkJPC9nPiYjeGE7CQkJPC9nPiYjeGE7CQkJPGcgaWQ9Imdyb3VwMzU5My0xNSIgdHJhbnNmb3JtPSJ0cmFuc2xhdGUoMCwtMTAuMDYwMSkiPiYjeGE7CQkJCTx0aXRsZSBpZD0idGl0bGUxMDQxNDYiPlNoZWV0LjM1OTM8L3RpdGxlPiYjeGE7CQkJCTxnIGlkPSJzaGFwZTM1OTQtMTYiPiYjeGE7CQkJCQk8dGl0bGUgaWQ9InRpdGxlMTA0MTQ4Ij5TaGVldC4zNTk0PC90aXRsZT4mI3hhOwkJCQkJPHJlY3QgaWQ9InJlY3QxMDQxNTAiIHg9IjAiIHk9IjE1My4wNCIgc3R5bGU9ImZpbGw6IzNGNTc2NTsiIHdpZHRoPSI3LjU1IiBoZWlnaHQ9IjIuNTEiLz4mI3hhOwkJCQk8L2c+JiN4YTsJCQk8L2c+JiN4YTsJCQk8ZyBpZD0iZ3JvdXAzNTk1LTE4IiB0cmFuc2Zvcm09InRyYW5zbGF0ZSgwLC01LjAzMzk1KSI+JiN4YTsJCQkJPHRpdGxlIGlkPSJ0aXRsZTEwNDE1NCI+U2hlZXQuMzU5NTwvdGl0bGU+JiN4YTsJCQkJPGcgaWQ9InNoYXBlMzU5Ni0xOSI+JiN4YTsJCQkJCTx0aXRsZSBpZD0idGl0bGUxMDQxNTYiPlNoZWV0LjM1OTY8L3RpdGxlPiYjeGE7CQkJCQk8cmVjdCBpZD0icmVjdDEwNDE1OCIgeD0iMCIgeT0iMTUzLjA0IiBzdHlsZT0iZmlsbDojM0Y1NzY1OyIgd2lkdGg9IjcuNTUiIGhlaWdodD0iMi41MSIvPiYjeGE7CQkJCTwvZz4mI3hhOwkJCTwvZz4mI3hhOwkJCTxnIGlkPSJncm91cDM1OTctMjEiPiYjeGE7CQkJCTx0aXRsZSBpZD0idGl0bGUxMDQxNjIiPlNoZWV0LjM1OTc8L3RpdGxlPiYjeGE7CQkJCTxnIGlkPSJzaGFwZTM1OTgtMjIiPiYjeGE7CQkJCQk8dGl0bGUgaWQ9InRpdGxlMTA0MTY0Ij5TaGVldC4zNTk4PC90aXRsZT4mI3hhOwkJCQkJPHJlY3QgaWQ9InJlY3QxMDQxNjYiIHg9IjAiIHk9IjE1My4wNCIgc3R5bGU9ImZpbGw6IzNGNTc2NTsiIHdpZHRoPSI3LjU1IiBoZWlnaHQ9IjIuNTIiLz4mI3hhOwkJCQk8L2c+JiN4YTsJCQk8L2c+JiN4YTsJCQk8ZyBpZD0iZ3JvdXAzNTk5LTI0IiB0cmFuc2Zvcm09InRyYW5zbGF0ZSgxMC4wNTg0KSI+JiN4YTsJCQkJPHRpdGxlIGlkPSJ0aXRsZTEwNDE3MCI+U2hlZXQuMzU5OTwvdGl0bGU+JiN4YTsJCQkJPGcgaWQ9InNoYXBlMzYwMC0yNSI+JiN4YTsJCQkJCTx0aXRsZSBpZD0idGl0bGUxMDQxNzIiPlNoZWV0LjM2MDA8L3RpdGxlPiYjeGE7CQkJCQk8cmVjdCBpZD0icmVjdDEwNDE3NCIgeD0iMCIgeT0iMTUzLjA0IiBzdHlsZT0iZmlsbDojM0Y1NzY1OyIgd2lkdGg9IjcuNTQiIGhlaWdodD0iMi41MiIvPiYjeGE7CQkJCTwvZz4mI3hhOwkJCTwvZz4mI3hhOwkJCTxnIGlkPSJncm91cDM2MDEtMjciIHRyYW5zZm9ybT0idHJhbnNsYXRlKDEwLjA1ODQsLTUuMDMzOTUpIj4mI3hhOwkJCQk8dGl0bGUgaWQ9InRpdGxlMTA0MTc4Ij5TaGVldC4zNjAxPC90aXRsZT4mI3hhOwkJCQk8ZyBpZD0ic2hhcGUzNjAyLTI4Ij4mI3hhOwkJCQkJPHRpdGxlIGlkPSJ0aXRsZTEwNDE4MCI+U2hlZXQuMzYwMjwvdGl0bGU+JiN4YTsJCQkJCTxyZWN0IGlkPSJyZWN0MTA0MTgyIiB4PSIwIiB5PSIxNTMuMDQiIHN0eWxlPSJmaWxsOiMzRjU3NjU7IiB3aWR0aD0iNy41NCIgaGVpZ2h0PSIyLjUxIi8+JiN4YTsJCQkJPC9nPiYjeGE7CQkJPC9nPiYjeGE7CQkJPGcgaWQ9Imdyb3VwMzYwMy0zMCIgdHJhbnNmb3JtPSJ0cmFuc2xhdGUoMTAuMDU4NCwtMTAuMDYwMSkiPiYjeGE7CQkJCTx0aXRsZSBpZD0idGl0bGUxMDQxODYiPlNoZWV0LjM2MDM8L3RpdGxlPiYjeGE7CQkJCTxnIGlkPSJzaGFwZTM2MDQtMzEiPiYjeGE7CQkJCQk8dGl0bGUgaWQ9InRpdGxlMTA0MTg4Ij5TaGVldC4zNjA0PC90aXRsZT4mI3hhOwkJCQkJPHJlY3QgaWQ9InJlY3QxMDQxOTAiIHg9IjAiIHk9IjE1My4wNCIgc3R5bGU9ImZpbGw6IzNGNTc2NTsiIHdpZHRoPSI3LjU0IiBoZWlnaHQ9IjIuNTEiLz4mI3hhOwkJCQk8L2c+JiN4YTsJCQk8L2c+JiN4YTsJCTwvZz4mI3hhOwk8L2c+JiN4YTs8L2c+JiN4YTs8L3N2Zz4=;" vertex="1" parent="1">
          <mxGeometry x="612.08" y="417.83" width="36.76" height="47.17" as="geometry" />
        </mxCell>
        <mxCell id="FN3_UUnZCpq1qiRNQo3k-10" value="GraphNode" style="text;html=1;resizable=0;autosize=1;align=center;verticalAlign=middle;points=[];fillColor=none;strokeColor=none;rounded=0;" vertex="1" parent="1">
          <mxGeometry x="590.46" y="465" width="80" height="20" as="geometry" />
        </mxCell>
        <mxCell id="FN3_UUnZCpq1qiRNQo3k-12" value="" style="shape=image;verticalLabelPosition=bottom;labelBackgroundColor=#ffffff;verticalAlign=top;aspect=fixed;imageAspect=0;image=data:image/svg+xml,PHN2ZyB4bWxuczpjYz0iaHR0cDovL2NyZWF0aXZlY29tbW9ucy5vcmcvbnMjIiB4bWxuczpkYz0iaHR0cDovL3B1cmwub3JnL2RjL2VsZW1lbnRzLzEuMS8iIHhtbG5zOmlua3NjYXBlPSJodHRwOi8vd3d3Lmlua3NjYXBlLm9yZy9uYW1lc3BhY2VzL2lua3NjYXBlIiB4bWxuczpyZGY9Imh0dHA6Ly93d3cudzMub3JnLzE5OTkvMDIvMjItcmRmLXN5bnRheC1ucyMiIHhtbG5zOnNvZGlwb2RpPSJodHRwOi8vc29kaXBvZGkuc291cmNlZm9yZ2UubmV0L0RURC9zb2RpcG9kaS0wLmR0ZCIgeG1sbnM6c3ZnPSJodHRwOi8vd3d3LnczLm9yZy8yMDAwL3N2ZyIgeG1sbnM9Imh0dHA6Ly93d3cudzMub3JnLzIwMDAvc3ZnIiB4bWxuczp4bGluaz0iaHR0cDovL3d3dy53My5vcmcvMTk5OS94bGluayIgdmVyc2lvbj0iMS4xIiBpZD0ic3ZnMzU5NDQiIGlua3NjYXBlOnZlcnNpb249IjAuOTIuMyAoMjQwNTU0NiwgMjAxOC0wMy0xMSkiIHNvZGlwb2RpOmRvY25hbWU9ImJpenRhbGtfYWRtaW5pc3RyYXRvcl9jb25zb2xlLnN2ZyIgeD0iMHB4IiB5PSIwcHgiIHZpZXdCb3g9IjAgMCA1Ni4yNSA0OS41IiBzdHlsZT0iZW5hYmxlLWJhY2tncm91bmQ6bmV3IDAgMCA1Ni4yNSA0OS41OyIgeG1sOnNwYWNlPSJwcmVzZXJ2ZSI+JiN4YTs8c29kaXBvZGk6bmFtZWR2aWV3IGJvcmRlcmNvbG9yPSIjNjY2NjY2IiBib3JkZXJvcGFjaXR5PSIxIiBmaXQtbWFyZ2luLWJvdHRvbT0iMCIgZml0LW1hcmdpbi1sZWZ0PSIwIiBmaXQtbWFyZ2luLXJpZ2h0PSIwIiBmaXQtbWFyZ2luLXRvcD0iMCIgZ3JpZHRvbGVyYW5jZT0iMTAiIGd1aWRldG9sZXJhbmNlPSIxMCIgaWQ9Im5hbWVkdmlldzM1OTQ2IiBpbmtzY2FwZTpjdXJyZW50LWxheWVyPSJzdmczNTk0NCIgaW5rc2NhcGU6Y3g9IjMzLjQ3MzE4NyIgaW5rc2NhcGU6Y3k9IjEzLjMyMDk0NyIgaW5rc2NhcGU6cGFnZW9wYWNpdHk9IjAiIGlua3NjYXBlOnBhZ2VzaGFkb3c9IjIiIGlua3NjYXBlOndpbmRvdy1oZWlnaHQ9IjEwMTciIGlua3NjYXBlOndpbmRvdy1tYXhpbWl6ZWQ9IjEiIGlua3NjYXBlOndpbmRvdy13aWR0aD0iMTkyMCIgaW5rc2NhcGU6d2luZG93LXg9Ii04IiBpbmtzY2FwZTp3aW5kb3cteT0iLTgiIGlua3NjYXBlOnpvb209IjQuMzc5MDA5NCIgb2JqZWN0dG9sZXJhbmNlPSIxMCIgcGFnZWNvbG9yPSIjZmZmZmZmIiBzaG93Z3JpZD0iZmFsc2UiPiYjeGE7CTwvc29kaXBvZGk6bmFtZWR2aWV3PiYjeGE7PGcgaWQ9ImczNTk0MiIgdHJhbnNmb3JtPSJ0cmFuc2xhdGUoLTEuNSwtMS41KSI+JiN4YTsJPHRpdGxlIGlkPSJ0aXRsZTM1ODg5Ij5QYWdlLTE8L3RpdGxlPiYjeGE7CTxnIGlkPSJncm91cDI2ODgtMSI+JiN4YTsJCTx0aXRsZSBpZD0idGl0bGUzNTg5MSI+Qml6VGFsayBBZG1pbmlzdHJhdG9yIENvbnNvbGU8L3RpdGxlPiYjeGE7CQk8ZyBpZD0ic2hhcGUyNjg5LTIiIHRyYW5zZm9ybT0idHJhbnNsYXRlKDEzLjUsLTEuNSkiPiYjeGE7CQkJPHRpdGxlIGlkPSJ0aXRsZTM1ODkzIj5TaGVldC4yNjg5PC90aXRsZT4mI3hhOwkJCTxwYXRoIGlkPSJwYXRoMzU4OTUiIGlua3NjYXBlOmNvbm5lY3Rvci1jdXJ2YXR1cmU9IjAiIHN0eWxlPSJmaWxsOiMzRjU3NjU7IiBkPSJNMjguMjIsNDguNzVoLTcuOTdWNDAuNUgxMnY4LjI1SDQuMDMgICAgIEMyLjAyLDQ4Ljc1LDAsNTAuNjMsMCw1Mi41aDMyLjI1QzMyLjI1LDUwLjYzLDMwLjIzLDQ4Ljc1LDI4LjIyLDQ4Ljc1eiIvPiYjeGE7CQk8L2c+JiN4YTsJCTxnIGlkPSJzaGFwZTI2OTAtNCIgdHJhbnNmb3JtPSJ0cmFuc2xhdGUoMS41LC0xNSkiPiYjeGE7CQkJPHRpdGxlIGlkPSJ0aXRsZTM1ODk4Ij5TaGVldC4yNjkwPC90aXRsZT4mI3hhOwkJCTxwYXRoIGlkPSJwYXRoMzU5MDAiIGlua3NjYXBlOmNvbm5lY3Rvci1jdXJ2YXR1cmU9IjAiIHN0eWxlPSJmaWxsOiMzRjU3NjU7IiBkPSJNNTQuMjQsMTYuNUgyLjAxQzAuOSwxNi41LDAsMTcuNCwwLDE4LjV2MzIgICAgIGMwLDEuMSwwLjksMiwyLjAxLDJoNTIuMjNjMS4xMSwwLDIuMDEtMC45LDIuMDEtMnYtMzJDNTYuMjUsMTcuNCw1NS4zNSwxNi41LDU0LjI0LDE2LjV6Ii8+JiN4YTsJCTwvZz4mI3hhOwkJPGcgaWQ9InNoYXBlMjY5MS02IiB0cmFuc2Zvcm09InRyYW5zbGF0ZSg1LjI1LC0xOC43NSkiPiYjeGE7CQkJPHRpdGxlIGlkPSJ0aXRsZTM1OTAzIj5TaGVldC4yNjkxPC90aXRsZT4mI3hhOwkJCTxyZWN0IGlkPSJyZWN0MzU5MDUiIHk9IjI0IiBzdHlsZT0iZmlsbDojRkZGRkZGOyIgd2lkdGg9IjQ4Ljc1IiBoZWlnaHQ9IjI4LjUiLz4mI3hhOwkJPC9nPiYjeGE7CQk8ZyBpZD0iZ3JvdXAyNjkyLTgiIHRyYW5zZm9ybT0idHJhbnNsYXRlKDExLjI1LC0yMi41KSI+JiN4YTsJCQk8dGl0bGUgaWQ9InRpdGxlMzU5MDgiPlNoZWV0LjI2OTI8L3RpdGxlPiYjeGE7CQkJPGcgaWQ9InNoYXBlMjY5My05IiB0cmFuc2Zvcm09InRyYW5zbGF0ZSgwLC0xMi43NSkiPiYjeGE7CQkJCTx0aXRsZSBpZD0idGl0bGUzNTkxMCI+U2hlZXQuMjY5MzwvdGl0bGU+JiN4YTsJCQkJPHJlY3QgaWQ9InJlY3QzNTkxMiIgeT0iNDQuMjUiIHN0eWxlPSJmaWxsOiNEQzNDMDA7IiB3aWR0aD0iOSIgaGVpZ2h0PSI4LjI1Ii8+JiN4YTsJCQk8L2c+JiN4YTsJCQk8ZyBpZD0ic2hhcGUyNjk0LTExIiB0cmFuc2Zvcm09InRyYW5zbGF0ZSgxMy41LC0xMi43NSkiPiYjeGE7CQkJCTx0aXRsZSBpZD0idGl0bGUzNTkxNSI+U2hlZXQuMjY5NDwvdGl0bGU+JiN4YTsJCQkJPHJlY3QgaWQ9InJlY3QzNTkxNyIgeT0iNDQuMjUiIHN0eWxlPSJmaWxsOiNFREM4N0U7IiB3aWR0aD0iOS43NSIgaGVpZ2h0PSI4LjI1Ii8+JiN4YTsJCQk8L2c+JiN4YTsJCQk8ZyBpZD0ic2hhcGUyNjk1LTEzIiB0cmFuc2Zvcm09InRyYW5zbGF0ZSgyNy43NSwtMTIuNzUpIj4mI3hhOwkJCQk8dGl0bGUgaWQ9InRpdGxlMzU5MjAiPlNoZWV0LjI2OTU8L3RpdGxlPiYjeGE7CQkJCTxyZWN0IGlkPSJyZWN0MzU5MjIiIHk9IjQ0LjI1IiBzdHlsZT0iZmlsbDojMDBBNEVGOyIgd2lkdGg9IjkiIGhlaWdodD0iOC4yNSIvPiYjeGE7CQkJPC9nPiYjeGE7CQkJPGcgaWQ9InNoYXBlMjY5Ni0xNSI+JiN4YTsJCQkJPHRpdGxlIGlkPSJ0aXRsZTM1OTI1Ij5TaGVldC4yNjk2PC90aXRsZT4mI3hhOwkJCQk8cmVjdCBpZD0icmVjdDM1OTI3IiB5PSI0NC4yNSIgc3R5bGU9ImZpbGw6I0ZGQjkwMDsiIHdpZHRoPSI5IiBoZWlnaHQ9IjguMjUiLz4mI3hhOwkJCTwvZz4mI3hhOwkJCTxnIGlkPSJzaGFwZTI2OTctMTciIHRyYW5zZm9ybT0idHJhbnNsYXRlKDEzLjUpIj4mI3hhOwkJCQk8dGl0bGUgaWQ9InRpdGxlMzU5MzAiPlNoZWV0LjI2OTc8L3RpdGxlPiYjeGE7CQkJCTxyZWN0IGlkPSJyZWN0MzU5MzIiIHk9IjQ0LjI1IiBzdHlsZT0iZmlsbDojNUI5QkQ1OyIgd2lkdGg9IjkuNzUiIGhlaWdodD0iOC4yNSIvPiYjeGE7CQkJPC9nPiYjeGE7CQkJPGcgaWQ9InNoYXBlMjY5OC0xOSIgdHJhbnNmb3JtPSJ0cmFuc2xhdGUoMjcuNzUpIj4mI3hhOwkJCQk8dGl0bGUgaWQ9InRpdGxlMzU5MzUiPlNoZWV0LjI2OTg8L3RpdGxlPiYjeGE7CQkJCTxyZWN0IGlkPSJyZWN0MzU5MzciIHk9IjQ0LjI1IiBzdHlsZT0iZmlsbDojN0ZCQTAwOyIgd2lkdGg9IjkiIGhlaWdodD0iOC4yNSIvPiYjeGE7CQkJPC9nPiYjeGE7CQk8L2c+JiN4YTsJPC9nPiYjeGE7PC9nPiYjeGE7PC9zdmc+;" vertex="1" parent="1">
          <mxGeometry x="90" y="198" width="56" height="50" as="geometry" />
        </mxCell>
        <mxCell id="FN3_UUnZCpq1qiRNQo3k-13" value="" style="shape=image;verticalLabelPosition=bottom;labelBackgroundColor=#ffffff;verticalAlign=top;aspect=fixed;imageAspect=0;image=data:image/svg+xml,PHN2ZyB4bWxuczpjYz0iaHR0cDovL2NyZWF0aXZlY29tbW9ucy5vcmcvbnMjIiB4bWxuczpkYz0iaHR0cDovL3B1cmwub3JnL2RjL2VsZW1lbnRzLzEuMS8iIHhtbG5zOmlua3NjYXBlPSJodHRwOi8vd3d3Lmlua3NjYXBlLm9yZy9uYW1lc3BhY2VzL2lua3NjYXBlIiB4bWxuczpyZGY9Imh0dHA6Ly93d3cudzMub3JnLzE5OTkvMDIvMjItcmRmLXN5bnRheC1ucyMiIHhtbG5zOnNvZGlwb2RpPSJodHRwOi8vc29kaXBvZGkuc291cmNlZm9yZ2UubmV0L0RURC9zb2RpcG9kaS0wLmR0ZCIgeG1sbnM6c3ZnPSJodHRwOi8vd3d3LnczLm9yZy8yMDAwL3N2ZyIgeG1sbnM9Imh0dHA6Ly93d3cudzMub3JnLzIwMDAvc3ZnIiB4bWxuczp4bGluaz0iaHR0cDovL3d3dy53My5vcmcvMTk5OS94bGluayIgdmVyc2lvbj0iMS4xIiBpZD0ic3ZnMzU5NDQiIGlua3NjYXBlOnZlcnNpb249IjAuOTIuMyAoMjQwNTU0NiwgMjAxOC0wMy0xMSkiIHNvZGlwb2RpOmRvY25hbWU9ImJpenRhbGtfYWRtaW5pc3RyYXRvcl9jb25zb2xlLnN2ZyIgeD0iMHB4IiB5PSIwcHgiIHZpZXdCb3g9IjAgMCA1Ni4yNSA0OS41IiBzdHlsZT0iZW5hYmxlLWJhY2tncm91bmQ6bmV3IDAgMCA1Ni4yNSA0OS41OyIgeG1sOnNwYWNlPSJwcmVzZXJ2ZSI+JiN4YTs8c29kaXBvZGk6bmFtZWR2aWV3IGJvcmRlcmNvbG9yPSIjNjY2NjY2IiBib3JkZXJvcGFjaXR5PSIxIiBmaXQtbWFyZ2luLWJvdHRvbT0iMCIgZml0LW1hcmdpbi1sZWZ0PSIwIiBmaXQtbWFyZ2luLXJpZ2h0PSIwIiBmaXQtbWFyZ2luLXRvcD0iMCIgZ3JpZHRvbGVyYW5jZT0iMTAiIGd1aWRldG9sZXJhbmNlPSIxMCIgaWQ9Im5hbWVkdmlldzM1OTQ2IiBpbmtzY2FwZTpjdXJyZW50LWxheWVyPSJzdmczNTk0NCIgaW5rc2NhcGU6Y3g9IjMzLjQ3MzE4NyIgaW5rc2NhcGU6Y3k9IjEzLjMyMDk0NyIgaW5rc2NhcGU6cGFnZW9wYWNpdHk9IjAiIGlua3NjYXBlOnBhZ2VzaGFkb3c9IjIiIGlua3NjYXBlOndpbmRvdy1oZWlnaHQ9IjEwMTciIGlua3NjYXBlOndpbmRvdy1tYXhpbWl6ZWQ9IjEiIGlua3NjYXBlOndpbmRvdy13aWR0aD0iMTkyMCIgaW5rc2NhcGU6d2luZG93LXg9Ii04IiBpbmtzY2FwZTp3aW5kb3cteT0iLTgiIGlua3NjYXBlOnpvb209IjQuMzc5MDA5NCIgb2JqZWN0dG9sZXJhbmNlPSIxMCIgcGFnZWNvbG9yPSIjZmZmZmZmIiBzaG93Z3JpZD0iZmFsc2UiPiYjeGE7CTwvc29kaXBvZGk6bmFtZWR2aWV3PiYjeGE7PGcgaWQ9ImczNTk0MiIgdHJhbnNmb3JtPSJ0cmFuc2xhdGUoLTEuNSwtMS41KSI+JiN4YTsJPHRpdGxlIGlkPSJ0aXRsZTM1ODg5Ij5QYWdlLTE8L3RpdGxlPiYjeGE7CTxnIGlkPSJncm91cDI2ODgtMSI+JiN4YTsJCTx0aXRsZSBpZD0idGl0bGUzNTg5MSI+Qml6VGFsayBBZG1pbmlzdHJhdG9yIENvbnNvbGU8L3RpdGxlPiYjeGE7CQk8ZyBpZD0ic2hhcGUyNjg5LTIiIHRyYW5zZm9ybT0idHJhbnNsYXRlKDEzLjUsLTEuNSkiPiYjeGE7CQkJPHRpdGxlIGlkPSJ0aXRsZTM1ODkzIj5TaGVldC4yNjg5PC90aXRsZT4mI3hhOwkJCTxwYXRoIGlkPSJwYXRoMzU4OTUiIGlua3NjYXBlOmNvbm5lY3Rvci1jdXJ2YXR1cmU9IjAiIHN0eWxlPSJmaWxsOiMzRjU3NjU7IiBkPSJNMjguMjIsNDguNzVoLTcuOTdWNDAuNUgxMnY4LjI1SDQuMDMgICAgIEMyLjAyLDQ4Ljc1LDAsNTAuNjMsMCw1Mi41aDMyLjI1QzMyLjI1LDUwLjYzLDMwLjIzLDQ4Ljc1LDI4LjIyLDQ4Ljc1eiIvPiYjeGE7CQk8L2c+JiN4YTsJCTxnIGlkPSJzaGFwZTI2OTAtNCIgdHJhbnNmb3JtPSJ0cmFuc2xhdGUoMS41LC0xNSkiPiYjeGE7CQkJPHRpdGxlIGlkPSJ0aXRsZTM1ODk4Ij5TaGVldC4yNjkwPC90aXRsZT4mI3hhOwkJCTxwYXRoIGlkPSJwYXRoMzU5MDAiIGlua3NjYXBlOmNvbm5lY3Rvci1jdXJ2YXR1cmU9IjAiIHN0eWxlPSJmaWxsOiMzRjU3NjU7IiBkPSJNNTQuMjQsMTYuNUgyLjAxQzAuOSwxNi41LDAsMTcuNCwwLDE4LjV2MzIgICAgIGMwLDEuMSwwLjksMiwyLjAxLDJoNTIuMjNjMS4xMSwwLDIuMDEtMC45LDIuMDEtMnYtMzJDNTYuMjUsMTcuNCw1NS4zNSwxNi41LDU0LjI0LDE2LjV6Ii8+JiN4YTsJCTwvZz4mI3hhOwkJPGcgaWQ9InNoYXBlMjY5MS02IiB0cmFuc2Zvcm09InRyYW5zbGF0ZSg1LjI1LC0xOC43NSkiPiYjeGE7CQkJPHRpdGxlIGlkPSJ0aXRsZTM1OTAzIj5TaGVldC4yNjkxPC90aXRsZT4mI3hhOwkJCTxyZWN0IGlkPSJyZWN0MzU5MDUiIHk9IjI0IiBzdHlsZT0iZmlsbDojRkZGRkZGOyIgd2lkdGg9IjQ4Ljc1IiBoZWlnaHQ9IjI4LjUiLz4mI3hhOwkJPC9nPiYjeGE7CQk8ZyBpZD0iZ3JvdXAyNjkyLTgiIHRyYW5zZm9ybT0idHJhbnNsYXRlKDExLjI1LC0yMi41KSI+JiN4YTsJCQk8dGl0bGUgaWQ9InRpdGxlMzU5MDgiPlNoZWV0LjI2OTI8L3RpdGxlPiYjeGE7CQkJPGcgaWQ9InNoYXBlMjY5My05IiB0cmFuc2Zvcm09InRyYW5zbGF0ZSgwLC0xMi43NSkiPiYjeGE7CQkJCTx0aXRsZSBpZD0idGl0bGUzNTkxMCI+U2hlZXQuMjY5MzwvdGl0bGU+JiN4YTsJCQkJPHJlY3QgaWQ9InJlY3QzNTkxMiIgeT0iNDQuMjUiIHN0eWxlPSJmaWxsOiNEQzNDMDA7IiB3aWR0aD0iOSIgaGVpZ2h0PSI4LjI1Ii8+JiN4YTsJCQk8L2c+JiN4YTsJCQk8ZyBpZD0ic2hhcGUyNjk0LTExIiB0cmFuc2Zvcm09InRyYW5zbGF0ZSgxMy41LC0xMi43NSkiPiYjeGE7CQkJCTx0aXRsZSBpZD0idGl0bGUzNTkxNSI+U2hlZXQuMjY5NDwvdGl0bGU+JiN4YTsJCQkJPHJlY3QgaWQ9InJlY3QzNTkxNyIgeT0iNDQuMjUiIHN0eWxlPSJmaWxsOiNFREM4N0U7IiB3aWR0aD0iOS43NSIgaGVpZ2h0PSI4LjI1Ii8+JiN4YTsJCQk8L2c+JiN4YTsJCQk8ZyBpZD0ic2hhcGUyNjk1LTEzIiB0cmFuc2Zvcm09InRyYW5zbGF0ZSgyNy43NSwtMTIuNzUpIj4mI3hhOwkJCQk8dGl0bGUgaWQ9InRpdGxlMzU5MjAiPlNoZWV0LjI2OTU8L3RpdGxlPiYjeGE7CQkJCTxyZWN0IGlkPSJyZWN0MzU5MjIiIHk9IjQ0LjI1IiBzdHlsZT0iZmlsbDojMDBBNEVGOyIgd2lkdGg9IjkiIGhlaWdodD0iOC4yNSIvPiYjeGE7CQkJPC9nPiYjeGE7CQkJPGcgaWQ9InNoYXBlMjY5Ni0xNSI+JiN4YTsJCQkJPHRpdGxlIGlkPSJ0aXRsZTM1OTI1Ij5TaGVldC4yNjk2PC90aXRsZT4mI3hhOwkJCQk8cmVjdCBpZD0icmVjdDM1OTI3IiB5PSI0NC4yNSIgc3R5bGU9ImZpbGw6I0ZGQjkwMDsiIHdpZHRoPSI5IiBoZWlnaHQ9IjguMjUiLz4mI3hhOwkJCTwvZz4mI3hhOwkJCTxnIGlkPSJzaGFwZTI2OTctMTciIHRyYW5zZm9ybT0idHJhbnNsYXRlKDEzLjUpIj4mI3hhOwkJCQk8dGl0bGUgaWQ9InRpdGxlMzU5MzAiPlNoZWV0LjI2OTc8L3RpdGxlPiYjeGE7CQkJCTxyZWN0IGlkPSJyZWN0MzU5MzIiIHk9IjQ0LjI1IiBzdHlsZT0iZmlsbDojNUI5QkQ1OyIgd2lkdGg9IjkuNzUiIGhlaWdodD0iOC4yNSIvPiYjeGE7CQkJPC9nPiYjeGE7CQkJPGcgaWQ9InNoYXBlMjY5OC0xOSIgdHJhbnNmb3JtPSJ0cmFuc2xhdGUoMjcuNzUpIj4mI3hhOwkJCQk8dGl0bGUgaWQ9InRpdGxlMzU5MzUiPlNoZWV0LjI2OTg8L3RpdGxlPiYjeGE7CQkJCTxyZWN0IGlkPSJyZWN0MzU5MzciIHk9IjQ0LjI1IiBzdHlsZT0iZmlsbDojN0ZCQTAwOyIgd2lkdGg9IjkiIGhlaWdodD0iOC4yNSIvPiYjeGE7CQkJPC9nPiYjeGE7CQk8L2c+JiN4YTsJPC9nPiYjeGE7PC9nPiYjeGE7PC9zdmc+;" vertex="1" parent="1">
          <mxGeometry x="90" y="268" width="56" height="50" as="geometry" />
        </mxCell>
        <mxCell id="FN3_UUnZCpq1qiRNQo3k-14" value="" style="shape=image;verticalLabelPosition=bottom;labelBackgroundColor=#ffffff;verticalAlign=top;aspect=fixed;imageAspect=0;image=data:image/svg+xml,PHN2ZyB4bWxuczpjYz0iaHR0cDovL2NyZWF0aXZlY29tbW9ucy5vcmcvbnMjIiB4bWxuczpkYz0iaHR0cDovL3B1cmwub3JnL2RjL2VsZW1lbnRzLzEuMS8iIHhtbG5zOmlua3NjYXBlPSJodHRwOi8vd3d3Lmlua3NjYXBlLm9yZy9uYW1lc3BhY2VzL2lua3NjYXBlIiB4bWxuczpyZGY9Imh0dHA6Ly93d3cudzMub3JnLzE5OTkvMDIvMjItcmRmLXN5bnRheC1ucyMiIHhtbG5zOnNvZGlwb2RpPSJodHRwOi8vc29kaXBvZGkuc291cmNlZm9yZ2UubmV0L0RURC9zb2RpcG9kaS0wLmR0ZCIgeG1sbnM6c3ZnPSJodHRwOi8vd3d3LnczLm9yZy8yMDAwL3N2ZyIgeG1sbnM9Imh0dHA6Ly93d3cudzMub3JnLzIwMDAvc3ZnIiB4bWxuczp4bGluaz0iaHR0cDovL3d3dy53My5vcmcvMTk5OS94bGluayIgdmVyc2lvbj0iMS4xIiBpZD0ic3ZnMzU5NDQiIGlua3NjYXBlOnZlcnNpb249IjAuOTIuMyAoMjQwNTU0NiwgMjAxOC0wMy0xMSkiIHNvZGlwb2RpOmRvY25hbWU9ImJpenRhbGtfYWRtaW5pc3RyYXRvcl9jb25zb2xlLnN2ZyIgeD0iMHB4IiB5PSIwcHgiIHZpZXdCb3g9IjAgMCA1Ni4yNSA0OS41IiBzdHlsZT0iZW5hYmxlLWJhY2tncm91bmQ6bmV3IDAgMCA1Ni4yNSA0OS41OyIgeG1sOnNwYWNlPSJwcmVzZXJ2ZSI+JiN4YTs8c29kaXBvZGk6bmFtZWR2aWV3IGJvcmRlcmNvbG9yPSIjNjY2NjY2IiBib3JkZXJvcGFjaXR5PSIxIiBmaXQtbWFyZ2luLWJvdHRvbT0iMCIgZml0LW1hcmdpbi1sZWZ0PSIwIiBmaXQtbWFyZ2luLXJpZ2h0PSIwIiBmaXQtbWFyZ2luLXRvcD0iMCIgZ3JpZHRvbGVyYW5jZT0iMTAiIGd1aWRldG9sZXJhbmNlPSIxMCIgaWQ9Im5hbWVkdmlldzM1OTQ2IiBpbmtzY2FwZTpjdXJyZW50LWxheWVyPSJzdmczNTk0NCIgaW5rc2NhcGU6Y3g9IjMzLjQ3MzE4NyIgaW5rc2NhcGU6Y3k9IjEzLjMyMDk0NyIgaW5rc2NhcGU6cGFnZW9wYWNpdHk9IjAiIGlua3NjYXBlOnBhZ2VzaGFkb3c9IjIiIGlua3NjYXBlOndpbmRvdy1oZWlnaHQ9IjEwMTciIGlua3NjYXBlOndpbmRvdy1tYXhpbWl6ZWQ9IjEiIGlua3NjYXBlOndpbmRvdy13aWR0aD0iMTkyMCIgaW5rc2NhcGU6d2luZG93LXg9Ii04IiBpbmtzY2FwZTp3aW5kb3cteT0iLTgiIGlua3NjYXBlOnpvb209IjQuMzc5MDA5NCIgb2JqZWN0dG9sZXJhbmNlPSIxMCIgcGFnZWNvbG9yPSIjZmZmZmZmIiBzaG93Z3JpZD0iZmFsc2UiPiYjeGE7CTwvc29kaXBvZGk6bmFtZWR2aWV3PiYjeGE7PGcgaWQ9ImczNTk0MiIgdHJhbnNmb3JtPSJ0cmFuc2xhdGUoLTEuNSwtMS41KSI+JiN4YTsJPHRpdGxlIGlkPSJ0aXRsZTM1ODg5Ij5QYWdlLTE8L3RpdGxlPiYjeGE7CTxnIGlkPSJncm91cDI2ODgtMSI+JiN4YTsJCTx0aXRsZSBpZD0idGl0bGUzNTg5MSI+Qml6VGFsayBBZG1pbmlzdHJhdG9yIENvbnNvbGU8L3RpdGxlPiYjeGE7CQk8ZyBpZD0ic2hhcGUyNjg5LTIiIHRyYW5zZm9ybT0idHJhbnNsYXRlKDEzLjUsLTEuNSkiPiYjeGE7CQkJPHRpdGxlIGlkPSJ0aXRsZTM1ODkzIj5TaGVldC4yNjg5PC90aXRsZT4mI3hhOwkJCTxwYXRoIGlkPSJwYXRoMzU4OTUiIGlua3NjYXBlOmNvbm5lY3Rvci1jdXJ2YXR1cmU9IjAiIHN0eWxlPSJmaWxsOiMzRjU3NjU7IiBkPSJNMjguMjIsNDguNzVoLTcuOTdWNDAuNUgxMnY4LjI1SDQuMDMgICAgIEMyLjAyLDQ4Ljc1LDAsNTAuNjMsMCw1Mi41aDMyLjI1QzMyLjI1LDUwLjYzLDMwLjIzLDQ4Ljc1LDI4LjIyLDQ4Ljc1eiIvPiYjeGE7CQk8L2c+JiN4YTsJCTxnIGlkPSJzaGFwZTI2OTAtNCIgdHJhbnNmb3JtPSJ0cmFuc2xhdGUoMS41LC0xNSkiPiYjeGE7CQkJPHRpdGxlIGlkPSJ0aXRsZTM1ODk4Ij5TaGVldC4yNjkwPC90aXRsZT4mI3hhOwkJCTxwYXRoIGlkPSJwYXRoMzU5MDAiIGlua3NjYXBlOmNvbm5lY3Rvci1jdXJ2YXR1cmU9IjAiIHN0eWxlPSJmaWxsOiMzRjU3NjU7IiBkPSJNNTQuMjQsMTYuNUgyLjAxQzAuOSwxNi41LDAsMTcuNCwwLDE4LjV2MzIgICAgIGMwLDEuMSwwLjksMiwyLjAxLDJoNTIuMjNjMS4xMSwwLDIuMDEtMC45LDIuMDEtMnYtMzJDNTYuMjUsMTcuNCw1NS4zNSwxNi41LDU0LjI0LDE2LjV6Ii8+JiN4YTsJCTwvZz4mI3hhOwkJPGcgaWQ9InNoYXBlMjY5MS02IiB0cmFuc2Zvcm09InRyYW5zbGF0ZSg1LjI1LC0xOC43NSkiPiYjeGE7CQkJPHRpdGxlIGlkPSJ0aXRsZTM1OTAzIj5TaGVldC4yNjkxPC90aXRsZT4mI3hhOwkJCTxyZWN0IGlkPSJyZWN0MzU5MDUiIHk9IjI0IiBzdHlsZT0iZmlsbDojRkZGRkZGOyIgd2lkdGg9IjQ4Ljc1IiBoZWlnaHQ9IjI4LjUiLz4mI3hhOwkJPC9nPiYjeGE7CQk8ZyBpZD0iZ3JvdXAyNjkyLTgiIHRyYW5zZm9ybT0idHJhbnNsYXRlKDExLjI1LC0yMi41KSI+JiN4YTsJCQk8dGl0bGUgaWQ9InRpdGxlMzU5MDgiPlNoZWV0LjI2OTI8L3RpdGxlPiYjeGE7CQkJPGcgaWQ9InNoYXBlMjY5My05IiB0cmFuc2Zvcm09InRyYW5zbGF0ZSgwLC0xMi43NSkiPiYjeGE7CQkJCTx0aXRsZSBpZD0idGl0bGUzNTkxMCI+U2hlZXQuMjY5MzwvdGl0bGU+JiN4YTsJCQkJPHJlY3QgaWQ9InJlY3QzNTkxMiIgeT0iNDQuMjUiIHN0eWxlPSJmaWxsOiNEQzNDMDA7IiB3aWR0aD0iOSIgaGVpZ2h0PSI4LjI1Ii8+JiN4YTsJCQk8L2c+JiN4YTsJCQk8ZyBpZD0ic2hhcGUyNjk0LTExIiB0cmFuc2Zvcm09InRyYW5zbGF0ZSgxMy41LC0xMi43NSkiPiYjeGE7CQkJCTx0aXRsZSBpZD0idGl0bGUzNTkxNSI+U2hlZXQuMjY5NDwvdGl0bGU+JiN4YTsJCQkJPHJlY3QgaWQ9InJlY3QzNTkxNyIgeT0iNDQuMjUiIHN0eWxlPSJmaWxsOiNFREM4N0U7IiB3aWR0aD0iOS43NSIgaGVpZ2h0PSI4LjI1Ii8+JiN4YTsJCQk8L2c+JiN4YTsJCQk8ZyBpZD0ic2hhcGUyNjk1LTEzIiB0cmFuc2Zvcm09InRyYW5zbGF0ZSgyNy43NSwtMTIuNzUpIj4mI3hhOwkJCQk8dGl0bGUgaWQ9InRpdGxlMzU5MjAiPlNoZWV0LjI2OTU8L3RpdGxlPiYjeGE7CQkJCTxyZWN0IGlkPSJyZWN0MzU5MjIiIHk9IjQ0LjI1IiBzdHlsZT0iZmlsbDojMDBBNEVGOyIgd2lkdGg9IjkiIGhlaWdodD0iOC4yNSIvPiYjeGE7CQkJPC9nPiYjeGE7CQkJPGcgaWQ9InNoYXBlMjY5Ni0xNSI+JiN4YTsJCQkJPHRpdGxlIGlkPSJ0aXRsZTM1OTI1Ij5TaGVldC4yNjk2PC90aXRsZT4mI3hhOwkJCQk8cmVjdCBpZD0icmVjdDM1OTI3IiB5PSI0NC4yNSIgc3R5bGU9ImZpbGw6I0ZGQjkwMDsiIHdpZHRoPSI5IiBoZWlnaHQ9IjguMjUiLz4mI3hhOwkJCTwvZz4mI3hhOwkJCTxnIGlkPSJzaGFwZTI2OTctMTciIHRyYW5zZm9ybT0idHJhbnNsYXRlKDEzLjUpIj4mI3hhOwkJCQk8dGl0bGUgaWQ9InRpdGxlMzU5MzAiPlNoZWV0LjI2OTc8L3RpdGxlPiYjeGE7CQkJCTxyZWN0IGlkPSJyZWN0MzU5MzIiIHk9IjQ0LjI1IiBzdHlsZT0iZmlsbDojNUI5QkQ1OyIgd2lkdGg9IjkuNzUiIGhlaWdodD0iOC4yNSIvPiYjeGE7CQkJPC9nPiYjeGE7CQkJPGcgaWQ9InNoYXBlMjY5OC0xOSIgdHJhbnNmb3JtPSJ0cmFuc2xhdGUoMjcuNzUpIj4mI3hhOwkJCQk8dGl0bGUgaWQ9InRpdGxlMzU5MzUiPlNoZWV0LjI2OTg8L3RpdGxlPiYjeGE7CQkJCTxyZWN0IGlkPSJyZWN0MzU5MzciIHk9IjQ0LjI1IiBzdHlsZT0iZmlsbDojN0ZCQTAwOyIgd2lkdGg9IjkiIGhlaWdodD0iOC4yNSIvPiYjeGE7CQkJPC9nPiYjeGE7CQk8L2c+JiN4YTsJPC9nPiYjeGE7PC9nPiYjeGE7PC9zdmc+;" vertex="1" parent="1">
          <mxGeometry x="90" y="332" width="56" height="50" as="geometry" />
        </mxCell>
        <mxCell id="FN3_UUnZCpq1qiRNQo3k-15" value="PC/Mobile/App" style="text;html=1;resizable=0;autosize=1;align=center;verticalAlign=middle;points=[];fillColor=none;strokeColor=none;rounded=0;" vertex="1" parent="1">
          <mxGeometry x="78" y="394" width="100" height="20" as="geometry" />
        </mxCell>
        <mxCell id="FN3_UUnZCpq1qiRNQo3k-17" value="" style="shape=image;verticalLabelPosition=bottom;labelBackgroundColor=#ffffff;verticalAlign=top;aspect=fixed;imageAspect=0;image=data:image/svg+xml,PHN2ZyB4bWxuczpjYz0iaHR0cDovL2NyZWF0aXZlY29tbW9ucy5vcmcvbnMjIiB4bWxuczpkYz0iaHR0cDovL3B1cmwub3JnL2RjL2VsZW1lbnRzLzEuMS8iIHhtbG5zOmlua3NjYXBlPSJodHRwOi8vd3d3Lmlua3NjYXBlLm9yZy9uYW1lc3BhY2VzL2lua3NjYXBlIiB4bWxuczpyZGY9Imh0dHA6Ly93d3cudzMub3JnLzE5OTkvMDIvMjItcmRmLXN5bnRheC1ucyMiIHhtbG5zOnNvZGlwb2RpPSJodHRwOi8vc29kaXBvZGkuc291cmNlZm9yZ2UubmV0L0RURC9zb2RpcG9kaS0wLmR0ZCIgeG1sbnM6c3ZnPSJodHRwOi8vd3d3LnczLm9yZy8yMDAwL3N2ZyIgeG1sbnM9Imh0dHA6Ly93d3cudzMub3JnLzIwMDAvc3ZnIiB4bWxuczp4bGluaz0iaHR0cDovL3d3dy53My5vcmcvMTk5OS94bGluayIgdmVyc2lvbj0iMS4xIiBpZD0ic3ZnMTQ0OTk0IiBpbmtzY2FwZTp2ZXJzaW9uPSIwLjkyLjMgKDI0MDU1NDYsIDIwMTgtMDMtMTEpIiBzb2RpcG9kaTpkb2NuYW1lPSJkbnMuc3ZnIiB4PSIwcHgiIHk9IjBweCIgdmlld0JveD0iMCAwIDcyLjAxIDcyLjAxIiBzdHlsZT0iZW5hYmxlLWJhY2tncm91bmQ6bmV3IDAgMCA3Mi4wMSA3Mi4wMTsiIHhtbDpzcGFjZT0icHJlc2VydmUiPiYjeGE7PHNvZGlwb2RpOm5hbWVkdmlldyBib3JkZXJjb2xvcj0iIzY2NjY2NiIgYm9yZGVyb3BhY2l0eT0iMSIgZml0LW1hcmdpbi1ib3R0b209IjAiIGZpdC1tYXJnaW4tbGVmdD0iMCIgZml0LW1hcmdpbi1yaWdodD0iMCIgZml0LW1hcmdpbi10b3A9IjAiIGdyaWR0b2xlcmFuY2U9IjEwIiBndWlkZXRvbGVyYW5jZT0iMTAiIGlkPSJuYW1lZHZpZXcxNDQ5OTYiIGlua3NjYXBlOmN1cnJlbnQtbGF5ZXI9InN2ZzE0NDk5NCIgaW5rc2NhcGU6Y3g9IjQ2LjE2MTYzMSIgaW5rc2NhcGU6Y3k9IjQ5Ljg0NzM4IiBpbmtzY2FwZTpwYWdlb3BhY2l0eT0iMCIgaW5rc2NhcGU6cGFnZXNoYWRvdz0iMiIgaW5rc2NhcGU6d2luZG93LWhlaWdodD0iMTAxNyIgaW5rc2NhcGU6d2luZG93LW1heGltaXplZD0iMSIgaW5rc2NhcGU6d2luZG93LXdpZHRoPSIxOTIwIiBpbmtzY2FwZTp3aW5kb3cteD0iLTgiIGlua3NjYXBlOndpbmRvdy15PSItOCIgaW5rc2NhcGU6em9vbT0iOC41MjU1MTY2IiBvYmplY3R0b2xlcmFuY2U9IjEwIiBwYWdlY29sb3I9IiNmZmZmZmYiIHNob3dncmlkPSJmYWxzZSI+JiN4YTsJPC9zb2RpcG9kaTpuYW1lZHZpZXc+JiN4YTs8ZyBpZD0iZzE0NDk5MiIgdHJhbnNmb3JtPSJ0cmFuc2xhdGUoLTMuNTE1LC0zLjUxMDMpIj4mI3hhOwk8dGl0bGUgaWQ9InRpdGxlMTQ0OTU3Ij5QYWdlLTE8L3RpdGxlPiYjeGE7CTxnIGlkPSJncm91cDgzMzItMSIgdHJhbnNmb3JtPSJ0cmFuc2xhdGUoMCwtMC43NSkiPiYjeGE7CQk8dGl0bGUgaWQ9InRpdGxlMTQ0OTU5Ij5ETlM8L3RpdGxlPiYjeGE7CQk8ZyBpZD0ic2hhcGU4MzMzLTIiIHRyYW5zZm9ybT0idHJhbnNsYXRlKDMuNTE1MzcpIj4mI3hhOwkJCTx0aXRsZSBpZD0idGl0bGUxNDQ5NjEiPlNoZWV0LjgzMzM8L3RpdGxlPiYjeGE7CQkJPGNpcmNsZSBpZD0iZWxsaXBzZTE0NDk2MyIgc3R5bGU9ImZpbGw6IzAwNzJDNjsiIGN4PSIzNiIgY3k9IjQwLjI3IiByPSIzNiIvPiYjeGE7CQk8L2c+JiN4YTsJCTxnIGlkPSJzaGFwZTgzMzQtNCIgdHJhbnNmb3JtPSJ0cmFuc2xhdGUoMCwtMTAuNTQ0NykiPiYjeGE7CQkJPHRpdGxlIGlkPSJ0aXRsZTE0NDk2NiI+U2hlZXQuODMzNDwvdGl0bGU+JiN4YTsJCQk8cGF0aCBpZD0icGF0aDE0NDk2OCIgaW5rc2NhcGU6Y29ubmVjdG9yLWN1cnZhdHVyZT0iMCIgc3R5bGU9ImZpbGw6I0ZGRkZGRjtmaWxsLW9wYWNpdHk6MC4yOyIgZD0iTTE0LjA2LDc2LjI3ICAgICBDMCw2Mi4yMSwwLDM5LjQxLDE0LjA2LDI1LjM1czM2Ljg2LTE0LjA2LDUwLjkyLDBMMTQuMDYsNzYuMjd6Ii8+JiN4YTsJCTwvZz4mI3hhOwkJPGcgaWQ9InNoYXBlODMzNS02IiB0cmFuc2Zvcm09InRyYW5zbGF0ZSg2LjM5NTY0LC0zLjAxODUyKSI+JiN4YTsJCQk8dGl0bGUgaWQ9InRpdGxlMTQ0OTcxIj5TaGVldC44MzM1PC90aXRsZT4mI3hhOwkJCTxwYXRoIGlkPSJwYXRoMTQ0OTczIiBpbmtzY2FwZTpjb25uZWN0b3ItY3VydmF0dXJlPSIwIiBzdHlsZT0iZmlsbDojRkZGRkZGO2ZpbGwtb3BhY2l0eTowLjg7IiBkPSJNNjYuMjUsNDMuMjggICAgIGMwLTcuNDItMi41Mi0xNC41Ny03LjE2LTIwLjRsLTAuMjYtMC4yN2MtMC4xNC0wLjEzLTAuMTQtMC4yNi0wLjI3LTAuNGwtMi4xMi0yLjI1Yy02LjIzLTYuMzYtMTQuNDQtOS44LTIzLjMyLTkuOCAgICAgYzAsMCwwLDAtMC4xMywwaC0wLjEzYy04Ljc1LDAuMTMtMTYuODMsMy40NC0yMy4wNiw5LjY3bC0yLjI1LDIuMzhjLTAuMTMsMC4xNC0wLjEzLDAuMjctMC4yNiwwLjRsLTAuMjcsMC4xMyAgICAgQzIuNTIsMjguNTcsMCwzNS44NiwwLDQzLjI4czIuNTIsMTQuNTcsNy4xNSwyMC40bDAuMjcsMC4yN2MwLjEzLDAuMTMsMC4xMywwLjI2LDAuMjYsMC40TDkuOCw2Ni42ICAgICBjNi4yMyw2LjIzLDE0LjMxLDkuNjcsMjMuMDYsOS42N2gwLjEzYzAsMCwwLDAsMC4xMywwYzguNzUsMCwxNy4wOS0zLjQ0LDIzLjMyLTkuNjdsMi4xMi0yLjM5YzAuMTMtMC4xMywwLjEzLTAuMjYsMC4yNy0wLjM5ICAgICBsMC4yNi0wLjI3QzYzLjczLDU3Ljk5LDY2LjI1LDUwLjcsNjYuMjUsNDMuMjh6IE01Mi44NiwyMS42OGMtMC4xMywwLTAuMjYsMC4xNC0wLjM5LDAuMTRjLTAuMjcsMC4xMy0wLjUzLDAuMjYtMC42NywwLjI2ICAgICBjLTAuNTMsMC4yNy0xLjE5LDAuNC0xLjg1LDAuNjZjLTAuMTMsMC0wLjI3LDAuMTQtMC40LDAuMTRjLTAuNzksMC4yNi0xLjQ2LDAuMzktMi4yNSwwLjY2Yy0wLjEzLDAtMC40LDAuMTMtMC41MywwLjEzICAgICBjLTEuMTktMy4xOC0yLjY1LTUuOTYtNC4zNy04LjA4QzQ2LjI0LDE2Ljc4LDQ5LjgyLDE4LjksNTIuODYsMjEuNjh6IE0zMi44NiwxNGgwLjEzYzMuNTgsMCw3LjI5LDMuODQsOS45NCwxMC40NyAgICAgYy0zLjA1LDAuNTMtNi4zNiwwLjc5LTkuODEsMC43OWMtMy40NCwwLTYuODktMC4yNi0xMC4wNy0wLjc5QzI1LjU3LDE3Ljk3LDI5LjI4LDE0LjEzLDMyLjg2LDE0eiBNMjMuNDUsMTUuNzIgICAgIGMtMS41OSwyLjEyLTMuMDUsNC43Ny00LjI0LDcuOTVjLTAuMTMsMC0wLjEzLDAtMC4yNiwwYy0wLjgtMC4yNi0xLjU5LTAuNC0yLjI2LTAuNjZjLTAuMTMsMC0wLjI2LTAuMTMtMC4zOS0wLjEzICAgICBjLTAuNTMtMC4yNy0xLjItMC41My0xLjczLTAuOGMtMC4yNi0wLjEzLTAuMzktMC4xMy0wLjY2LTAuMjZjLTAuMTMtMC4xNC0wLjI2LTAuMTQtMC41My0wLjI3ICAgICBDMTYuNDMsMTkuMDMsMTkuNzQsMTYuOTEsMjMuNDUsMTUuNzJ6IE0xMy4zOCw2NC44OGMwLjEzLDAsMC4yNy0wLjE0LDAuNC0wLjE0YzAuMjYtMC4xMywwLjQtMC4xMywwLjY2LTAuMjYgICAgIGMwLjUzLTAuMjcsMS4xOS0wLjQsMS44Ni0wLjY2YzAuMTMsMCwwLjI2LTAuMTQsMC4zOS0wLjE0YzAuOC0wLjI2LDEuNDYtMC4zOSwyLjI2LTAuNjZjMC4xMywwLDAuMTMsMCwwLjI2LDAgICAgIGMxLjE5LDMuMDUsMi42NSw1LjgzLDQuMjQsNy45NUMxOS43NCw2OS42NSwxNi4zLDY3LjUzLDEzLjM4LDY0Ljg4eiBNMzIuOTksNzIuNTZoLTAuMTNjLTMuNTgtMC4xMy03LjI5LTMuODQtOS44MS0xMC4zMyAgICAgYzMuMTgtMC41Myw2LjYzLTAuOCwxMC4wNy0wLjhjMy40NSwwLDYuNjMsMC4yNyw5LjgxLDAuOEM0MC40MSw2OC43MiwzNi41Nyw3Mi41NiwzMi45OSw3Mi41NnogTTQyLjQsNzAuOTcgICAgIGMxLjcyLTIuMTIsMy4xOC00LjksNC4zNy04LjA4YzAuMTMsMCwwLjQsMC4xMywwLjUzLDAuMTNjMC43OSwwLjI3LDEuNTksMC40LDIuMjUsMC42NmMwLjEzLDAsMC4yNywwLjE0LDAuNCwwLjE0ICAgICBjMC42NiwwLjI2LDEuMTksMC4zOSwxLjg1LDAuNjZjMC4yNywwLjEzLDAuNCwwLjEzLDAuNjcsMC4yNmMwLjEzLDAsMC4yNiwwLjE0LDAuNTMsMC4yN0M0OS44Miw2Ny42Niw0Ni4yNCw2OS43OCw0Mi40LDcwLjk3eiAgICAgIE01NS43OCw2MS44M2MtMC40LDAtMC42Ni0wLjEzLTEuMDYtMC4yN2MtMC40LTAuMTMtMC45My0wLjM5LTEuMzMtMC41M2MtMC4xMywwLTAuMjYtMC4xMy0wLjM5LTAuMTMgICAgIGMtMS41OS0wLjY2LTMuMzItMS4wNi01LjA0LTEuNTljMC40LTEuNTksMC44LTMuMTgsMS4wNi00Ljc3aC0zLjk3Yy0wLjI3LDEuNDYtMC41MywyLjc4LTAuOTMsMy45OCAgICAgYy0zLjQ0LTAuNjctNy4xNS0wLjkzLTExLTAuOTNjLTMuOTcsMC03LjY4LDAuNC0xMS4yNiwxLjA2Yy0wLjQtMS4zMy0wLjY2LTIuNjUtMC45My00LjExaC0zLjk3YzAuMjYsMS43MiwwLjY2LDMuMzEsMS4wNiw0LjkgICAgIGMtMS41OSwwLjQtMy4xOCwwLjkzLTQuNjQsMS40NmMtMC4xMywwLjEzLTAuNCwwLjEzLTAuNTMsMC4yN2MtMC40LDAuMTMtMC45MywwLjM5LTEuMzIsMC41M2MtMC4yNywwLTAuNjcsMC4xMy0wLjkzLDAuMjYgICAgIGMtMy45OC00Ljc3LTYuMjMtMTAuNzMtNi42My0xNi44M2gzLjMydi0zLjg0SDMuOTdjMC40LTYuMDksMi42NS0xMS45Miw2LjUtMTYuNTZsMC4xMy0wLjEzYzAuMjYsMC4xMywwLjY2LDAuMjYsMC45MywwLjQgICAgIGMwLjUzLDAuMjYsMC45MiwwLjM5LDEuNDUsMC42NmMwLjE0LDAsMC4yNywwLjEzLDAuNCwwLjEzYzEuNDYsMC41MywzLjA1LDEuMDYsNC43NywxLjQ2Yy0wLjQsMS40Ni0wLjY2LDIuOTEtMC45Myw0LjM3aDMuOTggICAgIGMwLjI2LTEuMTksMC41My0yLjUyLDAuNzktMy41OGMzLjU4LDAuNjcsNy40MiwxLjA2LDExLjI3LDEuMDZjMy44NCwwLDcuNTUtMC4zOSwxMC45OS0wLjkyYzAuMjcsMS4wNiwwLjUzLDIuMjUsMC44LDMuNTdoMy45NyAgICAgYy0wLjI2LTEuNDUtMC41My0yLjkxLTAuOTMtNC4zN2MxLjczLTAuNCwzLjMyLTAuOTMsNC45MS0xLjU5YzAuMTMsMCwwLjM5LTAuMTMsMC41My0wLjEzYzAuNTMtMC4xMywwLjkyLTAuNCwxLjQ1LTAuNTMgICAgIGMwLjI3LTAuMTMsMC42Ny0wLjI3LDAuOTMtMC40YzMuODQsNC43Nyw2LjIzLDEwLjYsNi42MywxNi43aC0zLjk4djMuODRoMy45OEM2MS44Nyw1MS4yMyw1OS42Miw1Ny4xOSw1NS43OCw2MS44M3oiLz4mI3hhOwkJPC9nPiYjeGE7CQk8ZyBpZD0ic2hhcGU4MzM2LTgiIHRyYW5zZm9ybT0idHJhbnNsYXRlKDE2Ljk3OTIsLTI3LjQwNDMpIj4mI3hhOwkJCTx0aXRsZSBpZD0idGl0bGUxNDQ5NzYiPlNoZWV0LjgzMzY8L3RpdGxlPiYjeGE7CQkJPHBhdGggaWQ9InBhdGgxNDQ5NzgiIGlua3NjYXBlOmNvbm5lY3Rvci1jdXJ2YXR1cmU9IjAiIHN0eWxlPSJmaWxsOiNGRkZGRkY7IiBkPSJNMTQuMjIsNjcuNDZjMCwxLjU3LTAuMjEsMi45Mi0wLjYyLDQuMDMgICAgIGMtMC40MSwxLjEyLTEsMi4wMy0xLjc2LDIuNzNjLTAuNzcsMC43MS0xLjcsMS4yMy0yLjgsMS41NmMtMS4xLDAuMzMtMi40MSwwLjQ5LTMuOTIsMC40OUgxLjAzYy0wLjI5LDAtMC41NC0wLjA5LTAuNzMtMC4yNiAgICAgQzAuMSw3NS44NCwwLDc1LjU2LDAsNzUuMTdWNjAuMjVjMC0wLjM4LDAuMS0wLjY2LDAuMy0wLjgzYzAuMi0wLjE4LDAuNDQtMC4yNiwwLjczLTAuMjZoNC4zOWMxLjUzLDAsMi44MiwwLjE4LDMuODgsMC41MyAgICAgYzEuMDcsMC4zNiwxLjk2LDAuODksMi42OSwxLjU5czEuMjgsMS41NywxLjY2LDIuNlMxNC4yMiw2Ni4xMSwxNC4yMiw2Ny40NnogTTEwLjYyLDY3LjU4YzAtMC44MS0wLjA5LTEuNTYtMC4yOC0yLjI2ICAgICBjLTAuMTktMC43LTAuNS0xLjMtMC45Mi0xLjgxQzksNjMsOC40Nyw2Mi42LDcuODEsNjIuMzFjLTAuNjYtMC4yOS0xLjUyLTAuNDMtMi41OS0wLjQzSDMuNDZ2MTEuNjRoMS44MiAgICAgYzAuOTUsMCwxLjc1LTAuMTIsMi40LTAuMzdjMC42Ni0wLjI1LDEuMi0wLjYyLDEuNjQtMS4xMmMwLjQzLTAuNSwwLjc2LTEuMTIsMC45OC0xLjg2QzEwLjUxLDY5LjQzLDEwLjYyLDY4LjU3LDEwLjYyLDY3LjU4eiIvPiYjeGE7CQk8L2c+JiN4YTsJCTxnIGlkPSJzaGFwZTgzMzctMTAiIHRyYW5zZm9ybT0idHJhbnNsYXRlKDM0LjA1MiwtMjcuMzI1MSkiPiYjeGE7CQkJPHRpdGxlIGlkPSJ0aXRsZTE0NDk4MSI+U2hlZXQuODMzNzwvdGl0bGU+JiN4YTsJCQk8cGF0aCBpZD0icGF0aDE0NDk4MyIgaW5rc2NhcGU6Y29ubmVjdG9yLWN1cnZhdHVyZT0iMCIgc3R5bGU9ImZpbGw6I0ZGRkZGRjsiIGQ9Ik0xNC4xMSw3NC45OGMwLDAuMi0wLjAzLDAuMzgtMC4xLDAuNTQgICAgIGMtMC4wNywwLjE2LTAuMTcsMC4yOS0wLjI5LDAuNGMtMC4xMSwwLjEtMC4yNiwwLjE4LTAuNDIsMC4yM3MtMC4zMywwLjA3LTAuNSwwLjA3aC0xLjQ4Yy0wLjMxLDAtMC41Ny0wLjAzLTAuOC0wLjA5ICAgICBjLTAuMjItMC4wNi0wLjQzLTAuMTgtMC42Mi0wLjM0Yy0wLjE5LTAuMTYtMC4zNy0wLjM4LTAuNTUtMC42NmMtMC4xNy0wLjI4LTAuMzctMC42NC0wLjU5LTEuMDhsLTQuMjYtOCAgICAgYy0wLjI1LTAuNDgtMC41LTAuOTktMC43NS0xLjU0Yy0wLjI2LTAuNTUtMC40OS0xLjA5LTAuNjktMS42MUgzLjAzYzAuMDQsMC42NCwwLjA2LDEuMjcsMC4wOCwxLjkgICAgIGMwLjAyLDAuNjMsMC4wMywxLjI4LDAuMDMsMS45NXY4Ljk1YzAsMC4wOS0wLjAzLDAuMTctMC4wOCwwLjI0cy0wLjEzLDAuMTMtMC4yNSwwLjE4cy0wLjI4LDAuMDktMC40OCwwLjExICAgICBjLTAuMiwwLjAzLTAuNDcsMC4wNC0wLjc4LDAuMDRzLTAuNTctMC4wMS0wLjc3LTAuMDRzLTAuMzYtMC4wNi0wLjQ3LTAuMTFjLTAuMTItMC4wNS0wLjItMC4xMS0wLjI0LTAuMTggICAgIEMwLjAyLDc1Ljg3LDAsNzUuNzksMCw3NS43VjYwLjMyYzAtMC40MSwwLjEyLTAuNzIsMC4zNi0wLjkzczAuNTQtMC4zMSwwLjktMC4zMWgxLjg2YzAuMzMsMCwwLjYyLDAuMDIsMC44NSwwLjA4ICAgICBzMC40MywwLjE1LDAuNjEsMC4yOWMwLjE4LDAuMTMsMC4zNSwwLjMxLDAuNTEsMC41NWMwLjE2LDAuMjMsMC4zMiwwLjUyLDAuNDksMC44NmwzLjMzLDYuMjZjMC4xOSwwLjM4LDAuMzksMC43NSwwLjU4LDEuMTIgICAgIGMwLjE5LDAuMzYsMC4zNywwLjczLDAuNTUsMS4xYzAuMTcsMC4zNiwwLjM0LDAuNzIsMC41MSwxLjA3YzAuMTcsMC4zNiwwLjMzLDAuNzEsMC40OSwxLjA2aDAuMDEgICAgIGMtMC4wMi0wLjYyLTAuMDQtMS4yNi0wLjA2LTEuOTNjLTAuMDEtMC42Ny0wLjAxLTEuMzEtMC4wMS0xLjkydi04LjAzYzAtMC4wOCwwLjAyLTAuMTYsMC4wNy0wLjI0ICAgICBjMC4wNS0wLjA3LDAuMTQtMC4xMywwLjI3LTAuMThjMC4xMi0wLjA1LDAuMjgtMC4wOSwwLjQ5LTAuMTFjMC4yLTAuMDIsMC40Ni0wLjAzLDAuNzgtMC4wM2MwLjMsMCwwLjU1LDAuMDEsMC43NSwwLjAzICAgICBzMC4zNiwwLjA2LDAuNDcsMC4xMWMwLjExLDAuMDUsMC4xOSwwLjExLDAuMjMsMC4xOGMwLjA1LDAuMDgsMC4wNywwLjE1LDAuMDcsMC4yNEwxNC4xMSw3NC45OHoiLz4mI3hhOwkJPC9nPiYjeGE7CQk8ZyBpZD0ic2hhcGU4MzM4LTEyIiB0cmFuc2Zvcm09InRyYW5zbGF0ZSg1MC44NjQxLC0yNy4xMDA1KSI+JiN4YTsJCQk8dGl0bGUgaWQ9InRpdGxlMTQ0OTg2Ij5TaGVldC44MzM4PC90aXRsZT4mI3hhOwkJCTxwYXRoIGlkPSJwYXRoMTQ0OTg4IiBpbmtzY2FwZTpjb25uZWN0b3ItY3VydmF0dXJlPSIwIiBzdHlsZT0iZmlsbDojRkZGRkZGOyIgZD0iTTExLjE4LDcwLjg0YzAsMC45LTAuMTcsMS42OC0wLjUsMi4zNiAgICAgYy0wLjM0LDAuNjgtMC43OSwxLjI1LTEuMzcsMS43Yy0wLjU3LDAuNDYtMS4yNCwwLjgtMi4wMSwxLjAzYy0wLjc2LDAuMjMtMS41OSwwLjM0LTIuNDYsMC4zNGMtMC41OSwwLTEuMTQtMC4wNS0xLjY0LTAuMTQgICAgIGMtMC41MS0wLjEtMC45Ni0wLjIyLTEuMzUtMC4zNWMtMC4zOS0wLjE0LTAuNzEtMC4yOC0wLjk3LTAuNDRjLTAuMjYtMC4xNS0wLjQ1LTAuMjgtMC41Ni0wLjM5Yy0wLjEyLTAuMTItMC4yLTAuMjgtMC4yNS0wLjUgICAgIEMwLjAzLDc0LjI0LDAsNzMuOTIsMCw3My41MmMwLTAuMjgsMC4wMS0wLjUsMC4wMy0wLjY5YzAuMDEtMC4xOCwwLjA0LTAuMzMsMC4wOC0wLjQ1YzAuMDQtMC4xMSwwLjEtMC4xOSwwLjE2LTAuMjQgICAgIGMwLjA3LTAuMDUsMC4xNC0wLjA4LDAuMjMtMC4wOGMwLjEzLDAsMC4zLDAuMDgsMC41MywwLjIyYzAuMjIsMC4xNSwwLjUxLDAuMzEsMC44NiwwLjQ4YzAuMzYsMC4xOCwwLjc4LDAuMzQsMS4yNywwLjQ5ICAgICBjMC40OCwwLjE0LDEuMDUsMC4yMiwxLjY5LDAuMjJjMC40MywwLDAuODEtMC4wNiwxLjE0LTAuMTZjMC4zNC0wLjEsMC42Mi0wLjI0LDAuODUtMC40M2MwLjI0LTAuMTgsMC40MS0wLjQxLDAuNTQtMC42OCAgICAgYzAuMTItMC4yOCwwLjE5LTAuNTgsMC4xOS0wLjkyYzAtMC4zOS0wLjExLTAuNzItMC4zMi0xYy0wLjIxLTAuMjctMC40OS0wLjUyLTAuODMtMC43NGMtMC4zNC0wLjIxLTAuNzMtMC40Mi0xLjE2LTAuNjEgICAgIGMtMC40My0wLjE5LTAuODgtMC4zOS0xLjMzLTAuNmMtMC40Ni0wLjIxLTAuOTEtMC40NS0xLjM0LTAuNzJjLTAuNDMtMC4yNy0wLjgyLTAuNTktMS4xNS0wLjk3Yy0wLjM0LTAuMzctMC42Mi0wLjgxLTAuODMtMS4zMyAgICAgYy0wLjIyLTAuNTEtMC4zMi0xLjEyLTAuMzItMS44M2MwLTAuODIsMC4xNS0xLjU1LDAuNDYtMi4xN2MwLjMtMC42MiwwLjcxLTEuMTMsMS4yMy0xLjU1YzAuNTEtMC40MSwxLjEyLTAuNzEsMS44Mi0wLjkxICAgICBjMC43LTAuMjEsMS40NS0wLjMxLDIuMjMtMC4zMWMwLjQxLDAsMC44MSwwLjAzLDEuMjIsMC4wOWMwLjQsMC4wNywwLjc4LDAuMTUsMS4xMywwLjI2YzAuMzUsMC4xLDAuNjcsMC4yMiwwLjk0LDAuMzUgICAgIGMwLjI4LDAuMTQsMC40NiwwLjI0LDAuNTQsMC4zM2MwLjA5LDAuMDksMC4xNSwwLjE3LDAuMTgsMC4yM2MwLjAzLDAuMDYsMC4wNiwwLjE0LDAuMDgsMC4yNGMwLjAyLDAuMTEsMC4wNCwwLjIzLDAuMDUsMC4zOSAgICAgYzAsMC4xNSwwLjAxLDAuMzQsMC4wMSwwLjU3YzAsMC4yNi0wLjAxLDAuNDgtMC4wMiwwLjY1Yy0wLjAxLDAuMTgtMC4wNCwwLjMyLTAuMDcsMC40NGMtMC4wMywwLjExLTAuMDcsMC4yLTAuMTMsMC4yNSAgICAgcy0wLjEzLDAuMDgtMC4yMywwLjA4Yy0wLjEsMC0wLjI1LTAuMDYtMC40Ni0wLjE4Yy0wLjIyLTAuMTMtMC40OC0wLjI2LTAuNzgtMC40MWMtMC4zMS0wLjE0LTAuNjctMC4yOC0xLjA3LTAuNCAgICAgYy0wLjQxLTAuMTItMC44Ni0wLjE4LTEuMzQtMC4xOGMtMC4zOCwwLTAuNzEsMC4wNS0wLjk5LDAuMTRjLTAuMjgsMC4xLTAuNTIsMC4yMi0wLjcxLDAuMzljLTAuMTksMC4xNi0wLjMzLDAuMzYtMC40MiwwLjU5ICAgICBjLTAuMDksMC4yMy0wLjE0LDAuNDctMC4xNCwwLjcyYzAsMC4zOCwwLjEsMC43MSwwLjMxLDAuOTljMC4yMSwwLjI4LDAuNDksMC41MiwwLjgzLDAuNzRjMC4zNSwwLjIyLDAuNzUsMC40MiwxLjE5LDAuNjEgICAgIHMwLjg5LDAuMzksMS4zNSwwLjZzMC45MSwwLjQ1LDEuMzUsMC43MmMwLjQ0LDAuMjcsMC44MywwLjU5LDEuMTgsMC45N2MwLjM0LDAuMzcsMC42MiwwLjgxLDAuODMsMS4zMlMxMS4xOCw3MC4xNSwxMS4xOCw3MC44NHogICAgICIvPiYjeGE7CQk8L2c+JiN4YTsJPC9nPiYjeGE7PC9nPiYjeGE7PC9zdmc+;" vertex="1" parent="1">
          <mxGeometry x="249.99999999999983" y="257" width="72" height="72" as="geometry" />
        </mxCell>
        <mxCell id="FN3_UUnZCpq1qiRNQo3k-27" value="" style="shape=image;verticalLabelPosition=bottom;labelBackgroundColor=#ffffff;verticalAlign=top;aspect=fixed;imageAspect=0;image=data:image/svg+xml,PHN2ZyB4bWxuczpjYz0iaHR0cDovL2NyZWF0aXZlY29tbW9ucy5vcmcvbnMjIiB4bWxuczpkYz0iaHR0cDovL3B1cmwub3JnL2RjL2VsZW1lbnRzLzEuMS8iIHhtbG5zOmlua3NjYXBlPSJodHRwOi8vd3d3Lmlua3NjYXBlLm9yZy9uYW1lc3BhY2VzL2lua3NjYXBlIiB4bWxuczpyZGY9Imh0dHA6Ly93d3cudzMub3JnLzE5OTkvMDIvMjItcmRmLXN5bnRheC1ucyMiIHhtbG5zOnNvZGlwb2RpPSJodHRwOi8vc29kaXBvZGkuc291cmNlZm9yZ2UubmV0L0RURC9zb2RpcG9kaS0wLmR0ZCIgeG1sbnM6c3ZnPSJodHRwOi8vd3d3LnczLm9yZy8yMDAwL3N2ZyIgeG1sbnM9Imh0dHA6Ly93d3cudzMub3JnLzIwMDAvc3ZnIiB4bWxuczp4bGluaz0iaHR0cDovL3d3dy53My5vcmcvMTk5OS94bGluayIgdmVyc2lvbj0iMS4xIiBpZD0ic3ZnMTQwMTg3IiBpbmtzY2FwZTp2ZXJzaW9uPSIwLjkyLjMgKDI0MDU1NDYsIDIwMTgtMDMtMTEpIiBzb2RpcG9kaTpkb2NuYW1lPSJiYWNrdXAuc3ZnIiB4PSIwcHgiIHk9IjBweCIgdmlld0JveD0iMCAwIDM3Ljc0IDYwLjIxIiBzdHlsZT0iZW5hYmxlLWJhY2tncm91bmQ6bmV3IDAgMCAzNy43NCA2MC4yMTsiIHhtbDpzcGFjZT0icHJlc2VydmUiPiYjeGE7PHNvZGlwb2RpOm5hbWVkdmlldyBib3JkZXJjb2xvcj0iIzY2NjY2NiIgYm9yZGVyb3BhY2l0eT0iMSIgZml0LW1hcmdpbi1ib3R0b209IjAiIGZpdC1tYXJnaW4tbGVmdD0iMCIgZml0LW1hcmdpbi1yaWdodD0iMCIgZml0LW1hcmdpbi10b3A9IjAiIGdyaWR0b2xlcmFuY2U9IjEwIiBndWlkZXRvbGVyYW5jZT0iMTAiIGlkPSJuYW1lZHZpZXcxNDAxODkiIGlua3NjYXBlOmN1cnJlbnQtbGF5ZXI9InN2ZzE0MDE4NyIgaW5rc2NhcGU6Y3g9IjI0LjkwNjMzMiIgaW5rc2NhcGU6Y3k9IjQwLjM4MTczOSIgaW5rc2NhcGU6cGFnZW9wYWNpdHk9IjAiIGlua3NjYXBlOnBhZ2VzaGFkb3c9IjIiIGlua3NjYXBlOndpbmRvdy1oZWlnaHQ9IjEwMTciIGlua3NjYXBlOndpbmRvdy1tYXhpbWl6ZWQ9IjEiIGlua3NjYXBlOndpbmRvdy13aWR0aD0iMTkyMCIgaW5rc2NhcGU6d2luZG93LXg9Ii04IiBpbmtzY2FwZTp3aW5kb3cteT0iLTgiIGlua3NjYXBlOnpvb209IjEwLjg3MDU3MyIgb2JqZWN0dG9sZXJhbmNlPSIxMCIgcGFnZWNvbG9yPSIjZmZmZmZmIiBzaG93Z3JpZD0iZmFsc2UiPiYjeGE7CTwvc29kaXBvZGk6bmFtZWR2aWV3PiYjeGE7PGcgaWQ9ImcxNDAxODUiIHRyYW5zZm9ybT0idHJhbnNsYXRlKC0yLjAyMzUzNjdlLTYsMC4wMTIyOTI1KSI+JiN4YTsJPHRpdGxlIGlkPSJ0aXRsZTE0MDEyMCI+UGFnZS0xPC90aXRsZT4mI3hhOwk8ZyBpZD0iZ3JvdXA4NDc2LTEiIHRyYW5zZm9ybT0idHJhbnNsYXRlKDAuNjEyNDMyKSI+JiN4YTsJCTx0aXRsZSBpZD0idGl0bGUxNDAxMjIiPkJhY2t1cDwvdGl0bGU+JiN4YTsJCTxnIGlkPSJzaGFwZTg0NzctMiIgdHJhbnNmb3JtPSJ0cmFuc2xhdGUoMCwtMi42OTExNCkiPiYjeGE7CQkJPHRpdGxlIGlkPSJ0aXRsZTE0MDEyNCI+U2hlZXQuODQ3NzwvdGl0bGU+JiN4YTsJCQkmI3hhOwkJCQk8cGF0aCBpZD0icGF0aDE0MDEyNiIgaW5rc2NhcGU6Y29ubmVjdG9yLWN1cnZhdHVyZT0iMCIgc3R5bGU9ImZpbGw6bm9uZTtzdHJva2U6IzNGNTc2NTtzdHJva2Utd2lkdGg6MS4yMjQ5O3N0cm9rZS1saW5lY2FwOnJvdW5kO3N0cm9rZS1saW5lam9pbjpyb3VuZDtzdHJva2UtbWl0ZXJsaW1pdDozOyIgZD0iICAgICBNMjUuOTksMy4zSDB2NTYuNTJoMjUuOTlWMy4zIi8+JiN4YTsJCTwvZz4mI3hhOwkJPGcgaWQ9InNoYXBlODQ3OC01IiB0cmFuc2Zvcm09InRyYW5zbGF0ZSg1LjM3NzYyLC00Ny41NDM0KSI+JiN4YTsJCQk8dGl0bGUgaWQ9InRpdGxlMTQwMTI5Ij5TaGVldC44NDc4PC90aXRsZT4mI3hhOwkJCSYjeGE7CQkJCTxwYXRoIGlkPSJwYXRoMTQwMTMxIiBpbmtzY2FwZTpjb25uZWN0b3ItY3VydmF0dXJlPSIwIiBzdHlsZT0iZmlsbDpub25lO3N0cm9rZTojM0Y1NzY1O3N0cm9rZS13aWR0aDoxLjIyNDk7c3Ryb2tlLWxpbmVjYXA6cm91bmQ7c3Ryb2tlLWxpbmVqb2luOnJvdW5kO3N0cm9rZS1taXRlcmxpbWl0OjM7IiBkPSIgICAgIE0xNS44NSw1OS44MkgwIi8+JiN4YTsJCTwvZz4mI3hhOwkJPGcgaWQ9InNoYXBlODQ3OS04IiB0cmFuc2Zvcm09InRyYW5zbGF0ZSg1LjM3NzYyLC0xNy4wNDM5KSI+JiN4YTsJCQk8dGl0bGUgaWQ9InRpdGxlMTQwMTM0Ij5TaGVldC44NDc5PC90aXRsZT4mI3hhOwkJCSYjeGE7CQkJCTxwYXRoIGlkPSJwYXRoMTQwMTM2IiBpbmtzY2FwZTpjb25uZWN0b3ItY3VydmF0dXJlPSIwIiBzdHlsZT0iZmlsbDpub25lO3N0cm9rZTojM0Y1NzY1O3N0cm9rZS13aWR0aDoxLjIyNDk7c3Ryb2tlLWxpbmVjYXA6cm91bmQ7c3Ryb2tlLWxpbmVqb2luOnJvdW5kO3N0cm9rZS1taXRlcmxpbWl0OjM7IiBkPSIgICAgIE0xNS44NSw1OS44MkgwIi8+JiN4YTsJCTwvZz4mI3hhOwkJPGcgaWQ9InNoYXBlODQ4MC0xMSIgdHJhbnNmb3JtPSJ0cmFuc2xhdGUoNS4zNzc2MiwtMTEuNjYxNikiPiYjeGE7CQkJPHRpdGxlIGlkPSJ0aXRsZTE0MDEzOSI+U2hlZXQuODQ4MDwvdGl0bGU+JiN4YTsJCQkmI3hhOwkJCQk8cGF0aCBpZD0icGF0aDE0MDE0MSIgaW5rc2NhcGU6Y29ubmVjdG9yLWN1cnZhdHVyZT0iMCIgc3R5bGU9ImZpbGw6bm9uZTtzdHJva2U6IzNGNTc2NTtzdHJva2Utd2lkdGg6MS4yMjQ5O3N0cm9rZS1saW5lY2FwOnJvdW5kO3N0cm9rZS1saW5lam9pbjpyb3VuZDtzdHJva2UtbWl0ZXJsaW1pdDozOyIgZD0iICAgICBNMTUuODUsNTkuODJIMCIvPiYjeGE7CQk8L2c+JiN4YTsJCTxnIGlkPSJzaGFwZTg0ODEtMTQiIHRyYW5zZm9ybT0idHJhbnNsYXRlKDQuNDgxMzUsLTE3LjA0MzkpIj4mI3hhOwkJCTx0aXRsZSBpZD0idGl0bGUxNDAxNDQiPlNoZWV0Ljg0ODE8L3RpdGxlPiYjeGE7CQkJJiN4YTsJCQkJPHBhdGggaWQ9InBhdGgxNDAxNDYiIGlua3NjYXBlOmNvbm5lY3Rvci1jdXJ2YXR1cmU9IjAiIHN0eWxlPSJmaWxsOiNDMDAwMDA7c3Ryb2tlOiNDMDAwMDA7c3Ryb2tlLXdpZHRoOjAuNzU7c3Ryb2tlLWxpbmVjYXA6cm91bmQ7c3Ryb2tlLWxpbmVqb2luOnJvdW5kO3N0cm9rZS1taXRlcmxpbWl0OjM7IiBkPSIgICAgIE04LjA3LDUzLjQ4Yy00LjA0LTQuNDMtNC4wNC00LjQzLTQuMDQtNC40M0MxLjYyLDUxLjkxLDAuMTEsNTUuNzIsMCw1OS44MmM1Ljc3LDAsNS43NywwLDUuNzcsMCAgICAgQzUuODgsNTcuNDEsNi43Miw1NS4yMiw4LjA3LDUzLjQ4eiIvPiYjeGE7CQk8L2c+JiN4YTsJCTxnIGlkPSJzaGFwZTg0ODItMTYiIHRyYW5zZm9ybT0idHJhbnNsYXRlKDguOTYyNywtMjQuMjIwMikiPiYjeGE7CQkJPHRpdGxlIGlkPSJ0aXRsZTE0MDE0OSI+U2hlZXQuODQ4MjwvdGl0bGU+JiN4YTsJCQkmI3hhOwkJCQk8cGF0aCBpZD0icGF0aDE0MDE1MSIgaW5rc2NhcGU6Y29ubmVjdG9yLWN1cnZhdHVyZT0iMCIgc3R5bGU9ImZpbGw6I0MwMDAwMDtzdHJva2U6I0MwMDAwMDtzdHJva2Utd2lkdGg6MC43NTtzdHJva2UtbGluZWNhcDpyb3VuZDtzdHJva2UtbGluZWpvaW46cm91bmQ7c3Ryb2tlLW1pdGVybGltaXQ6MzsiIGQ9IiAgICAgTTQuNDMsNTkuODJjMS42OC0xLjU3LDMuOTItMi41OCw2LjMzLTIuNjljMC02LjI4LDAtNi4yOCwwLTYuMjhjLTQuMTUsMC4xNy03LjksMS45LTEwLjc2LDQuNTlMNC40Myw1OS44MnoiLz4mI3hhOwkJPC9nPiYjeGE7CQk8ZyBpZD0ic2hhcGU4NDgzLTE4IiB0cmFuc2Zvcm09InRyYW5zbGF0ZSg0LjQ4MTM1LC01LjM4MjI3KSI+JiN4YTsJCQk8dGl0bGUgaWQ9InRpdGxlMTQwMTU0Ij5TaGVldC44NDgzPC90aXRsZT4mI3hhOwkJCSYjeGE7CQkJCTxwYXRoIGlkPSJwYXRoMTQwMTU2IiBpbmtzY2FwZTpjb25uZWN0b3ItY3VydmF0dXJlPSIwIiBzdHlsZT0iZmlsbDojQzAwMDAwO3N0cm9rZTojQzAwMDAwO3N0cm9rZS13aWR0aDowLjc1O3N0cm9rZS1saW5lY2FwOnJvdW5kO3N0cm9rZS1saW5lam9pbjpyb3VuZDtzdHJva2UtbWl0ZXJsaW1pdDozOyIgZD0iICAgICBNNi4zMyw0OS4wNWMtNi4zMywwLTYuMzMsMC02LjMzLDBjMC4yMiw0LjIxLDEuOSw3Ljk2LDQuNTksMTAuNzdjNC4zNy00LjQ5LDQuMzctNC40OSw0LjM3LTQuNDkgICAgIEM3LjQ1LDUzLjY1LDYuNSw1MS40Niw2LjMzLDQ5LjA1eiIvPiYjeGE7CQk8L2c+JiN4YTsJCTxnIGlkPSJzaGFwZTg0ODQtMjAiIHRyYW5zZm9ybT0idHJhbnNsYXRlKDkuODU4OTcpIj4mI3hhOwkJCTx0aXRsZSBpZD0idGl0bGUxNDAxNTkiPlNoZWV0Ljg0ODQ8L3RpdGxlPiYjeGE7CQkJJiN4YTsJCQkJPHBhdGggaWQ9InBhdGgxNDAxNjEiIGlua3NjYXBlOmNvbm5lY3Rvci1jdXJ2YXR1cmU9IjAiIHN0eWxlPSJmaWxsOiNDMDAwMDA7c3Ryb2tlOiNDMDAwMDA7c3Ryb2tlLXdpZHRoOjAuNzU7c3Ryb2tlLWxpbmVjYXA6cm91bmQ7c3Ryb2tlLWxpbmVqb2luOnJvdW5kO3N0cm9rZS1taXRlcmxpbWl0OjM7IiBkPSIgICAgIE0wLDU1LjM5YzIuNjMsMi42Myw2LjExLDQuMzIsOS44Niw0LjQzYzAtNi4zOSwwLTYuMzksMC02LjM5Yy0yLjE5LTAuMTItNC4xNS0xLjA3LTUuNzEtMi41OEwwLDU1LjM5eiIvPiYjeGE7CQk8L2c+JiN4YTsJCTxnIGlkPSJzaGFwZTg0ODUtMjIiIHRyYW5zZm9ybT0idHJhbnNsYXRlKDIxLjUxMDUpIj4mI3hhOwkJCTx0aXRsZSBpZD0idGl0bGUxNDAxNjQiPlNoZWV0Ljg0ODU8L3RpdGxlPiYjeGE7CQkJJiN4YTsJCQkJPHBhdGggaWQ9InBhdGgxNDAxNjYiIGlua3NjYXBlOmNvbm5lY3Rvci1jdXJ2YXR1cmU9IjAiIHN0eWxlPSJmaWxsOiNDMDAwMDA7c3Ryb2tlOiNDMDAwMDA7c3Ryb2tlLXdpZHRoOjAuNzU7c3Ryb2tlLWxpbmVjYXA6cm91bmQ7c3Ryb2tlLWxpbmVqb2luOnJvdW5kO3N0cm9rZS1taXRlcmxpbWl0OjM7IiBkPSIgICAgIE0wLDUzLjQzYzAsNi4zOSwwLDYuMzksMCw2LjM5YzMuODEtMC4xMSw3LjI4LTEuOCw5Ljg2LTQuNDNjLTQuMDktNC41NC00LjA5LTQuNTQtNC4wOS00LjU0QzQuMiw1Mi4zNiwyLjI0LDUzLjMxLDAsNTMuNDN6Ii8+JiN4YTsJCTwvZz4mI3hhOwkJPGcgaWQ9InNoYXBlODQ4Ni0yNCIgdHJhbnNmb3JtPSJ0cmFuc2xhdGUoMjguNjgwNiwtNS4zODIyNykiPiYjeGE7CQkJPHRpdGxlIGlkPSJ0aXRsZTE0MDE2OSI+U2hlZXQuODQ4NjwvdGl0bGU+JiN4YTsJCQkmI3hhOwkJCQk8cGF0aCBpZD0icGF0aDE0MDE3MSIgaW5rc2NhcGU6Y29ubmVjdG9yLWN1cnZhdHVyZT0iMCIgc3R5bGU9ImZpbGw6I0MwMDAwMDtzdHJva2U6I0MwMDAwMDtzdHJva2Utd2lkdGg6MC43NTtzdHJva2UtbGluZWNhcDpyb3VuZDtzdHJva2UtbGluZWpvaW46cm91bmQ7c3Ryb2tlLW1pdGVybGltaXQ6MzsiIGQ9IiAgICAgTTIuNDYsNDkuMDVDMi4zLDUxLjQ2LDEuNCw1My42NSwwLDU1LjMzYzMuOTgsNC40OSwzLjk4LDQuNDksMy45OCw0LjQ5YzIuNDEtMi44MSwzLjkyLTYuNTYsNC4wOS0xMC43N0gyLjQ2eiIvPiYjeGE7CQk8L2c+JiN4YTsJCTxnIGlkPSJzaGFwZTg0ODctMjYiIHRyYW5zZm9ybT0idHJhbnNsYXRlKDIxLjUxMDUsLTI0LjIyMDIpIj4mI3hhOwkJCTx0aXRsZSBpZD0idGl0bGUxNDAxNzQiPlNoZWV0Ljg0ODc8L3RpdGxlPiYjeGE7CQkJJiN4YTsJCQkJPHBhdGggaWQ9InBhdGgxNDAxNzYiIGlua3NjYXBlOmNvbm5lY3Rvci1jdXJ2YXR1cmU9IjAiIHN0eWxlPSJmaWxsOiNDMDAwMDA7c3Ryb2tlOiNDMDAwMDA7c3Ryb2tlLXdpZHRoOjAuNzU7c3Ryb2tlLWxpbmVjYXA6cm91bmQ7c3Ryb2tlLWxpbmVqb2luOnJvdW5kO3N0cm9rZS1taXRlcmxpbWl0OjM7IiBkPSIgICAgIE0xMC43Niw1NS40NEM3Ljk1LDUyLjc1LDQuMiw1MS4wMiwwLDUwLjg1YzAsNi4yOCwwLDYuMjgsMCw2LjI4YzIuNDYsMC4xMSw0LjcxLDEuMTIsNi4zOSwyLjY5TDEwLjc2LDU1LjQ0eiIvPiYjeGE7CQk8L2c+JiN4YTsJCTxnIGlkPSJzaGFwZTg0ODgtMjgiIHRyYW5zZm9ybT0idHJhbnNsYXRlKDI4LjY4MDYsLTIzLjMyMzIpIj4mI3hhOwkJCTx0aXRsZSBpZD0idGl0bGUxNDAxNzkiPlNoZWV0Ljg0ODg8L3RpdGxlPiYjeGE7CQkJJiN4YTsJCQkJPHBhdGggaWQ9InBhdGgxNDAxODEiIGlua3NjYXBlOmNvbm5lY3Rvci1jdXJ2YXR1cmU9IjAiIHN0eWxlPSJmaWxsOiNDMDAwMDA7c3Ryb2tlOiNDMDAwMDA7c3Ryb2tlLXdpZHRoOjAuNzU7c3Ryb2tlLWxpbmVjYXA6cm91bmQ7c3Ryb2tlLWxpbmVqb2luOnJvdW5kO3N0cm9rZS1taXRlcmxpbWl0OjM7IiBkPSIgICAgIE00LjQ4LDU5LjgyYzAtNC40OSwwLTQuNDksMC00LjQ5QzAsNTkuODIsMCw1OS44MiwwLDU5LjgyQzAuNzgsNTkuODIsMy44MSw1OS44Miw0LjQ4LDU5LjgyeiIvPiYjeGE7CQk8L2c+JiN4YTsJPC9nPiYjeGE7PC9nPiYjeGE7PC9zdmc+;" vertex="1" parent="1">
          <mxGeometry x="326" y="564" width="38" height="60" as="geometry" />
        </mxCell>
        <mxCell id="FN3_UUnZCpq1qiRNQo3k-29" value="BackupServer" style="text;html=1;resizable=0;autosize=1;align=center;verticalAlign=middle;points=[];fillColor=none;strokeColor=none;rounded=0;" vertex="1" parent="1">
          <mxGeometry x="300" y="628" width="90" height="20" as="geometry" />
        </mxCell>
        <mxCell id="FN3_UUnZCpq1qiRNQo3k-31" value="" style="shape=image;verticalLabelPosition=bottom;labelBackgroundColor=#ffffff;verticalAlign=top;aspect=fixed;imageAspect=0;image=data:image/svg+xml,PHN2ZyB4bWxuczpjYz0iaHR0cDovL2NyZWF0aXZlY29tbW9ucy5vcmcvbnMjIiB4bWxuczpkYz0iaHR0cDovL3B1cmwub3JnL2RjL2VsZW1lbnRzLzEuMS8iIHhtbG5zOmlua3NjYXBlPSJodHRwOi8vd3d3Lmlua3NjYXBlLm9yZy9uYW1lc3BhY2VzL2lua3NjYXBlIiB4bWxuczpyZGY9Imh0dHA6Ly93d3cudzMub3JnLzE5OTkvMDIvMjItcmRmLXN5bnRheC1ucyMiIHhtbG5zOnNvZGlwb2RpPSJodHRwOi8vc29kaXBvZGkuc291cmNlZm9yZ2UubmV0L0RURC9zb2RpcG9kaS0wLmR0ZCIgeG1sbnM6c3ZnPSJodHRwOi8vd3d3LnczLm9yZy8yMDAwL3N2ZyIgeG1sbnM9Imh0dHA6Ly93d3cudzMub3JnLzIwMDAvc3ZnIiB4bWxuczp4bGluaz0iaHR0cDovL3d3dy53My5vcmcvMTk5OS94bGluayIgdmVyc2lvbj0iMS4xIiBpZD0ic3ZnMTQwMTg3IiBpbmtzY2FwZTp2ZXJzaW9uPSIwLjkyLjMgKDI0MDU1NDYsIDIwMTgtMDMtMTEpIiBzb2RpcG9kaTpkb2NuYW1lPSJiYWNrdXAuc3ZnIiB4PSIwcHgiIHk9IjBweCIgdmlld0JveD0iMCAwIDM3Ljc0IDYwLjIxIiBzdHlsZT0iZW5hYmxlLWJhY2tncm91bmQ6bmV3IDAgMCAzNy43NCA2MC4yMTsiIHhtbDpzcGFjZT0icHJlc2VydmUiPiYjeGE7PHNvZGlwb2RpOm5hbWVkdmlldyBib3JkZXJjb2xvcj0iIzY2NjY2NiIgYm9yZGVyb3BhY2l0eT0iMSIgZml0LW1hcmdpbi1ib3R0b209IjAiIGZpdC1tYXJnaW4tbGVmdD0iMCIgZml0LW1hcmdpbi1yaWdodD0iMCIgZml0LW1hcmdpbi10b3A9IjAiIGdyaWR0b2xlcmFuY2U9IjEwIiBndWlkZXRvbGVyYW5jZT0iMTAiIGlkPSJuYW1lZHZpZXcxNDAxODkiIGlua3NjYXBlOmN1cnJlbnQtbGF5ZXI9InN2ZzE0MDE4NyIgaW5rc2NhcGU6Y3g9IjI0LjkwNjMzMiIgaW5rc2NhcGU6Y3k9IjQwLjM4MTczOSIgaW5rc2NhcGU6cGFnZW9wYWNpdHk9IjAiIGlua3NjYXBlOnBhZ2VzaGFkb3c9IjIiIGlua3NjYXBlOndpbmRvdy1oZWlnaHQ9IjEwMTciIGlua3NjYXBlOndpbmRvdy1tYXhpbWl6ZWQ9IjEiIGlua3NjYXBlOndpbmRvdy13aWR0aD0iMTkyMCIgaW5rc2NhcGU6d2luZG93LXg9Ii04IiBpbmtzY2FwZTp3aW5kb3cteT0iLTgiIGlua3NjYXBlOnpvb209IjEwLjg3MDU3MyIgb2JqZWN0dG9sZXJhbmNlPSIxMCIgcGFnZWNvbG9yPSIjZmZmZmZmIiBzaG93Z3JpZD0iZmFsc2UiPiYjeGE7CTwvc29kaXBvZGk6bmFtZWR2aWV3PiYjeGE7PGcgaWQ9ImcxNDAxODUiIHRyYW5zZm9ybT0idHJhbnNsYXRlKC0yLjAyMzUzNjdlLTYsMC4wMTIyOTI1KSI+JiN4YTsJPHRpdGxlIGlkPSJ0aXRsZTE0MDEyMCI+UGFnZS0xPC90aXRsZT4mI3hhOwk8ZyBpZD0iZ3JvdXA4NDc2LTEiIHRyYW5zZm9ybT0idHJhbnNsYXRlKDAuNjEyNDMyKSI+JiN4YTsJCTx0aXRsZSBpZD0idGl0bGUxNDAxMjIiPkJhY2t1cDwvdGl0bGU+JiN4YTsJCTxnIGlkPSJzaGFwZTg0NzctMiIgdHJhbnNmb3JtPSJ0cmFuc2xhdGUoMCwtMi42OTExNCkiPiYjeGE7CQkJPHRpdGxlIGlkPSJ0aXRsZTE0MDEyNCI+U2hlZXQuODQ3NzwvdGl0bGU+JiN4YTsJCQkmI3hhOwkJCQk8cGF0aCBpZD0icGF0aDE0MDEyNiIgaW5rc2NhcGU6Y29ubmVjdG9yLWN1cnZhdHVyZT0iMCIgc3R5bGU9ImZpbGw6bm9uZTtzdHJva2U6IzNGNTc2NTtzdHJva2Utd2lkdGg6MS4yMjQ5O3N0cm9rZS1saW5lY2FwOnJvdW5kO3N0cm9rZS1saW5lam9pbjpyb3VuZDtzdHJva2UtbWl0ZXJsaW1pdDozOyIgZD0iICAgICBNMjUuOTksMy4zSDB2NTYuNTJoMjUuOTlWMy4zIi8+JiN4YTsJCTwvZz4mI3hhOwkJPGcgaWQ9InNoYXBlODQ3OC01IiB0cmFuc2Zvcm09InRyYW5zbGF0ZSg1LjM3NzYyLC00Ny41NDM0KSI+JiN4YTsJCQk8dGl0bGUgaWQ9InRpdGxlMTQwMTI5Ij5TaGVldC44NDc4PC90aXRsZT4mI3hhOwkJCSYjeGE7CQkJCTxwYXRoIGlkPSJwYXRoMTQwMTMxIiBpbmtzY2FwZTpjb25uZWN0b3ItY3VydmF0dXJlPSIwIiBzdHlsZT0iZmlsbDpub25lO3N0cm9rZTojM0Y1NzY1O3N0cm9rZS13aWR0aDoxLjIyNDk7c3Ryb2tlLWxpbmVjYXA6cm91bmQ7c3Ryb2tlLWxpbmVqb2luOnJvdW5kO3N0cm9rZS1taXRlcmxpbWl0OjM7IiBkPSIgICAgIE0xNS44NSw1OS44MkgwIi8+JiN4YTsJCTwvZz4mI3hhOwkJPGcgaWQ9InNoYXBlODQ3OS04IiB0cmFuc2Zvcm09InRyYW5zbGF0ZSg1LjM3NzYyLC0xNy4wNDM5KSI+JiN4YTsJCQk8dGl0bGUgaWQ9InRpdGxlMTQwMTM0Ij5TaGVldC44NDc5PC90aXRsZT4mI3hhOwkJCSYjeGE7CQkJCTxwYXRoIGlkPSJwYXRoMTQwMTM2IiBpbmtzY2FwZTpjb25uZWN0b3ItY3VydmF0dXJlPSIwIiBzdHlsZT0iZmlsbDpub25lO3N0cm9rZTojM0Y1NzY1O3N0cm9rZS13aWR0aDoxLjIyNDk7c3Ryb2tlLWxpbmVjYXA6cm91bmQ7c3Ryb2tlLWxpbmVqb2luOnJvdW5kO3N0cm9rZS1taXRlcmxpbWl0OjM7IiBkPSIgICAgIE0xNS44NSw1OS44MkgwIi8+JiN4YTsJCTwvZz4mI3hhOwkJPGcgaWQ9InNoYXBlODQ4MC0xMSIgdHJhbnNmb3JtPSJ0cmFuc2xhdGUoNS4zNzc2MiwtMTEuNjYxNikiPiYjeGE7CQkJPHRpdGxlIGlkPSJ0aXRsZTE0MDEzOSI+U2hlZXQuODQ4MDwvdGl0bGU+JiN4YTsJCQkmI3hhOwkJCQk8cGF0aCBpZD0icGF0aDE0MDE0MSIgaW5rc2NhcGU6Y29ubmVjdG9yLWN1cnZhdHVyZT0iMCIgc3R5bGU9ImZpbGw6bm9uZTtzdHJva2U6IzNGNTc2NTtzdHJva2Utd2lkdGg6MS4yMjQ5O3N0cm9rZS1saW5lY2FwOnJvdW5kO3N0cm9rZS1saW5lam9pbjpyb3VuZDtzdHJva2UtbWl0ZXJsaW1pdDozOyIgZD0iICAgICBNMTUuODUsNTkuODJIMCIvPiYjeGE7CQk8L2c+JiN4YTsJCTxnIGlkPSJzaGFwZTg0ODEtMTQiIHRyYW5zZm9ybT0idHJhbnNsYXRlKDQuNDgxMzUsLTE3LjA0MzkpIj4mI3hhOwkJCTx0aXRsZSBpZD0idGl0bGUxNDAxNDQiPlNoZWV0Ljg0ODE8L3RpdGxlPiYjeGE7CQkJJiN4YTsJCQkJPHBhdGggaWQ9InBhdGgxNDAxNDYiIGlua3NjYXBlOmNvbm5lY3Rvci1jdXJ2YXR1cmU9IjAiIHN0eWxlPSJmaWxsOiNDMDAwMDA7c3Ryb2tlOiNDMDAwMDA7c3Ryb2tlLXdpZHRoOjAuNzU7c3Ryb2tlLWxpbmVjYXA6cm91bmQ7c3Ryb2tlLWxpbmVqb2luOnJvdW5kO3N0cm9rZS1taXRlcmxpbWl0OjM7IiBkPSIgICAgIE04LjA3LDUzLjQ4Yy00LjA0LTQuNDMtNC4wNC00LjQzLTQuMDQtNC40M0MxLjYyLDUxLjkxLDAuMTEsNTUuNzIsMCw1OS44MmM1Ljc3LDAsNS43NywwLDUuNzcsMCAgICAgQzUuODgsNTcuNDEsNi43Miw1NS4yMiw4LjA3LDUzLjQ4eiIvPiYjeGE7CQk8L2c+JiN4YTsJCTxnIGlkPSJzaGFwZTg0ODItMTYiIHRyYW5zZm9ybT0idHJhbnNsYXRlKDguOTYyNywtMjQuMjIwMikiPiYjeGE7CQkJPHRpdGxlIGlkPSJ0aXRsZTE0MDE0OSI+U2hlZXQuODQ4MjwvdGl0bGU+JiN4YTsJCQkmI3hhOwkJCQk8cGF0aCBpZD0icGF0aDE0MDE1MSIgaW5rc2NhcGU6Y29ubmVjdG9yLWN1cnZhdHVyZT0iMCIgc3R5bGU9ImZpbGw6I0MwMDAwMDtzdHJva2U6I0MwMDAwMDtzdHJva2Utd2lkdGg6MC43NTtzdHJva2UtbGluZWNhcDpyb3VuZDtzdHJva2UtbGluZWpvaW46cm91bmQ7c3Ryb2tlLW1pdGVybGltaXQ6MzsiIGQ9IiAgICAgTTQuNDMsNTkuODJjMS42OC0xLjU3LDMuOTItMi41OCw2LjMzLTIuNjljMC02LjI4LDAtNi4yOCwwLTYuMjhjLTQuMTUsMC4xNy03LjksMS45LTEwLjc2LDQuNTlMNC40Myw1OS44MnoiLz4mI3hhOwkJPC9nPiYjeGE7CQk8ZyBpZD0ic2hhcGU4NDgzLTE4IiB0cmFuc2Zvcm09InRyYW5zbGF0ZSg0LjQ4MTM1LC01LjM4MjI3KSI+JiN4YTsJCQk8dGl0bGUgaWQ9InRpdGxlMTQwMTU0Ij5TaGVldC44NDgzPC90aXRsZT4mI3hhOwkJCSYjeGE7CQkJCTxwYXRoIGlkPSJwYXRoMTQwMTU2IiBpbmtzY2FwZTpjb25uZWN0b3ItY3VydmF0dXJlPSIwIiBzdHlsZT0iZmlsbDojQzAwMDAwO3N0cm9rZTojQzAwMDAwO3N0cm9rZS13aWR0aDowLjc1O3N0cm9rZS1saW5lY2FwOnJvdW5kO3N0cm9rZS1saW5lam9pbjpyb3VuZDtzdHJva2UtbWl0ZXJsaW1pdDozOyIgZD0iICAgICBNNi4zMyw0OS4wNWMtNi4zMywwLTYuMzMsMC02LjMzLDBjMC4yMiw0LjIxLDEuOSw3Ljk2LDQuNTksMTAuNzdjNC4zNy00LjQ5LDQuMzctNC40OSw0LjM3LTQuNDkgICAgIEM3LjQ1LDUzLjY1LDYuNSw1MS40Niw2LjMzLDQ5LjA1eiIvPiYjeGE7CQk8L2c+JiN4YTsJCTxnIGlkPSJzaGFwZTg0ODQtMjAiIHRyYW5zZm9ybT0idHJhbnNsYXRlKDkuODU4OTcpIj4mI3hhOwkJCTx0aXRsZSBpZD0idGl0bGUxNDAxNTkiPlNoZWV0Ljg0ODQ8L3RpdGxlPiYjeGE7CQkJJiN4YTsJCQkJPHBhdGggaWQ9InBhdGgxNDAxNjEiIGlua3NjYXBlOmNvbm5lY3Rvci1jdXJ2YXR1cmU9IjAiIHN0eWxlPSJmaWxsOiNDMDAwMDA7c3Ryb2tlOiNDMDAwMDA7c3Ryb2tlLXdpZHRoOjAuNzU7c3Ryb2tlLWxpbmVjYXA6cm91bmQ7c3Ryb2tlLWxpbmVqb2luOnJvdW5kO3N0cm9rZS1taXRlcmxpbWl0OjM7IiBkPSIgICAgIE0wLDU1LjM5YzIuNjMsMi42Myw2LjExLDQuMzIsOS44Niw0LjQzYzAtNi4zOSwwLTYuMzksMC02LjM5Yy0yLjE5LTAuMTItNC4xNS0xLjA3LTUuNzEtMi41OEwwLDU1LjM5eiIvPiYjeGE7CQk8L2c+JiN4YTsJCTxnIGlkPSJzaGFwZTg0ODUtMjIiIHRyYW5zZm9ybT0idHJhbnNsYXRlKDIxLjUxMDUpIj4mI3hhOwkJCTx0aXRsZSBpZD0idGl0bGUxNDAxNjQiPlNoZWV0Ljg0ODU8L3RpdGxlPiYjeGE7CQkJJiN4YTsJCQkJPHBhdGggaWQ9InBhdGgxNDAxNjYiIGlua3NjYXBlOmNvbm5lY3Rvci1jdXJ2YXR1cmU9IjAiIHN0eWxlPSJmaWxsOiNDMDAwMDA7c3Ryb2tlOiNDMDAwMDA7c3Ryb2tlLXdpZHRoOjAuNzU7c3Ryb2tlLWxpbmVjYXA6cm91bmQ7c3Ryb2tlLWxpbmVqb2luOnJvdW5kO3N0cm9rZS1taXRlcmxpbWl0OjM7IiBkPSIgICAgIE0wLDUzLjQzYzAsNi4zOSwwLDYuMzksMCw2LjM5YzMuODEtMC4xMSw3LjI4LTEuOCw5Ljg2LTQuNDNjLTQuMDktNC41NC00LjA5LTQuNTQtNC4wOS00LjU0QzQuMiw1Mi4zNiwyLjI0LDUzLjMxLDAsNTMuNDN6Ii8+JiN4YTsJCTwvZz4mI3hhOwkJPGcgaWQ9InNoYXBlODQ4Ni0yNCIgdHJhbnNmb3JtPSJ0cmFuc2xhdGUoMjguNjgwNiwtNS4zODIyNykiPiYjeGE7CQkJPHRpdGxlIGlkPSJ0aXRsZTE0MDE2OSI+U2hlZXQuODQ4NjwvdGl0bGU+JiN4YTsJCQkmI3hhOwkJCQk8cGF0aCBpZD0icGF0aDE0MDE3MSIgaW5rc2NhcGU6Y29ubmVjdG9yLWN1cnZhdHVyZT0iMCIgc3R5bGU9ImZpbGw6I0MwMDAwMDtzdHJva2U6I0MwMDAwMDtzdHJva2Utd2lkdGg6MC43NTtzdHJva2UtbGluZWNhcDpyb3VuZDtzdHJva2UtbGluZWpvaW46cm91bmQ7c3Ryb2tlLW1pdGVybGltaXQ6MzsiIGQ9IiAgICAgTTIuNDYsNDkuMDVDMi4zLDUxLjQ2LDEuNCw1My42NSwwLDU1LjMzYzMuOTgsNC40OSwzLjk4LDQuNDksMy45OCw0LjQ5YzIuNDEtMi44MSwzLjkyLTYuNTYsNC4wOS0xMC43N0gyLjQ2eiIvPiYjeGE7CQk8L2c+JiN4YTsJCTxnIGlkPSJzaGFwZTg0ODctMjYiIHRyYW5zZm9ybT0idHJhbnNsYXRlKDIxLjUxMDUsLTI0LjIyMDIpIj4mI3hhOwkJCTx0aXRsZSBpZD0idGl0bGUxNDAxNzQiPlNoZWV0Ljg0ODc8L3RpdGxlPiYjeGE7CQkJJiN4YTsJCQkJPHBhdGggaWQ9InBhdGgxNDAxNzYiIGlua3NjYXBlOmNvbm5lY3Rvci1jdXJ2YXR1cmU9IjAiIHN0eWxlPSJmaWxsOiNDMDAwMDA7c3Ryb2tlOiNDMDAwMDA7c3Ryb2tlLXdpZHRoOjAuNzU7c3Ryb2tlLWxpbmVjYXA6cm91bmQ7c3Ryb2tlLWxpbmVqb2luOnJvdW5kO3N0cm9rZS1taXRlcmxpbWl0OjM7IiBkPSIgICAgIE0xMC43Niw1NS40NEM3Ljk1LDUyLjc1LDQuMiw1MS4wMiwwLDUwLjg1YzAsNi4yOCwwLDYuMjgsMCw2LjI4YzIuNDYsMC4xMSw0LjcxLDEuMTIsNi4zOSwyLjY5TDEwLjc2LDU1LjQ0eiIvPiYjeGE7CQk8L2c+JiN4YTsJCTxnIGlkPSJzaGFwZTg0ODgtMjgiIHRyYW5zZm9ybT0idHJhbnNsYXRlKDI4LjY4MDYsLTIzLjMyMzIpIj4mI3hhOwkJCTx0aXRsZSBpZD0idGl0bGUxNDAxNzkiPlNoZWV0Ljg0ODg8L3RpdGxlPiYjeGE7CQkJJiN4YTsJCQkJPHBhdGggaWQ9InBhdGgxNDAxODEiIGlua3NjYXBlOmNvbm5lY3Rvci1jdXJ2YXR1cmU9IjAiIHN0eWxlPSJmaWxsOiNDMDAwMDA7c3Ryb2tlOiNDMDAwMDA7c3Ryb2tlLXdpZHRoOjAuNzU7c3Ryb2tlLWxpbmVjYXA6cm91bmQ7c3Ryb2tlLWxpbmVqb2luOnJvdW5kO3N0cm9rZS1taXRlcmxpbWl0OjM7IiBkPSIgICAgIE00LjQ4LDU5LjgyYzAtNC40OSwwLTQuNDksMC00LjQ5QzAsNTkuODIsMCw1OS44MiwwLDU5LjgyQzAuNzgsNTkuODIsMy44MSw1OS44Miw0LjQ4LDU5LjgyeiIvPiYjeGE7CQk8L2c+JiN4YTsJPC9nPiYjeGE7PC9nPiYjeGE7PC9zdmc+;" vertex="1" parent="1">
          <mxGeometry x="566" y="263" width="38" height="60" as="geometry" />
        </mxCell>
        <mxCell id="FN3_UUnZCpq1qiRNQo3k-32" value="BackupServer" style="text;html=1;resizable=0;autosize=1;align=center;verticalAlign=middle;points=[];fillColor=none;strokeColor=none;rounded=0;" vertex="1" parent="1">
          <mxGeometry x="542.08" y="323" width="90" height="20" as="geometry" />
        </mxCell>
        <mxCell id="FN3_UUnZCpq1qiRNQo3k-33" value="" style="shape=image;verticalLabelPosition=bottom;labelBackgroundColor=#ffffff;verticalAlign=top;aspect=fixed;imageAspect=0;image=data:image/svg+xml,PHN2ZyB4bWxuczpjYz0iaHR0cDovL2NyZWF0aXZlY29tbW9ucy5vcmcvbnMjIiB4bWxuczpkYz0iaHR0cDovL3B1cmwub3JnL2RjL2VsZW1lbnRzLzEuMS8iIHhtbG5zOmlua3NjYXBlPSJodHRwOi8vd3d3Lmlua3NjYXBlLm9yZy9uYW1lc3BhY2VzL2lua3NjYXBlIiB4bWxuczpyZGY9Imh0dHA6Ly93d3cudzMub3JnLzE5OTkvMDIvMjItcmRmLXN5bnRheC1ucyMiIHhtbG5zOnNvZGlwb2RpPSJodHRwOi8vc29kaXBvZGkuc291cmNlZm9yZ2UubmV0L0RURC9zb2RpcG9kaS0wLmR0ZCIgeG1sbnM6c3ZnPSJodHRwOi8vd3d3LnczLm9yZy8yMDAwL3N2ZyIgeG1sbnM9Imh0dHA6Ly93d3cudzMub3JnLzIwMDAvc3ZnIiB4bWxuczp4bGluaz0iaHR0cDovL3d3dy53My5vcmcvMTk5OS94bGluayIgdmVyc2lvbj0iMS4xIiBpZD0ic3ZnMTQwMTg3IiBpbmtzY2FwZTp2ZXJzaW9uPSIwLjkyLjMgKDI0MDU1NDYsIDIwMTgtMDMtMTEpIiBzb2RpcG9kaTpkb2NuYW1lPSJiYWNrdXAuc3ZnIiB4PSIwcHgiIHk9IjBweCIgdmlld0JveD0iMCAwIDM3Ljc0IDYwLjIxIiBzdHlsZT0iZW5hYmxlLWJhY2tncm91bmQ6bmV3IDAgMCAzNy43NCA2MC4yMTsiIHhtbDpzcGFjZT0icHJlc2VydmUiPiYjeGE7PHNvZGlwb2RpOm5hbWVkdmlldyBib3JkZXJjb2xvcj0iIzY2NjY2NiIgYm9yZGVyb3BhY2l0eT0iMSIgZml0LW1hcmdpbi1ib3R0b209IjAiIGZpdC1tYXJnaW4tbGVmdD0iMCIgZml0LW1hcmdpbi1yaWdodD0iMCIgZml0LW1hcmdpbi10b3A9IjAiIGdyaWR0b2xlcmFuY2U9IjEwIiBndWlkZXRvbGVyYW5jZT0iMTAiIGlkPSJuYW1lZHZpZXcxNDAxODkiIGlua3NjYXBlOmN1cnJlbnQtbGF5ZXI9InN2ZzE0MDE4NyIgaW5rc2NhcGU6Y3g9IjI0LjkwNjMzMiIgaW5rc2NhcGU6Y3k9IjQwLjM4MTczOSIgaW5rc2NhcGU6cGFnZW9wYWNpdHk9IjAiIGlua3NjYXBlOnBhZ2VzaGFkb3c9IjIiIGlua3NjYXBlOndpbmRvdy1oZWlnaHQ9IjEwMTciIGlua3NjYXBlOndpbmRvdy1tYXhpbWl6ZWQ9IjEiIGlua3NjYXBlOndpbmRvdy13aWR0aD0iMTkyMCIgaW5rc2NhcGU6d2luZG93LXg9Ii04IiBpbmtzY2FwZTp3aW5kb3cteT0iLTgiIGlua3NjYXBlOnpvb209IjEwLjg3MDU3MyIgb2JqZWN0dG9sZXJhbmNlPSIxMCIgcGFnZWNvbG9yPSIjZmZmZmZmIiBzaG93Z3JpZD0iZmFsc2UiPiYjeGE7CTwvc29kaXBvZGk6bmFtZWR2aWV3PiYjeGE7PGcgaWQ9ImcxNDAxODUiIHRyYW5zZm9ybT0idHJhbnNsYXRlKC0yLjAyMzUzNjdlLTYsMC4wMTIyOTI1KSI+JiN4YTsJPHRpdGxlIGlkPSJ0aXRsZTE0MDEyMCI+UGFnZS0xPC90aXRsZT4mI3hhOwk8ZyBpZD0iZ3JvdXA4NDc2LTEiIHRyYW5zZm9ybT0idHJhbnNsYXRlKDAuNjEyNDMyKSI+JiN4YTsJCTx0aXRsZSBpZD0idGl0bGUxNDAxMjIiPkJhY2t1cDwvdGl0bGU+JiN4YTsJCTxnIGlkPSJzaGFwZTg0NzctMiIgdHJhbnNmb3JtPSJ0cmFuc2xhdGUoMCwtMi42OTExNCkiPiYjeGE7CQkJPHRpdGxlIGlkPSJ0aXRsZTE0MDEyNCI+U2hlZXQuODQ3NzwvdGl0bGU+JiN4YTsJCQkmI3hhOwkJCQk8cGF0aCBpZD0icGF0aDE0MDEyNiIgaW5rc2NhcGU6Y29ubmVjdG9yLWN1cnZhdHVyZT0iMCIgc3R5bGU9ImZpbGw6bm9uZTtzdHJva2U6IzNGNTc2NTtzdHJva2Utd2lkdGg6MS4yMjQ5O3N0cm9rZS1saW5lY2FwOnJvdW5kO3N0cm9rZS1saW5lam9pbjpyb3VuZDtzdHJva2UtbWl0ZXJsaW1pdDozOyIgZD0iICAgICBNMjUuOTksMy4zSDB2NTYuNTJoMjUuOTlWMy4zIi8+JiN4YTsJCTwvZz4mI3hhOwkJPGcgaWQ9InNoYXBlODQ3OC01IiB0cmFuc2Zvcm09InRyYW5zbGF0ZSg1LjM3NzYyLC00Ny41NDM0KSI+JiN4YTsJCQk8dGl0bGUgaWQ9InRpdGxlMTQwMTI5Ij5TaGVldC44NDc4PC90aXRsZT4mI3hhOwkJCSYjeGE7CQkJCTxwYXRoIGlkPSJwYXRoMTQwMTMxIiBpbmtzY2FwZTpjb25uZWN0b3ItY3VydmF0dXJlPSIwIiBzdHlsZT0iZmlsbDpub25lO3N0cm9rZTojM0Y1NzY1O3N0cm9rZS13aWR0aDoxLjIyNDk7c3Ryb2tlLWxpbmVjYXA6cm91bmQ7c3Ryb2tlLWxpbmVqb2luOnJvdW5kO3N0cm9rZS1taXRlcmxpbWl0OjM7IiBkPSIgICAgIE0xNS44NSw1OS44MkgwIi8+JiN4YTsJCTwvZz4mI3hhOwkJPGcgaWQ9InNoYXBlODQ3OS04IiB0cmFuc2Zvcm09InRyYW5zbGF0ZSg1LjM3NzYyLC0xNy4wNDM5KSI+JiN4YTsJCQk8dGl0bGUgaWQ9InRpdGxlMTQwMTM0Ij5TaGVldC44NDc5PC90aXRsZT4mI3hhOwkJCSYjeGE7CQkJCTxwYXRoIGlkPSJwYXRoMTQwMTM2IiBpbmtzY2FwZTpjb25uZWN0b3ItY3VydmF0dXJlPSIwIiBzdHlsZT0iZmlsbDpub25lO3N0cm9rZTojM0Y1NzY1O3N0cm9rZS13aWR0aDoxLjIyNDk7c3Ryb2tlLWxpbmVjYXA6cm91bmQ7c3Ryb2tlLWxpbmVqb2luOnJvdW5kO3N0cm9rZS1taXRlcmxpbWl0OjM7IiBkPSIgICAgIE0xNS44NSw1OS44MkgwIi8+JiN4YTsJCTwvZz4mI3hhOwkJPGcgaWQ9InNoYXBlODQ4MC0xMSIgdHJhbnNmb3JtPSJ0cmFuc2xhdGUoNS4zNzc2MiwtMTEuNjYxNikiPiYjeGE7CQkJPHRpdGxlIGlkPSJ0aXRsZTE0MDEzOSI+U2hlZXQuODQ4MDwvdGl0bGU+JiN4YTsJCQkmI3hhOwkJCQk8cGF0aCBpZD0icGF0aDE0MDE0MSIgaW5rc2NhcGU6Y29ubmVjdG9yLWN1cnZhdHVyZT0iMCIgc3R5bGU9ImZpbGw6bm9uZTtzdHJva2U6IzNGNTc2NTtzdHJva2Utd2lkdGg6MS4yMjQ5O3N0cm9rZS1saW5lY2FwOnJvdW5kO3N0cm9rZS1saW5lam9pbjpyb3VuZDtzdHJva2UtbWl0ZXJsaW1pdDozOyIgZD0iICAgICBNMTUuODUsNTkuODJIMCIvPiYjeGE7CQk8L2c+JiN4YTsJCTxnIGlkPSJzaGFwZTg0ODEtMTQiIHRyYW5zZm9ybT0idHJhbnNsYXRlKDQuNDgxMzUsLTE3LjA0MzkpIj4mI3hhOwkJCTx0aXRsZSBpZD0idGl0bGUxNDAxNDQiPlNoZWV0Ljg0ODE8L3RpdGxlPiYjeGE7CQkJJiN4YTsJCQkJPHBhdGggaWQ9InBhdGgxNDAxNDYiIGlua3NjYXBlOmNvbm5lY3Rvci1jdXJ2YXR1cmU9IjAiIHN0eWxlPSJmaWxsOiNDMDAwMDA7c3Ryb2tlOiNDMDAwMDA7c3Ryb2tlLXdpZHRoOjAuNzU7c3Ryb2tlLWxpbmVjYXA6cm91bmQ7c3Ryb2tlLWxpbmVqb2luOnJvdW5kO3N0cm9rZS1taXRlcmxpbWl0OjM7IiBkPSIgICAgIE04LjA3LDUzLjQ4Yy00LjA0LTQuNDMtNC4wNC00LjQzLTQuMDQtNC40M0MxLjYyLDUxLjkxLDAuMTEsNTUuNzIsMCw1OS44MmM1Ljc3LDAsNS43NywwLDUuNzcsMCAgICAgQzUuODgsNTcuNDEsNi43Miw1NS4yMiw4LjA3LDUzLjQ4eiIvPiYjeGE7CQk8L2c+JiN4YTsJCTxnIGlkPSJzaGFwZTg0ODItMTYiIHRyYW5zZm9ybT0idHJhbnNsYXRlKDguOTYyNywtMjQuMjIwMikiPiYjeGE7CQkJPHRpdGxlIGlkPSJ0aXRsZTE0MDE0OSI+U2hlZXQuODQ4MjwvdGl0bGU+JiN4YTsJCQkmI3hhOwkJCQk8cGF0aCBpZD0icGF0aDE0MDE1MSIgaW5rc2NhcGU6Y29ubmVjdG9yLWN1cnZhdHVyZT0iMCIgc3R5bGU9ImZpbGw6I0MwMDAwMDtzdHJva2U6I0MwMDAwMDtzdHJva2Utd2lkdGg6MC43NTtzdHJva2UtbGluZWNhcDpyb3VuZDtzdHJva2UtbGluZWpvaW46cm91bmQ7c3Ryb2tlLW1pdGVybGltaXQ6MzsiIGQ9IiAgICAgTTQuNDMsNTkuODJjMS42OC0xLjU3LDMuOTItMi41OCw2LjMzLTIuNjljMC02LjI4LDAtNi4yOCwwLTYuMjhjLTQuMTUsMC4xNy03LjksMS45LTEwLjc2LDQuNTlMNC40Myw1OS44MnoiLz4mI3hhOwkJPC9nPiYjeGE7CQk8ZyBpZD0ic2hhcGU4NDgzLTE4IiB0cmFuc2Zvcm09InRyYW5zbGF0ZSg0LjQ4MTM1LC01LjM4MjI3KSI+JiN4YTsJCQk8dGl0bGUgaWQ9InRpdGxlMTQwMTU0Ij5TaGVldC44NDgzPC90aXRsZT4mI3hhOwkJCSYjeGE7CQkJCTxwYXRoIGlkPSJwYXRoMTQwMTU2IiBpbmtzY2FwZTpjb25uZWN0b3ItY3VydmF0dXJlPSIwIiBzdHlsZT0iZmlsbDojQzAwMDAwO3N0cm9rZTojQzAwMDAwO3N0cm9rZS13aWR0aDowLjc1O3N0cm9rZS1saW5lY2FwOnJvdW5kO3N0cm9rZS1saW5lam9pbjpyb3VuZDtzdHJva2UtbWl0ZXJsaW1pdDozOyIgZD0iICAgICBNNi4zMyw0OS4wNWMtNi4zMywwLTYuMzMsMC02LjMzLDBjMC4yMiw0LjIxLDEuOSw3Ljk2LDQuNTksMTAuNzdjNC4zNy00LjQ5LDQuMzctNC40OSw0LjM3LTQuNDkgICAgIEM3LjQ1LDUzLjY1LDYuNSw1MS40Niw2LjMzLDQ5LjA1eiIvPiYjeGE7CQk8L2c+JiN4YTsJCTxnIGlkPSJzaGFwZTg0ODQtMjAiIHRyYW5zZm9ybT0idHJhbnNsYXRlKDkuODU4OTcpIj4mI3hhOwkJCTx0aXRsZSBpZD0idGl0bGUxNDAxNTkiPlNoZWV0Ljg0ODQ8L3RpdGxlPiYjeGE7CQkJJiN4YTsJCQkJPHBhdGggaWQ9InBhdGgxNDAxNjEiIGlua3NjYXBlOmNvbm5lY3Rvci1jdXJ2YXR1cmU9IjAiIHN0eWxlPSJmaWxsOiNDMDAwMDA7c3Ryb2tlOiNDMDAwMDA7c3Ryb2tlLXdpZHRoOjAuNzU7c3Ryb2tlLWxpbmVjYXA6cm91bmQ7c3Ryb2tlLWxpbmVqb2luOnJvdW5kO3N0cm9rZS1taXRlcmxpbWl0OjM7IiBkPSIgICAgIE0wLDU1LjM5YzIuNjMsMi42Myw2LjExLDQuMzIsOS44Niw0LjQzYzAtNi4zOSwwLTYuMzksMC02LjM5Yy0yLjE5LTAuMTItNC4xNS0xLjA3LTUuNzEtMi41OEwwLDU1LjM5eiIvPiYjeGE7CQk8L2c+JiN4YTsJCTxnIGlkPSJzaGFwZTg0ODUtMjIiIHRyYW5zZm9ybT0idHJhbnNsYXRlKDIxLjUxMDUpIj4mI3hhOwkJCTx0aXRsZSBpZD0idGl0bGUxNDAxNjQiPlNoZWV0Ljg0ODU8L3RpdGxlPiYjeGE7CQkJJiN4YTsJCQkJPHBhdGggaWQ9InBhdGgxNDAxNjYiIGlua3NjYXBlOmNvbm5lY3Rvci1jdXJ2YXR1cmU9IjAiIHN0eWxlPSJmaWxsOiNDMDAwMDA7c3Ryb2tlOiNDMDAwMDA7c3Ryb2tlLXdpZHRoOjAuNzU7c3Ryb2tlLWxpbmVjYXA6cm91bmQ7c3Ryb2tlLWxpbmVqb2luOnJvdW5kO3N0cm9rZS1taXRlcmxpbWl0OjM7IiBkPSIgICAgIE0wLDUzLjQzYzAsNi4zOSwwLDYuMzksMCw2LjM5YzMuODEtMC4xMSw3LjI4LTEuOCw5Ljg2LTQuNDNjLTQuMDktNC41NC00LjA5LTQuNTQtNC4wOS00LjU0QzQuMiw1Mi4zNiwyLjI0LDUzLjMxLDAsNTMuNDN6Ii8+JiN4YTsJCTwvZz4mI3hhOwkJPGcgaWQ9InNoYXBlODQ4Ni0yNCIgdHJhbnNmb3JtPSJ0cmFuc2xhdGUoMjguNjgwNiwtNS4zODIyNykiPiYjeGE7CQkJPHRpdGxlIGlkPSJ0aXRsZTE0MDE2OSI+U2hlZXQuODQ4NjwvdGl0bGU+JiN4YTsJCQkmI3hhOwkJCQk8cGF0aCBpZD0icGF0aDE0MDE3MSIgaW5rc2NhcGU6Y29ubmVjdG9yLWN1cnZhdHVyZT0iMCIgc3R5bGU9ImZpbGw6I0MwMDAwMDtzdHJva2U6I0MwMDAwMDtzdHJva2Utd2lkdGg6MC43NTtzdHJva2UtbGluZWNhcDpyb3VuZDtzdHJva2UtbGluZWpvaW46cm91bmQ7c3Ryb2tlLW1pdGVybGltaXQ6MzsiIGQ9IiAgICAgTTIuNDYsNDkuMDVDMi4zLDUxLjQ2LDEuNCw1My42NSwwLDU1LjMzYzMuOTgsNC40OSwzLjk4LDQuNDksMy45OCw0LjQ5YzIuNDEtMi44MSwzLjkyLTYuNTYsNC4wOS0xMC43N0gyLjQ2eiIvPiYjeGE7CQk8L2c+JiN4YTsJCTxnIGlkPSJzaGFwZTg0ODctMjYiIHRyYW5zZm9ybT0idHJhbnNsYXRlKDIxLjUxMDUsLTI0LjIyMDIpIj4mI3hhOwkJCTx0aXRsZSBpZD0idGl0bGUxNDAxNzQiPlNoZWV0Ljg0ODc8L3RpdGxlPiYjeGE7CQkJJiN4YTsJCQkJPHBhdGggaWQ9InBhdGgxNDAxNzYiIGlua3NjYXBlOmNvbm5lY3Rvci1jdXJ2YXR1cmU9IjAiIHN0eWxlPSJmaWxsOiNDMDAwMDA7c3Ryb2tlOiNDMDAwMDA7c3Ryb2tlLXdpZHRoOjAuNzU7c3Ryb2tlLWxpbmVjYXA6cm91bmQ7c3Ryb2tlLWxpbmVqb2luOnJvdW5kO3N0cm9rZS1taXRlcmxpbWl0OjM7IiBkPSIgICAgIE0xMC43Niw1NS40NEM3Ljk1LDUyLjc1LDQuMiw1MS4wMiwwLDUwLjg1YzAsNi4yOCwwLDYuMjgsMCw2LjI4YzIuNDYsMC4xMSw0LjcxLDEuMTIsNi4zOSwyLjY5TDEwLjc2LDU1LjQ0eiIvPiYjeGE7CQk8L2c+JiN4YTsJCTxnIGlkPSJzaGFwZTg0ODgtMjgiIHRyYW5zZm9ybT0idHJhbnNsYXRlKDI4LjY4MDYsLTIzLjMyMzIpIj4mI3hhOwkJCTx0aXRsZSBpZD0idGl0bGUxNDAxNzkiPlNoZWV0Ljg0ODg8L3RpdGxlPiYjeGE7CQkJJiN4YTsJCQkJPHBhdGggaWQ9InBhdGgxNDAxODEiIGlua3NjYXBlOmNvbm5lY3Rvci1jdXJ2YXR1cmU9IjAiIHN0eWxlPSJmaWxsOiNDMDAwMDA7c3Ryb2tlOiNDMDAwMDA7c3Ryb2tlLXdpZHRoOjAuNzU7c3Ryb2tlLWxpbmVjYXA6cm91bmQ7c3Ryb2tlLWxpbmVqb2luOnJvdW5kO3N0cm9rZS1taXRlcmxpbWl0OjM7IiBkPSIgICAgIE00LjQ4LDU5LjgyYzAtNC40OSwwLTQuNDksMC00LjQ5QzAsNTkuODIsMCw1OS44MiwwLDU5LjgyQzAuNzgsNTkuODIsMy44MSw1OS44Miw0LjQ4LDU5LjgyeiIvPiYjeGE7CQk8L2c+JiN4YTsJPC9nPiYjeGE7PC9nPiYjeGE7PC9zdmc+;" vertex="1" parent="1">
          <mxGeometry x="326" y="414" width="38" height="60" as="geometry" />
        </mxCell>
        <mxCell id="FN3_UUnZCpq1qiRNQo3k-34" value="BackupServer" style="text;html=1;resizable=0;autosize=1;align=center;verticalAlign=middle;points=[];fillColor=none;strokeColor=none;rounded=0;" vertex="1" parent="1">
          <mxGeometry x="300" y="478" width="90" height="20" as="geometry" />
        </mxCell>
        <mxCell id="FN3_UUnZCpq1qiRNQo3k-38" value="" style="shape=image;verticalLabelPosition=bottom;labelBackgroundColor=#ffffff;verticalAlign=top;aspect=fixed;imageAspect=0;image=data:image/svg+xml,PHN2ZyB4bWxuczpjYz0iaHR0cDovL2NyZWF0aXZlY29tbW9ucy5vcmcvbnMjIiB4bWxuczpkYz0iaHR0cDovL3B1cmwub3JnL2RjL2VsZW1lbnRzLzEuMS8iIHhtbG5zOmlua3NjYXBlPSJodHRwOi8vd3d3Lmlua3NjYXBlLm9yZy9uYW1lc3BhY2VzL2lua3NjYXBlIiB4bWxuczpyZGY9Imh0dHA6Ly93d3cudzMub3JnLzE5OTkvMDIvMjItcmRmLXN5bnRheC1ucyMiIHhtbG5zOnNvZGlwb2RpPSJodHRwOi8vc29kaXBvZGkuc291cmNlZm9yZ2UubmV0L0RURC9zb2RpcG9kaS0wLmR0ZCIgeG1sbnM6c3ZnPSJodHRwOi8vd3d3LnczLm9yZy8yMDAwL3N2ZyIgeG1sbnM9Imh0dHA6Ly93d3cudzMub3JnLzIwMDAvc3ZnIiB4bWxuczp4bGluaz0iaHR0cDovL3d3dy53My5vcmcvMTk5OS94bGluayIgdmVyc2lvbj0iMS4xIiBpZD0ic3ZnNjMxODEiIGlua3NjYXBlOnZlcnNpb249IjAuOTIuMyAoMjQwNTU0NiwgMjAxOC0wMy0xMSkiIHNvZGlwb2RpOmRvY25hbWU9Imh5YnJpZC5zdmciIHg9IjBweCIgeT0iMHB4IiB2aWV3Qm94PSIwIDAgNDguNTggMzUuMDUiIHN0eWxlPSJlbmFibGUtYmFja2dyb3VuZDpuZXcgMCAwIDQ4LjU4IDM1LjA1OyIgeG1sOnNwYWNlPSJwcmVzZXJ2ZSI+JiN4YTs8c29kaXBvZGk6bmFtZWR2aWV3IGJvcmRlcmNvbG9yPSIjNjY2NjY2IiBib3JkZXJvcGFjaXR5PSIxIiBmaXQtbWFyZ2luLWJvdHRvbT0iMCIgZml0LW1hcmdpbi1sZWZ0PSIwIiBmaXQtbWFyZ2luLXJpZ2h0PSIwIiBmaXQtbWFyZ2luLXRvcD0iMCIgZ3JpZHRvbGVyYW5jZT0iMTAiIGd1aWRldG9sZXJhbmNlPSIxMCIgaWQ9Im5hbWVkdmlldzYzMTgzIiBpbmtzY2FwZTpjdXJyZW50LWxheWVyPSJzdmc2MzE4MSIgaW5rc2NhcGU6Y3g9IjI3Ljg3NzQ4NCIgaW5rc2NhcGU6Y3k9IjEyLjEzNTE1NiIgaW5rc2NhcGU6cGFnZW9wYWNpdHk9IjAiIGlua3NjYXBlOnBhZ2VzaGFkb3c9IjIiIGlua3NjYXBlOndpbmRvdy1oZWlnaHQ9IjEwMTciIGlua3NjYXBlOndpbmRvdy1tYXhpbWl6ZWQ9IjEiIGlua3NjYXBlOndpbmRvdy13aWR0aD0iMTkyMCIgaW5rc2NhcGU6d2luZG93LXg9Ii04IiBpbmtzY2FwZTp3aW5kb3cteT0iLTgiIGlua3NjYXBlOnpvb209IjYuNTcyOTgwNCIgb2JqZWN0dG9sZXJhbmNlPSIxMCIgcGFnZWNvbG9yPSIjZmZmZmZmIiBzaG93Z3JpZD0iZmFsc2UiPiYjeGE7CTwvc29kaXBvZGk6bmFtZWR2aWV3PiYjeGE7PGcgaWQ9Imc2MzE3OSIgdHJhbnNmb3JtPSJ0cmFuc2xhdGUoMCwwLjAyOTYxNDQ3KSI+JiN4YTsJPHRpdGxlIGlkPSJ0aXRsZTYzMTY5Ij5QYWdlLTE8L3RpdGxlPiYjeGE7CTxnIGlkPSJncm91cDQ1NDktMSI+JiN4YTsJCTx0aXRsZSBpZD0idGl0bGU2MzE3MSI+SHlicmlkPC90aXRsZT4mI3hhOwkJPGcgaWQ9InNoYXBlNDU1MC0yIj4mI3hhOwkJCTx0aXRsZSBpZD0idGl0bGU2MzE3MyI+U2hlZXQuNDU1MDwvdGl0bGU+JiN4YTsJCQk8cGF0aCBpZD0icGF0aDYzMTc1IiBpbmtzY2FwZTpjb25uZWN0b3ItY3VydmF0dXJlPSIwIiBzdHlsZT0iZmlsbDojM0Y1NzY1OyIgZD0iTTQ4LjE1LDE4LjFjLTguNzgsOC41OS04Ljc4LDguNTktOC43OCw4LjU5ICAgICBjLTkuNC04LjgtOS40LTguOC05LjQtOC44YzAuMDQtNi4wNSwwLjA0LTYuMDUsMC4wNC02LjA1YzYuMDIsNS4zNyw2LjAyLDUuMzcsNi4wMiw1LjM3YzAuNC0xLjg5LTAuMzQtNC4xNy0xLjQ3LTYuMDcgICAgIGMtMy4zNy00Ljk1LTEwLjkzLTYuNTUtMTUuODgtMy4yYy00LjUxLTQuNTktNC41MS00LjU5LTQuNTEtNC41OWM5LjUxLTYuMzIsMjAuMS0zLjE3LDI1LjM0LDQuNDRjMS44OCwyLjY3LDIuOTksNi4wOCwyLjk3LDkuMTEgICAgIGM2LjEtNS4yMiw2LjEtNS4yMiw2LjEtNS4yMkw0OC4xNSwxOC4xeiBNMTMuNjQsMjMuMzhjLTEuMTItMS45LTEuODctNC4xNy0xLjg0LTYuNDRjNi4zOCw2LjUsNi4zOCw2LjUsNi4zOCw2LjUgICAgIGMwLjQzLTYuNDMsMC40My02LjQzLDAuNDMtNi40M2MtOS40LTguOC05LjQtOC44LTkuNC04LjhjLTkuMTYsOC45Ny05LjE2LDguOTctOS4xNiw4Ljk3QzAsMjMuMjMsMCwyMy4yMywwLDIzLjIzICAgICBjNS43Mi00Ljg1LDUuNzItNC44NSw1LjcyLTQuODVjLTAuMDIsMy4wMywxLjA5LDUuNjksMi45Nyw4LjM1YzUuMjQsOC4zOCwxNi4yMSwxMS4xNSwyNS43Miw0LjgzICAgICBjLTQuODgtNC45Ny00Ljg4LTQuOTctNC44OC00Ljk3QzI0LjE5LDMwLjMxLDE3LjM5LDI4LjcyLDEzLjY0LDIzLjM4eiIvPiYjeGE7CQk8L2c+JiN4YTsJPC9nPiYjeGE7PC9nPiYjeGE7PC9zdmc+;" vertex="1" parent="1">
          <mxGeometry x="374" y="577" width="49" height="35" as="geometry" />
        </mxCell>
        <mxCell id="FN3_UUnZCpq1qiRNQo3k-39" value="" style="shape=image;verticalLabelPosition=bottom;labelBackgroundColor=#ffffff;verticalAlign=top;aspect=fixed;imageAspect=0;image=data:image/svg+xml,PHN2ZyB4bWxuczpjYz0iaHR0cDovL2NyZWF0aXZlY29tbW9ucy5vcmcvbnMjIiB4bWxuczpkYz0iaHR0cDovL3B1cmwub3JnL2RjL2VsZW1lbnRzLzEuMS8iIHhtbG5zOmlua3NjYXBlPSJodHRwOi8vd3d3Lmlua3NjYXBlLm9yZy9uYW1lc3BhY2VzL2lua3NjYXBlIiB4bWxuczpyZGY9Imh0dHA6Ly93d3cudzMub3JnLzE5OTkvMDIvMjItcmRmLXN5bnRheC1ucyMiIHhtbG5zOnNvZGlwb2RpPSJodHRwOi8vc29kaXBvZGkuc291cmNlZm9yZ2UubmV0L0RURC9zb2RpcG9kaS0wLmR0ZCIgeG1sbnM6c3ZnPSJodHRwOi8vd3d3LnczLm9yZy8yMDAwL3N2ZyIgeG1sbnM9Imh0dHA6Ly93d3cudzMub3JnLzIwMDAvc3ZnIiB4bWxuczp4bGluaz0iaHR0cDovL3d3dy53My5vcmcvMTk5OS94bGluayIgdmVyc2lvbj0iMS4xIiBpZD0ic3ZnNjMxODEiIGlua3NjYXBlOnZlcnNpb249IjAuOTIuMyAoMjQwNTU0NiwgMjAxOC0wMy0xMSkiIHNvZGlwb2RpOmRvY25hbWU9Imh5YnJpZC5zdmciIHg9IjBweCIgeT0iMHB4IiB2aWV3Qm94PSIwIDAgNDguNTggMzUuMDUiIHN0eWxlPSJlbmFibGUtYmFja2dyb3VuZDpuZXcgMCAwIDQ4LjU4IDM1LjA1OyIgeG1sOnNwYWNlPSJwcmVzZXJ2ZSI+JiN4YTs8c29kaXBvZGk6bmFtZWR2aWV3IGJvcmRlcmNvbG9yPSIjNjY2NjY2IiBib3JkZXJvcGFjaXR5PSIxIiBmaXQtbWFyZ2luLWJvdHRvbT0iMCIgZml0LW1hcmdpbi1sZWZ0PSIwIiBmaXQtbWFyZ2luLXJpZ2h0PSIwIiBmaXQtbWFyZ2luLXRvcD0iMCIgZ3JpZHRvbGVyYW5jZT0iMTAiIGd1aWRldG9sZXJhbmNlPSIxMCIgaWQ9Im5hbWVkdmlldzYzMTgzIiBpbmtzY2FwZTpjdXJyZW50LWxheWVyPSJzdmc2MzE4MSIgaW5rc2NhcGU6Y3g9IjI3Ljg3NzQ4NCIgaW5rc2NhcGU6Y3k9IjEyLjEzNTE1NiIgaW5rc2NhcGU6cGFnZW9wYWNpdHk9IjAiIGlua3NjYXBlOnBhZ2VzaGFkb3c9IjIiIGlua3NjYXBlOndpbmRvdy1oZWlnaHQ9IjEwMTciIGlua3NjYXBlOndpbmRvdy1tYXhpbWl6ZWQ9IjEiIGlua3NjYXBlOndpbmRvdy13aWR0aD0iMTkyMCIgaW5rc2NhcGU6d2luZG93LXg9Ii04IiBpbmtzY2FwZTp3aW5kb3cteT0iLTgiIGlua3NjYXBlOnpvb209IjYuNTcyOTgwNCIgb2JqZWN0dG9sZXJhbmNlPSIxMCIgcGFnZWNvbG9yPSIjZmZmZmZmIiBzaG93Z3JpZD0iZmFsc2UiPiYjeGE7CTwvc29kaXBvZGk6bmFtZWR2aWV3PiYjeGE7PGcgaWQ9Imc2MzE3OSIgdHJhbnNmb3JtPSJ0cmFuc2xhdGUoMCwwLjAyOTYxNDQ3KSI+JiN4YTsJPHRpdGxlIGlkPSJ0aXRsZTYzMTY5Ij5QYWdlLTE8L3RpdGxlPiYjeGE7CTxnIGlkPSJncm91cDQ1NDktMSI+JiN4YTsJCTx0aXRsZSBpZD0idGl0bGU2MzE3MSI+SHlicmlkPC90aXRsZT4mI3hhOwkJPGcgaWQ9InNoYXBlNDU1MC0yIj4mI3hhOwkJCTx0aXRsZSBpZD0idGl0bGU2MzE3MyI+U2hlZXQuNDU1MDwvdGl0bGU+JiN4YTsJCQk8cGF0aCBpZD0icGF0aDYzMTc1IiBpbmtzY2FwZTpjb25uZWN0b3ItY3VydmF0dXJlPSIwIiBzdHlsZT0iZmlsbDojM0Y1NzY1OyIgZD0iTTQ4LjE1LDE4LjFjLTguNzgsOC41OS04Ljc4LDguNTktOC43OCw4LjU5ICAgICBjLTkuNC04LjgtOS40LTguOC05LjQtOC44YzAuMDQtNi4wNSwwLjA0LTYuMDUsMC4wNC02LjA1YzYuMDIsNS4zNyw2LjAyLDUuMzcsNi4wMiw1LjM3YzAuNC0xLjg5LTAuMzQtNC4xNy0xLjQ3LTYuMDcgICAgIGMtMy4zNy00Ljk1LTEwLjkzLTYuNTUtMTUuODgtMy4yYy00LjUxLTQuNTktNC41MS00LjU5LTQuNTEtNC41OWM5LjUxLTYuMzIsMjAuMS0zLjE3LDI1LjM0LDQuNDRjMS44OCwyLjY3LDIuOTksNi4wOCwyLjk3LDkuMTEgICAgIGM2LjEtNS4yMiw2LjEtNS4yMiw2LjEtNS4yMkw0OC4xNSwxOC4xeiBNMTMuNjQsMjMuMzhjLTEuMTItMS45LTEuODctNC4xNy0xLjg0LTYuNDRjNi4zOCw2LjUsNi4zOCw2LjUsNi4zOCw2LjUgICAgIGMwLjQzLTYuNDMsMC40My02LjQzLDAuNDMtNi40M2MtOS40LTguOC05LjQtOC44LTkuNC04LjhjLTkuMTYsOC45Ny05LjE2LDguOTctOS4xNiw4Ljk3QzAsMjMuMjMsMCwyMy4yMywwLDIzLjIzICAgICBjNS43Mi00Ljg1LDUuNzItNC44NSw1LjcyLTQuODVjLTAuMDIsMy4wMywxLjA5LDUuNjksMi45Nyw4LjM1YzUuMjQsOC4zOCwxNi4yMSwxMS4xNSwyNS43Miw0LjgzICAgICBjLTQuODgtNC45Ny00Ljg4LTQuOTctNC44OC00Ljk3QzI0LjE5LDMwLjMxLDE3LjM5LDI4LjcyLDEzLjY0LDIzLjM4eiIvPiYjeGE7CQk8L2c+JiN4YTsJPC9nPiYjeGE7PC9nPiYjeGE7PC9zdmc+;" vertex="1" parent="1">
          <mxGeometry x="370" y="422" width="49" height="35" as="geometry" />
        </mxCell>
        <mxCell id="FN3_UUnZCpq1qiRNQo3k-40" value="" style="shape=image;verticalLabelPosition=bottom;labelBackgroundColor=#ffffff;verticalAlign=top;aspect=fixed;imageAspect=0;image=data:image/svg+xml,PHN2ZyB4bWxuczpjYz0iaHR0cDovL2NyZWF0aXZlY29tbW9ucy5vcmcvbnMjIiB4bWxuczpkYz0iaHR0cDovL3B1cmwub3JnL2RjL2VsZW1lbnRzLzEuMS8iIHhtbG5zOmlua3NjYXBlPSJodHRwOi8vd3d3Lmlua3NjYXBlLm9yZy9uYW1lc3BhY2VzL2lua3NjYXBlIiB4bWxuczpyZGY9Imh0dHA6Ly93d3cudzMub3JnLzE5OTkvMDIvMjItcmRmLXN5bnRheC1ucyMiIHhtbG5zOnNvZGlwb2RpPSJodHRwOi8vc29kaXBvZGkuc291cmNlZm9yZ2UubmV0L0RURC9zb2RpcG9kaS0wLmR0ZCIgeG1sbnM6c3ZnPSJodHRwOi8vd3d3LnczLm9yZy8yMDAwL3N2ZyIgeG1sbnM9Imh0dHA6Ly93d3cudzMub3JnLzIwMDAvc3ZnIiB4bWxuczp4bGluaz0iaHR0cDovL3d3dy53My5vcmcvMTk5OS94bGluayIgdmVyc2lvbj0iMS4xIiBpZD0ic3ZnNjMxODEiIGlua3NjYXBlOnZlcnNpb249IjAuOTIuMyAoMjQwNTU0NiwgMjAxOC0wMy0xMSkiIHNvZGlwb2RpOmRvY25hbWU9Imh5YnJpZC5zdmciIHg9IjBweCIgeT0iMHB4IiB2aWV3Qm94PSIwIDAgNDguNTggMzUuMDUiIHN0eWxlPSJlbmFibGUtYmFja2dyb3VuZDpuZXcgMCAwIDQ4LjU4IDM1LjA1OyIgeG1sOnNwYWNlPSJwcmVzZXJ2ZSI+JiN4YTs8c29kaXBvZGk6bmFtZWR2aWV3IGJvcmRlcmNvbG9yPSIjNjY2NjY2IiBib3JkZXJvcGFjaXR5PSIxIiBmaXQtbWFyZ2luLWJvdHRvbT0iMCIgZml0LW1hcmdpbi1sZWZ0PSIwIiBmaXQtbWFyZ2luLXJpZ2h0PSIwIiBmaXQtbWFyZ2luLXRvcD0iMCIgZ3JpZHRvbGVyYW5jZT0iMTAiIGd1aWRldG9sZXJhbmNlPSIxMCIgaWQ9Im5hbWVkdmlldzYzMTgzIiBpbmtzY2FwZTpjdXJyZW50LWxheWVyPSJzdmc2MzE4MSIgaW5rc2NhcGU6Y3g9IjI3Ljg3NzQ4NCIgaW5rc2NhcGU6Y3k9IjEyLjEzNTE1NiIgaW5rc2NhcGU6cGFnZW9wYWNpdHk9IjAiIGlua3NjYXBlOnBhZ2VzaGFkb3c9IjIiIGlua3NjYXBlOndpbmRvdy1oZWlnaHQ9IjEwMTciIGlua3NjYXBlOndpbmRvdy1tYXhpbWl6ZWQ9IjEiIGlua3NjYXBlOndpbmRvdy13aWR0aD0iMTkyMCIgaW5rc2NhcGU6d2luZG93LXg9Ii04IiBpbmtzY2FwZTp3aW5kb3cteT0iLTgiIGlua3NjYXBlOnpvb209IjYuNTcyOTgwNCIgb2JqZWN0dG9sZXJhbmNlPSIxMCIgcGFnZWNvbG9yPSIjZmZmZmZmIiBzaG93Z3JpZD0iZmFsc2UiPiYjeGE7CTwvc29kaXBvZGk6bmFtZWR2aWV3PiYjeGE7PGcgaWQ9Imc2MzE3OSIgdHJhbnNmb3JtPSJ0cmFuc2xhdGUoMCwwLjAyOTYxNDQ3KSI+JiN4YTsJPHRpdGxlIGlkPSJ0aXRsZTYzMTY5Ij5QYWdlLTE8L3RpdGxlPiYjeGE7CTxnIGlkPSJncm91cDQ1NDktMSI+JiN4YTsJCTx0aXRsZSBpZD0idGl0bGU2MzE3MSI+SHlicmlkPC90aXRsZT4mI3hhOwkJPGcgaWQ9InNoYXBlNDU1MC0yIj4mI3hhOwkJCTx0aXRsZSBpZD0idGl0bGU2MzE3MyI+U2hlZXQuNDU1MDwvdGl0bGU+JiN4YTsJCQk8cGF0aCBpZD0icGF0aDYzMTc1IiBpbmtzY2FwZTpjb25uZWN0b3ItY3VydmF0dXJlPSIwIiBzdHlsZT0iZmlsbDojM0Y1NzY1OyIgZD0iTTQ4LjE1LDE4LjFjLTguNzgsOC41OS04Ljc4LDguNTktOC43OCw4LjU5ICAgICBjLTkuNC04LjgtOS40LTguOC05LjQtOC44YzAuMDQtNi4wNSwwLjA0LTYuMDUsMC4wNC02LjA1YzYuMDIsNS4zNyw2LjAyLDUuMzcsNi4wMiw1LjM3YzAuNC0xLjg5LTAuMzQtNC4xNy0xLjQ3LTYuMDcgICAgIGMtMy4zNy00Ljk1LTEwLjkzLTYuNTUtMTUuODgtMy4yYy00LjUxLTQuNTktNC41MS00LjU5LTQuNTEtNC41OWM5LjUxLTYuMzIsMjAuMS0zLjE3LDI1LjM0LDQuNDRjMS44OCwyLjY3LDIuOTksNi4wOCwyLjk3LDkuMTEgICAgIGM2LjEtNS4yMiw2LjEtNS4yMiw2LjEtNS4yMkw0OC4xNSwxOC4xeiBNMTMuNjQsMjMuMzhjLTEuMTItMS45LTEuODctNC4xNy0xLjg0LTYuNDRjNi4zOCw2LjUsNi4zOCw2LjUsNi4zOCw2LjUgICAgIGMwLjQzLTYuNDMsMC40My02LjQzLDAuNDMtNi40M2MtOS40LTguOC05LjQtOC44LTkuNC04LjhjLTkuMTYsOC45Ny05LjE2LDguOTctOS4xNiw4Ljk3QzAsMjMuMjMsMCwyMy4yMywwLDIzLjIzICAgICBjNS43Mi00Ljg1LDUuNzItNC44NSw1LjcyLTQuODVjLTAuMDIsMy4wMywxLjA5LDUuNjksMi45Nyw4LjM1YzUuMjQsOC4zOCwxNi4yMSwxMS4xNSwyNS43Miw0LjgzICAgICBjLTQuODgtNC45Ny00Ljg4LTQuOTctNC44OC00Ljk3QzI0LjE5LDMwLjMxLDE3LjM5LDI4LjcyLDEzLjY0LDIzLjM4eiIvPiYjeGE7CQk8L2c+JiN4YTsJPC9nPiYjeGE7PC9nPiYjeGE7PC9zdmc+;" vertex="1" parent="1">
          <mxGeometry x="503.08" y="275.5" width="49" height="35" as="geometry" />
        </mxCell>
        <mxCell id="FN3_UUnZCpq1qiRNQo3k-41" value="" style="shape=image;verticalLabelPosition=bottom;labelBackgroundColor=#ffffff;verticalAlign=top;aspect=fixed;imageAspect=0;image=data:image/svg+xml,PHN2ZyB4bWxuczpjYz0iaHR0cDovL2NyZWF0aXZlY29tbW9ucy5vcmcvbnMjIiB4bWxuczpkYz0iaHR0cDovL3B1cmwub3JnL2RjL2VsZW1lbnRzLzEuMS8iIHhtbG5zOmlua3NjYXBlPSJodHRwOi8vd3d3Lmlua3NjYXBlLm9yZy9uYW1lc3BhY2VzL2lua3NjYXBlIiB4bWxuczpyZGY9Imh0dHA6Ly93d3cudzMub3JnLzE5OTkvMDIvMjItcmRmLXN5bnRheC1ucyMiIHhtbG5zOnNvZGlwb2RpPSJodHRwOi8vc29kaXBvZGkuc291cmNlZm9yZ2UubmV0L0RURC9zb2RpcG9kaS0wLmR0ZCIgeG1sbnM6c3ZnPSJodHRwOi8vd3d3LnczLm9yZy8yMDAwL3N2ZyIgeG1sbnM9Imh0dHA6Ly93d3cudzMub3JnLzIwMDAvc3ZnIiB4bWxuczp4bGluaz0iaHR0cDovL3d3dy53My5vcmcvMTk5OS94bGluayIgdmVyc2lvbj0iMS4xIiBpZD0ic3ZnNTc1ODIiIGlua3NjYXBlOnZlcnNpb249IjAuOTIuMyAoMjQwNTU0NiwgMjAxOC0wMy0xMSkiIHNvZGlwb2RpOmRvY25hbWU9ImFmZmlsaWF0ZV9wdWJsaXNoZXIuc3ZnIiB4PSIwcHgiIHk9IjBweCIgdmlld0JveD0iMCAwIDgwLjE5IDc0LjE0IiBzdHlsZT0iZW5hYmxlLWJhY2tncm91bmQ6bmV3IDAgMCA4MC4xOSA3NC4xNDsiIHhtbDpzcGFjZT0icHJlc2VydmUiPiYjeGE7PHNvZGlwb2RpOm5hbWVkdmlldyBib3JkZXJjb2xvcj0iIzY2NjY2NiIgYm9yZGVyb3BhY2l0eT0iMSIgZml0LW1hcmdpbi1ib3R0b209IjAiIGZpdC1tYXJnaW4tbGVmdD0iMCIgZml0LW1hcmdpbi1yaWdodD0iMCIgZml0LW1hcmdpbi10b3A9IjAiIGdyaWR0b2xlcmFuY2U9IjEwIiBndWlkZXRvbGVyYW5jZT0iMTAiIGlkPSJuYW1lZHZpZXc1NzU4NCIgaW5rc2NhcGU6Y3VycmVudC1sYXllcj0ic3ZnNTc1ODIiIGlua3NjYXBlOmN4PSI1My40NjI0MDIiIGlua3NjYXBlOmN5PSI0OS40Mjg5NTEiIGlua3NjYXBlOnBhZ2VvcGFjaXR5PSIwIiBpbmtzY2FwZTpwYWdlc2hhZG93PSIyIiBpbmtzY2FwZTp3aW5kb3ctaGVpZ2h0PSIxMDE3IiBpbmtzY2FwZTp3aW5kb3ctbWF4aW1pemVkPSIxIiBpbmtzY2FwZTp3aW5kb3ctd2lkdGg9IjE5MjAiIGlua3NjYXBlOndpbmRvdy14PSItOCIgaW5rc2NhcGU6d2luZG93LXk9Ii04IiBpbmtzY2FwZTp6b29tPSI4Ljc3MTAxNCIgb2JqZWN0dG9sZXJhbmNlPSIxMCIgcGFnZWNvbG9yPSIjZmZmZmZmIiBzaG93Z3JpZD0iZmFsc2UiPiYjeGE7CTwvc29kaXBvZGk6bmFtZWR2aWV3PiYjeGE7PGcgaWQ9Imc1NzU4MCIgdHJhbnNmb3JtPSJ0cmFuc2xhdGUoMCwtMS4wNzA0NzU3ZS00KSI+JiN4YTsJPHRpdGxlIGlkPSJ0aXRsZTU3NTczIj5QYWdlLTE8L3RpdGxlPiYjeGE7CTxnIGlkPSJzaGFwZTU0ODUtMSI+JiN4YTsJCTx0aXRsZSBpZD0idGl0bGU1NzU3NSI+QWZmaWxpYXRlIFB1Ymxpc2hlcjwvdGl0bGU+JiN4YTsJCTxwYXRoIGlkPSJwYXRoNTc1NzciIGlua3NjYXBlOmNvbm5lY3Rvci1jdXJ2YXR1cmU9IjAiIHN0eWxlPSJmaWxsOiMzRjU3NjU7IiBkPSJNNjIuMzMsMjAuMTRjMCwwLDAuMTEsMCwxMy44NSwwICAgIGMyLjIyLDAsNC4wMSwxLjk2LDQuMDEsNC4zM2MwLDAsMCwwLjE1LDAsMjAuNDFjMCwyLjM3LTEuNzksNC4zMy00LjAxLDQuMzNjMCwwLDAsMC4xMSwwLDE0LjU1YzAsMi4zNy0xLjgsNC4zMy00LjAyLDQuMzMgICAgYzAsMC0wLjA0LDAtNi4wMSwwYy0yLjAzLDAtMy44Mi0xLjk2LTMuODItNC4zM2MwLDAsMC0wLjEyLDAtMTQuNTVjLTIuMjIsMC00LjAyLTEuOTYtNC4wMi00LjMzYzAsMCwwLTAuMTUsMC0yMC40MSAgICBDNTguMzEsMjIuMSw2MC4xMSwyMC4xNCw2Mi4zMywyMC4xNHogTTQuMDIsMjAuMTRjMCwwLDAuMDcsMCwxMy44MSwwYzIuMTgsMCwzLjk4LDEuOTYsMy45OCw0LjMzYzAsMCwwLDAuMDgsMCwyMC40MSAgICBjMCwyLjM3LTEuOCw0LjMzLTMuOTgsNC4zM2MwLDAsMCwwLjA3LDAsMTQuNTVjMCwyLjM3LTEuOCw0LjMzLTMuNzksNC4zM2MwLDAtMC4wNywwLTYuMDEsMGMtMi4yMSwwLTQuMDEtMS45Ni00LjAxLTQuMzMgICAgYzAsMCwwLTAuMDgsMC0xNC41NUMxLjg0LDQ5LjIxLDAsNDcuMjUsMCw0NC44OGMwLDAsMC0wLjA4LDAtMjAuNDFDMCwyMi4xLDEuODQsMjAuMTQsNC4wMiwyMC4xNHogTTMyLjA2LDE4LjE5ICAgIGMwLDAsMC4xNiwwLDE2LjA3LDBjMi42NCwwLDQuODIsMi40MSw0LjgyLDUuMjFjMCwwLDAsMC4xNSwwLDIzLjY2YzAsMi44LTIuMTgsNS4yMS00LjgyLDUuMjFjMCwwLDAsMC4xMiwwLDE2LjcgICAgYzAsMi43OS0xLjk5LDUuMTctNC41OSw1LjE3YzAsMC0wLjA4LDAtNi44NSwwYy0yLjYsMC00LjYzLTIuMzgtNC42My01LjE3YzAsMCwwLTAuMTYsMC0xNi43Yy0yLjYsMC00LjgyLTIuNDEtNC44Mi01LjIxICAgIGMwLDAsMC0wLjE1LDAtMjMuNjZDMjcuMjQsMjAuNiwyOS40NiwxOC4xOSwzMi4wNiwxOC4xOXogTTY5LjI1LDQuNTJjMy42NCwwLDYuNTQsMy4yMiw2LjU0LDcuMTZzLTIuOSw3LjE2LTYuNTQsNy4xNiAgICBjLTMuNiwwLTYuNS0zLjIyLTYuNS03LjE2UzY1LjY1LDQuNTIsNjkuMjUsNC41MnogTTEwLjksNC41MmMzLjYsMCw2LjUxLDMuMjIsNi41MSw3LjE2cy0yLjkxLDcuMTYtNi41MSw3LjE2ICAgIGMtMy41NSwwLTYuNDYtMy4yMi02LjQ2LTcuMTZTNy4zNSw0LjUyLDEwLjksNC41MnogTTQwLjA2LDBjNC4yNSwwLDcuNjUsMy43NSw3LjY1LDguMzVjMCw0LjU1LTMuNCw4LjMxLTcuNjUsOC4zMSAgICBjLTQuMjEsMC03LjYyLTMuNzYtNy42Mi04LjMxQzMyLjQ0LDMuNzUsMzUuODUsMCw0MC4wNiwweiIvPiYjeGE7CTwvZz4mI3hhOzwvZz4mI3hhOzwvc3ZnPg==;" vertex="1" parent="1">
          <mxGeometry x="529.19" y="564" width="21.62" height="20" as="geometry" />
        </mxCell>
        <mxCell id="FN3_UUnZCpq1qiRNQo3k-42" value="rpc + geth" style="text;html=1;resizable=0;autosize=1;align=center;verticalAlign=middle;points=[];fillColor=none;strokeColor=none;rounded=0;" vertex="1" parent="1">
          <mxGeometry x="505.00000000000006" y="600" width="70" height="20" as="geometry" />
        </mxCell>
        <mxCell id="FN3_UUnZCpq1qiRNQo3k-43" value="" style="shape=image;verticalLabelPosition=bottom;labelBackgroundColor=#ffffff;verticalAlign=top;aspect=fixed;imageAspect=0;image=data:image/svg+xml,PHN2ZyB4bWxuczpjYz0iaHR0cDovL2NyZWF0aXZlY29tbW9ucy5vcmcvbnMjIiB4bWxuczpkYz0iaHR0cDovL3B1cmwub3JnL2RjL2VsZW1lbnRzLzEuMS8iIHhtbG5zOmlua3NjYXBlPSJodHRwOi8vd3d3Lmlua3NjYXBlLm9yZy9uYW1lc3BhY2VzL2lua3NjYXBlIiB4bWxuczpyZGY9Imh0dHA6Ly93d3cudzMub3JnLzE5OTkvMDIvMjItcmRmLXN5bnRheC1ucyMiIHhtbG5zOnNvZGlwb2RpPSJodHRwOi8vc29kaXBvZGkuc291cmNlZm9yZ2UubmV0L0RURC9zb2RpcG9kaS0wLmR0ZCIgeG1sbnM6c3ZnPSJodHRwOi8vd3d3LnczLm9yZy8yMDAwL3N2ZyIgeG1sbnM9Imh0dHA6Ly93d3cudzMub3JnLzIwMDAvc3ZnIiB4bWxuczp4bGluaz0iaHR0cDovL3d3dy53My5vcmcvMTk5OS94bGluayIgdmVyc2lvbj0iMS4xIiBpZD0ic3ZnNDQyMDQiIGlua3NjYXBlOnZlcnNpb249IjAuOTIuMyAoMjQwNTU0NiwgMjAxOC0wMy0xMSkiIHNvZGlwb2RpOmRvY25hbWU9ImNvbm5lY3Quc3ZnIiB4PSIwcHgiIHk9IjBweCIgdmlld0JveD0iMCAwIDI1LjEzIDI4LjYzIiBzdHlsZT0iZW5hYmxlLWJhY2tncm91bmQ6bmV3IDAgMCAyNS4xMyAyOC42MzsiIHhtbDpzcGFjZT0icHJlc2VydmUiPiYjeGE7PHNvZGlwb2RpOm5hbWVkdmlldyBib3JkZXJjb2xvcj0iIzY2NjY2NiIgYm9yZGVyb3BhY2l0eT0iMSIgZml0LW1hcmdpbi1ib3R0b209IjAiIGZpdC1tYXJnaW4tbGVmdD0iMCIgZml0LW1hcmdpbi1yaWdodD0iMCIgZml0LW1hcmdpbi10b3A9IjAiIGdyaWR0b2xlcmFuY2U9IjEwIiBndWlkZXRvbGVyYW5jZT0iMTAiIGlkPSJuYW1lZHZpZXc0NDIwNiIgaW5rc2NhcGU6Y3VycmVudC1sYXllcj0ic3ZnNDQyMDQiIGlua3NjYXBlOmN4PSItOS4wNzEwMzU4IiBpbmtzY2FwZTpjeT0iLTEwLjM2NTcwMyIgaW5rc2NhcGU6cGFnZW9wYWNpdHk9IjAiIGlua3NjYXBlOnBhZ2VzaGFkb3c9IjIiIGlua3NjYXBlOndpbmRvdy1oZWlnaHQ9IjEwMTciIGlua3NjYXBlOndpbmRvdy1tYXhpbWl6ZWQ9IjEiIGlua3NjYXBlOndpbmRvdy13aWR0aD0iMTkyMCIgaW5rc2NhcGU6d2luZG93LXg9Ii04IiBpbmtzY2FwZTp3aW5kb3cteT0iLTgiIGlua3NjYXBlOnpvb209IjUuNjA4MTYyMyIgb2JqZWN0dG9sZXJhbmNlPSIxMCIgcGFnZWNvbG9yPSIjZmZmZmZmIiBzaG93Z3JpZD0iZmFsc2UiPiYjeGE7CTwvc29kaXBvZGk6bmFtZWR2aWV3PiYjeGE7PGcgaWQ9Imc0NDIwMiIgdHJhbnNmb3JtPSJ0cmFuc2xhdGUoLTAuMTc2MDg3MTMsLTAuMTc5NzI3KSI+JiN4YTsJPHRpdGxlIGlkPSJ0aXRsZTQ0MTgwIj5QYWdlLTE8L3RpdGxlPiYjeGE7CTxnIGlkPSJncm91cDg1MS0xIiB0cmFuc2Zvcm09InRyYW5zbGF0ZSgwLjE3NjA3MiwtMC4xODA5NzMpIj4mI3hhOwkJPHRpdGxlIGlkPSJ0aXRsZTQ0MTgyIj5Db25uZWN0PC90aXRsZT4mI3hhOwkJPGcgaWQ9InNoYXBlODUyLTIiIHRyYW5zZm9ybT0idHJhbnNsYXRlKDEuNzc0MjYsLTEzLjQyOTMpIj4mI3hhOwkJCTx0aXRsZSBpZD0idGl0bGU0NDE4NCI+U2hlZXQuODUyPC90aXRsZT4mI3hhOwkJCTxwYXRoIGlkPSJwYXRoNDQxODYiIGlua3NjYXBlOmNvbm5lY3Rvci1jdXJ2YXR1cmU9IjAiIHN0eWxlPSJmaWxsOiMzRjU3NjU7IiBkPSJNMTUuODcsMjguOTlsNy40OS03LjU1bC03LjQ5LTcuNjVoLTQuODUgICAgIGw1LjcsNS44OEgwdjMuNjRoMTYuNzJsLTUuNyw1LjY4TDE1Ljg3LDI4Ljk5eiIvPiYjeGE7CQk8L2c+JiN4YTsJCTxnIGlkPSJzaGFwZTg1My00Ij4mI3hhOwkJCTx0aXRsZSBpZD0idGl0bGU0NDE4OSI+U2hlZXQuODUzPC90aXRsZT4mI3hhOwkJCTxwYXRoIGlkPSJwYXRoNDQxOTEiIGlua3NjYXBlOmNvbm5lY3Rvci1jdXJ2YXR1cmU9IjAiIHN0eWxlPSJmaWxsOiM5OTZEQUQ7IiBkPSJNNy4yOCwxMy45M0wwLDIxLjM3bDcuMjgsNy42Mmg0LjgzbC01LjM5LTUuNzcgICAgIGgxNi4zNXYtMy43MUg2LjcybDUuMzktNS41OEg3LjI4eiIvPiYjeGE7CQk8L2c+JiN4YTsJCTxnIGlkPSJzaGFwZTg1NC02IiB0cmFuc2Zvcm09InRyYW5zbGF0ZSgwLjA3MzkyNzYsLTAuMDY5MDI3MSkiPiYjeGE7CQkJPHRpdGxlIGlkPSJ0aXRsZTQ0MTk0Ij5TaGVldC44NTQ8L3RpdGxlPiYjeGE7CQkJPHJlY3QgaWQ9InJlY3Q0NDE5NiIgeD0iMCIgeT0iMC41IiBzdHlsZT0iZGlzcGxheTpub25lO2ZpbGw6IzNGNTc2NTsiIHdpZHRoPSIyNSIgaGVpZ2h0PSIyOC40OSIvPiYjeGE7CQkJPHJlY3QgaWQ9InJlY3Q0NDE5OCIgeD0iMCIgeT0iMC41IiBzdHlsZT0iZmlsbDpub25lOyIgd2lkdGg9IjI1IiBoZWlnaHQ9IjI4LjQ5Ii8+JiN4YTsJCTwvZz4mI3hhOwk8L2c+JiN4YTs8L2c+JiN4YTs8L3N2Zz4=;direction=south;" vertex="1" parent="1">
          <mxGeometry x="438.01" y="352.5" width="48.14" height="41.5" as="geometry" />
        </mxCell>
        <mxCell id="FN3_UUnZCpq1qiRNQo3k-44" value="" style="shape=image;verticalLabelPosition=bottom;labelBackgroundColor=#ffffff;verticalAlign=top;aspect=fixed;imageAspect=0;image=data:image/svg+xml,PHN2ZyB4bWxuczpjYz0iaHR0cDovL2NyZWF0aXZlY29tbW9ucy5vcmcvbnMjIiB4bWxuczpkYz0iaHR0cDovL3B1cmwub3JnL2RjL2VsZW1lbnRzLzEuMS8iIHhtbG5zOmlua3NjYXBlPSJodHRwOi8vd3d3Lmlua3NjYXBlLm9yZy9uYW1lc3BhY2VzL2lua3NjYXBlIiB4bWxuczpyZGY9Imh0dHA6Ly93d3cudzMub3JnLzE5OTkvMDIvMjItcmRmLXN5bnRheC1ucyMiIHhtbG5zOnNvZGlwb2RpPSJodHRwOi8vc29kaXBvZGkuc291cmNlZm9yZ2UubmV0L0RURC9zb2RpcG9kaS0wLmR0ZCIgeG1sbnM6c3ZnPSJodHRwOi8vd3d3LnczLm9yZy8yMDAwL3N2ZyIgeG1sbnM9Imh0dHA6Ly93d3cudzMub3JnLzIwMDAvc3ZnIiB4bWxuczp4bGluaz0iaHR0cDovL3d3dy53My5vcmcvMTk5OS94bGluayIgdmVyc2lvbj0iMS4xIiBpZD0ic3ZnNDQyMDQiIGlua3NjYXBlOnZlcnNpb249IjAuOTIuMyAoMjQwNTU0NiwgMjAxOC0wMy0xMSkiIHNvZGlwb2RpOmRvY25hbWU9ImNvbm5lY3Quc3ZnIiB4PSIwcHgiIHk9IjBweCIgdmlld0JveD0iMCAwIDI1LjEzIDI4LjYzIiBzdHlsZT0iZW5hYmxlLWJhY2tncm91bmQ6bmV3IDAgMCAyNS4xMyAyOC42MzsiIHhtbDpzcGFjZT0icHJlc2VydmUiPiYjeGE7PHNvZGlwb2RpOm5hbWVkdmlldyBib3JkZXJjb2xvcj0iIzY2NjY2NiIgYm9yZGVyb3BhY2l0eT0iMSIgZml0LW1hcmdpbi1ib3R0b209IjAiIGZpdC1tYXJnaW4tbGVmdD0iMCIgZml0LW1hcmdpbi1yaWdodD0iMCIgZml0LW1hcmdpbi10b3A9IjAiIGdyaWR0b2xlcmFuY2U9IjEwIiBndWlkZXRvbGVyYW5jZT0iMTAiIGlkPSJuYW1lZHZpZXc0NDIwNiIgaW5rc2NhcGU6Y3VycmVudC1sYXllcj0ic3ZnNDQyMDQiIGlua3NjYXBlOmN4PSItOS4wNzEwMzU4IiBpbmtzY2FwZTpjeT0iLTEwLjM2NTcwMyIgaW5rc2NhcGU6cGFnZW9wYWNpdHk9IjAiIGlua3NjYXBlOnBhZ2VzaGFkb3c9IjIiIGlua3NjYXBlOndpbmRvdy1oZWlnaHQ9IjEwMTciIGlua3NjYXBlOndpbmRvdy1tYXhpbWl6ZWQ9IjEiIGlua3NjYXBlOndpbmRvdy13aWR0aD0iMTkyMCIgaW5rc2NhcGU6d2luZG93LXg9Ii04IiBpbmtzY2FwZTp3aW5kb3cteT0iLTgiIGlua3NjYXBlOnpvb209IjUuNjA4MTYyMyIgb2JqZWN0dG9sZXJhbmNlPSIxMCIgcGFnZWNvbG9yPSIjZmZmZmZmIiBzaG93Z3JpZD0iZmFsc2UiPiYjeGE7CTwvc29kaXBvZGk6bmFtZWR2aWV3PiYjeGE7PGcgaWQ9Imc0NDIwMiIgdHJhbnNmb3JtPSJ0cmFuc2xhdGUoLTAuMTc2MDg3MTMsLTAuMTc5NzI3KSI+JiN4YTsJPHRpdGxlIGlkPSJ0aXRsZTQ0MTgwIj5QYWdlLTE8L3RpdGxlPiYjeGE7CTxnIGlkPSJncm91cDg1MS0xIiB0cmFuc2Zvcm09InRyYW5zbGF0ZSgwLjE3NjA3MiwtMC4xODA5NzMpIj4mI3hhOwkJPHRpdGxlIGlkPSJ0aXRsZTQ0MTgyIj5Db25uZWN0PC90aXRsZT4mI3hhOwkJPGcgaWQ9InNoYXBlODUyLTIiIHRyYW5zZm9ybT0idHJhbnNsYXRlKDEuNzc0MjYsLTEzLjQyOTMpIj4mI3hhOwkJCTx0aXRsZSBpZD0idGl0bGU0NDE4NCI+U2hlZXQuODUyPC90aXRsZT4mI3hhOwkJCTxwYXRoIGlkPSJwYXRoNDQxODYiIGlua3NjYXBlOmNvbm5lY3Rvci1jdXJ2YXR1cmU9IjAiIHN0eWxlPSJmaWxsOiMzRjU3NjU7IiBkPSJNMTUuODcsMjguOTlsNy40OS03LjU1bC03LjQ5LTcuNjVoLTQuODUgICAgIGw1LjcsNS44OEgwdjMuNjRoMTYuNzJsLTUuNyw1LjY4TDE1Ljg3LDI4Ljk5eiIvPiYjeGE7CQk8L2c+JiN4YTsJCTxnIGlkPSJzaGFwZTg1My00Ij4mI3hhOwkJCTx0aXRsZSBpZD0idGl0bGU0NDE4OSI+U2hlZXQuODUzPC90aXRsZT4mI3hhOwkJCTxwYXRoIGlkPSJwYXRoNDQxOTEiIGlua3NjYXBlOmNvbm5lY3Rvci1jdXJ2YXR1cmU9IjAiIHN0eWxlPSJmaWxsOiM5OTZEQUQ7IiBkPSJNNy4yOCwxMy45M0wwLDIxLjM3bDcuMjgsNy42Mmg0LjgzbC01LjM5LTUuNzcgICAgIGgxNi4zNXYtMy43MUg2LjcybDUuMzktNS41OEg3LjI4eiIvPiYjeGE7CQk8L2c+JiN4YTsJCTxnIGlkPSJzaGFwZTg1NC02IiB0cmFuc2Zvcm09InRyYW5zbGF0ZSgwLjA3MzkyNzYsLTAuMDY5MDI3MSkiPiYjeGE7CQkJPHRpdGxlIGlkPSJ0aXRsZTQ0MTk0Ij5TaGVldC44NTQ8L3RpdGxlPiYjeGE7CQkJPHJlY3QgaWQ9InJlY3Q0NDE5NiIgeD0iMCIgeT0iMC41IiBzdHlsZT0iZGlzcGxheTpub25lO2ZpbGw6IzNGNTc2NTsiIHdpZHRoPSIyNSIgaGVpZ2h0PSIyOC40OSIvPiYjeGE7CQkJPHJlY3QgaWQ9InJlY3Q0NDE5OCIgeD0iMCIgeT0iMC41IiBzdHlsZT0iZmlsbDpub25lOyIgd2lkdGg9IjI1IiBoZWlnaHQ9IjI4LjQ5Ii8+JiN4YTsJCTwvZz4mI3hhOwk8L2c+JiN4YTs8L2c+JiN4YTs8L3N2Zz4=;direction=south;" vertex="1" parent="1">
          <mxGeometry x="439.01" y="498" width="48.14" height="41.5" as="geometry" />
        </mxCell>
        <mxCell id="FN3_UUnZCpq1qiRNQo3k-46" value="" style="shape=image;verticalLabelPosition=bottom;labelBackgroundColor=#ffffff;verticalAlign=top;aspect=fixed;imageAspect=0;image=data:image/svg+xml,PHN2ZyB4bWxuczpjYz0iaHR0cDovL2NyZWF0aXZlY29tbW9ucy5vcmcvbnMjIiB4bWxuczpkYz0iaHR0cDovL3B1cmwub3JnL2RjL2VsZW1lbnRzLzEuMS8iIHhtbG5zOmlua3NjYXBlPSJodHRwOi8vd3d3Lmlua3NjYXBlLm9yZy9uYW1lc3BhY2VzL2lua3NjYXBlIiB4bWxuczpyZGY9Imh0dHA6Ly93d3cudzMub3JnLzE5OTkvMDIvMjItcmRmLXN5bnRheC1ucyMiIHhtbG5zOnNvZGlwb2RpPSJodHRwOi8vc29kaXBvZGkuc291cmNlZm9yZ2UubmV0L0RURC9zb2RpcG9kaS0wLmR0ZCIgeG1sbnM6c3ZnPSJodHRwOi8vd3d3LnczLm9yZy8yMDAwL3N2ZyIgeG1sbnM9Imh0dHA6Ly93d3cudzMub3JnLzIwMDAvc3ZnIiB4bWxuczp4bGluaz0iaHR0cDovL3d3dy53My5vcmcvMTk5OS94bGluayIgdmVyc2lvbj0iMS4xIiBpZD0ic3ZnNjEzNCIgaW5rc2NhcGU6dmVyc2lvbj0iMC45Mi4zICgyNDA1NTQ2LCAyMDE4LTAzLTExKSIgc29kaXBvZGk6ZG9jbmFtZT0idmlydHVhbF9uZXR3b3JrXzEuc3ZnIiB4PSIwcHgiIHk9IjBweCIgdmlld0JveD0iMCAwIDM0LjYxIDE5Ljg1IiBzdHlsZT0iZW5hYmxlLWJhY2tncm91bmQ6bmV3IDAgMCAzNC42MSAxOS44NTsiIHhtbDpzcGFjZT0icHJlc2VydmUiPiYjeGE7PHNvZGlwb2RpOm5hbWVkdmlldyBib3JkZXJjb2xvcj0iIzY2NjY2NiIgYm9yZGVyb3BhY2l0eT0iMSIgZml0LW1hcmdpbi1ib3R0b209IjAiIGZpdC1tYXJnaW4tbGVmdD0iMCIgZml0LW1hcmdpbi1yaWdodD0iMCIgZml0LW1hcmdpbi10b3A9IjAiIGdyaWR0b2xlcmFuY2U9IjEwIiBndWlkZXRvbGVyYW5jZT0iMTAiIGlkPSJuYW1lZHZpZXc2MTM2IiBpbmtzY2FwZTpjdXJyZW50LWxheWVyPSJzdmc2MTM0IiBpbmtzY2FwZTpjeD0iMjMuMDc1MjcxIiBpbmtzY2FwZTpjeT0iMTMuMjMyNTUiIGlua3NjYXBlOnBhZ2VvcGFjaXR5PSIwIiBpbmtzY2FwZTpwYWdlc2hhZG93PSIyIiBpbmtzY2FwZTp3aW5kb3ctaGVpZ2h0PSIxMDE3IiBpbmtzY2FwZTp3aW5kb3ctbWF4aW1pemVkPSIxIiBpbmtzY2FwZTp3aW5kb3ctd2lkdGg9IjE5MjAiIGlua3NjYXBlOndpbmRvdy14PSItOCIgaW5rc2NhcGU6d2luZG93LXk9Ii04IiBpbmtzY2FwZTp6b29tPSIxNC42Njg5NzgiIG9iamVjdHRvbGVyYW5jZT0iMTAiIHBhZ2Vjb2xvcj0iI2ZmZmZmZiIgc2hvd2dyaWQ9ImZhbHNlIj4mI3hhOwk8L3NvZGlwb2RpOm5hbWVkdmlldz4mI3hhOzxnIGlkPSJnNjEzMiIgdHJhbnNmb3JtPSJ0cmFuc2xhdGUoLTEyLjI0MTQ2MSwtMTIuMjM5MSkiPiYjeGE7CTx0aXRsZSBpZD0idGl0bGU2MTAyIj5QYWdlLTE8L3RpdGxlPiYjeGE7CTxnIGlkPSJncm91cDk1MDctMSIgdHJhbnNmb3JtPSJ0cmFuc2xhdGUoMTIuMTI4NCwtMTIuMTI4NCkiPiYjeGE7CQk8dGl0bGUgaWQ9InRpdGxlNjEwNCI+VmlydHVhbCBOZXR3b3JrICMxPC90aXRsZT4mI3hhOwkJPGcgaWQ9InNoYXBlOTUwOC0yIiB0cmFuc2Zvcm09InRyYW5zbGF0ZSgyMy43MDk5KSI+JiN4YTsJCQk8dGl0bGUgaWQ9InRpdGxlNjEwNiI+U2hlZXQuOTUwODwvdGl0bGU+JiN4YTsJCQk8cGF0aCBpZD0icGF0aDYxMDgiIGlua3NjYXBlOmNvbm5lY3Rvci1jdXJ2YXR1cmU9IjAiIHN0eWxlPSJmaWxsOiMzOTk5QzY7IiBkPSJNMTAuNzgsMzQuNzljMC4zNS0wLjM1LDAuMjgtMC45LDAtMS4yNSAgICAgbC0xLjY2LTEuNjVsLTcuNDYtNy4yNmMtMC4zNS0wLjM1LTAuODMtMC4zNS0xLjE4LDBjLTAuMzQsMC4zNC0wLjQxLDAuOSwwLDEuMjRsNy44Miw3LjY3YzAuMzQsMC4zNSwwLjM0LDAuOSwwLDEuMjVsLTcuOTUsNy45NSAgICAgYy0wLjM1LDAuMzQtMC4zNSwwLjksMCwxLjI0YzAuMzQsMC4zNSwwLjg5LDAuMjgsMS4xNywwbDcuNC03LjMyYzAsMCwwLDAsMC4wNy0wLjA3TDEwLjc4LDM0Ljc5eiIvPiYjeGE7CQk8L2c+JiN4YTsJCTxnIGlkPSJzaGFwZTk1MDktNCI+JiN4YTsJCQk8dGl0bGUgaWQ9InRpdGxlNjExMSI+U2hlZXQuOTUwOTwvdGl0bGU+JiN4YTsJCQk8cGF0aCBpZD0icGF0aDYxMTMiIGlua3NjYXBlOmNvbm5lY3Rvci1jdXJ2YXR1cmU9IjAiIHN0eWxlPSJmaWxsOiMzOTk5QzY7IiBkPSJNMC4zNSwzNC43OWMtMC4zNS0wLjM1LTAuMjgtMC45LDAtMS4yNUwyLDMxLjg5ICAgICBsNy40Ny03LjI2YzAuMzUtMC4zNSwwLjgzLTAuMzUsMS4xOCwwYzAuMzQsMC4zNCwwLjQxLDAuOSwwLDEuMjRsLTcuNjgsNy42N2MtMC4zNCwwLjM1LTAuMzQsMC45LDAsMS4yNWw3LjgxLDcuOTUgICAgIGMwLjM1LDAuMzQsMC4zNSwwLjksMCwxLjI0Yy0wLjM0LDAuMzUtMC45LDAuMjgtMS4xNywwbC03LjU0LTcuMjZjMCwwLDAsMC0wLjA3LTAuMDZMMC4zNSwzNC43OXoiLz4mI3hhOwkJPC9nPiYjeGE7CQk8ZyBpZD0ic2hhcGU5NTEwLTYiIHRyYW5zZm9ybT0idHJhbnNsYXRlKDguMDE4NTEsLTcuODgwMjYpIj4mI3hhOwkJCTx0aXRsZSBpZD0idGl0bGU2MTE2Ij5TaGVldC45NTEwPC90aXRsZT4mI3hhOwkJCTxwYXRoIGlkPSJwYXRoNjExOCIgaW5rc2NhcGU6Y29ubmVjdG9yLWN1cnZhdHVyZT0iMCIgc3R5bGU9ImZpbGw6IzdGQkEwMDsiIGQ9Ik00LjcsNDIuMDVjMCwxLjMxLTEuMTEsMi4yOC0yLjI4LDIuMjggICAgIEMxLjI0LDQ0LjMzLDAsNDMuMjIsMCw0Mi4wNWMwLTEuMTgsMC45Ny0yLjI4LDIuNDItMi4yOEMzLjgsMzkuNzcsNC43LDQwLjg3LDQuNyw0Mi4wNXoiLz4mI3hhOwkJPC9nPiYjeGE7CQk8ZyBpZD0ic2hhcGU5NTExLTgiIHRyYW5zZm9ybT0idHJhbnNsYXRlKDE1LjAwMDEsLTcuODgwMjYpIj4mI3hhOwkJCTx0aXRsZSBpZD0idGl0bGU2MTIxIj5TaGVldC45NTExPC90aXRsZT4mI3hhOwkJCTxwYXRoIGlkPSJwYXRoNjEyMyIgaW5rc2NhcGU6Y29ubmVjdG9yLWN1cnZhdHVyZT0iMCIgc3R5bGU9ImZpbGw6IzdGQkEwMDsiIGQ9Ik00LjcsNDIuMDVjMCwxLjMxLTEuMTEsMi4yOC0yLjI4LDIuMjggICAgIEMxLjI0LDQ0LjMzLDAsNDMuMjIsMCw0Mi4wNWMwLTEuMTgsMS4xMS0yLjI4LDIuNDItMi4yOFM0LjcsNDAuODcsNC43LDQyLjA1eiIvPiYjeGE7CQk8L2c+JiN4YTsJCTxnIGlkPSJzaGFwZTk1MTItMTAiIHRyYW5zZm9ybT0idHJhbnNsYXRlKDIyLjE4OTIsLTcuODgwMjYpIj4mI3hhOwkJCTx0aXRsZSBpZD0idGl0bGU2MTI2Ij5TaGVldC45NTEyPC90aXRsZT4mI3hhOwkJCTxjaXJjbGUgaWQ9ImVsbGlwc2U2MTI4IiBzdHlsZT0iZmlsbDojN0ZCQTAwOyIgY3g9IjIuMjgiIGN5PSI0Mi4wNSIgcj0iMi4yOCIvPiYjeGE7CQk8L2c+JiN4YTsJPC9nPiYjeGE7PC9nPiYjeGE7PC9zdmc+;" vertex="1" parent="1">
          <mxGeometry x="340" y="273" width="70" height="40" as="geometry" />
        </mxCell>
        <mxCell id="FN3_UUnZCpq1qiRNQo3k-47" value="" style="shape=image;verticalLabelPosition=bottom;labelBackgroundColor=#ffffff;verticalAlign=top;aspect=fixed;imageAspect=0;image=data:image/svg+xml,PHN2ZyB4bWxuczpjYz0iaHR0cDovL2NyZWF0aXZlY29tbW9ucy5vcmcvbnMjIiB4bWxuczpkYz0iaHR0cDovL3B1cmwub3JnL2RjL2VsZW1lbnRzLzEuMS8iIHhtbG5zOmlua3NjYXBlPSJodHRwOi8vd3d3Lmlua3NjYXBlLm9yZy9uYW1lc3BhY2VzL2lua3NjYXBlIiB4bWxuczpyZGY9Imh0dHA6Ly93d3cudzMub3JnLzE5OTkvMDIvMjItcmRmLXN5bnRheC1ucyMiIHhtbG5zOnNvZGlwb2RpPSJodHRwOi8vc29kaXBvZGkuc291cmNlZm9yZ2UubmV0L0RURC9zb2RpcG9kaS0wLmR0ZCIgeG1sbnM6c3ZnPSJodHRwOi8vd3d3LnczLm9yZy8yMDAwL3N2ZyIgeG1sbnM9Imh0dHA6Ly93d3cudzMub3JnLzIwMDAvc3ZnIiB4bWxuczp4bGluaz0iaHR0cDovL3d3dy53My5vcmcvMTk5OS94bGluayIgdmVyc2lvbj0iMS4xIiBpZD0ic3ZnMTAxNDIiIGlua3NjYXBlOnZlcnNpb249IjAuOTIuMyAoMjQwNTU0NiwgMjAxOC0wMy0xMSkiIHNvZGlwb2RpOmRvY25hbWU9InZwbi5zdmciIHg9IjBweCIgeT0iMHB4IiB2aWV3Qm94PSIwIDAgNjYuOTkgNzIuNDIiIHN0eWxlPSJlbmFibGUtYmFja2dyb3VuZDpuZXcgMCAwIDY2Ljk5IDcyLjQyOyIgeG1sOnNwYWNlPSJwcmVzZXJ2ZSI+JiN4YTs8c29kaXBvZGk6bmFtZWR2aWV3IGJvcmRlcmNvbG9yPSIjNjY2NjY2IiBib3JkZXJvcGFjaXR5PSIxIiBmaXQtbWFyZ2luLWJvdHRvbT0iMCIgZml0LW1hcmdpbi1sZWZ0PSIwIiBmaXQtbWFyZ2luLXJpZ2h0PSIwIiBmaXQtbWFyZ2luLXRvcD0iMCIgZ3JpZHRvbGVyYW5jZT0iMTAiIGd1aWRldG9sZXJhbmNlPSIxMCIgaWQ9Im5hbWVkdmlldzEwMTQ0IiBpbmtzY2FwZTpjdXJyZW50LWxheWVyPSJzdmcxMDE0MiIgaW5rc2NhcGU6Y3g9IjQ0LjY1OTk2NyIgaW5rc2NhcGU6Y3k9IjQ4LjI4Mjc2OCIgaW5rc2NhcGU6cGFnZW9wYWNpdHk9IjAiIGlua3NjYXBlOnBhZ2VzaGFkb3c9IjIiIGlua3NjYXBlOndpbmRvdy1oZWlnaHQ9IjEwMTciIGlua3NjYXBlOndpbmRvdy1tYXhpbWl6ZWQ9IjEiIGlua3NjYXBlOndpbmRvdy13aWR0aD0iMTkyMCIgaW5rc2NhcGU6d2luZG93LXg9Ii04IiBpbmtzY2FwZTp3aW5kb3cteT0iLTgiIGlua3NjYXBlOnpvb209IjguOTc5MzQ5NSIgb2JqZWN0dG9sZXJhbmNlPSIxMCIgcGFnZWNvbG9yPSIjZmZmZmZmIiBzaG93Z3JpZD0iZmFsc2UiPiYjeGE7CTwvc29kaXBvZGk6bmFtZWR2aWV3PiYjeGE7PGcgaWQ9ImcxMDE0MCIgdHJhbnNmb3JtPSJ0cmFuc2xhdGUoMCwtMS4wMzI0NjY3ZS00KSI+JiN4YTsJPHRpdGxlIGlkPSJ0aXRsZTEwMTMzIj5QYWdlLTE8L3RpdGxlPiYjeGE7CTxnIGlkPSJzaGFwZTk0MzktMSI+JiN4YTsJCTx0aXRsZSBpZD0idGl0bGUxMDEzNSI+VlBOPC90aXRsZT4mI3hhOwkJPHBhdGggaWQ9InBhdGgxMDEzNyIgaW5rc2NhcGU6Y29ubmVjdG9yLWN1cnZhdHVyZT0iMCIgc3R5bGU9ImZpbGw6IzNGNTc2NTsiIGQ9Ik02Ni45OSwyNC4yMUMzMi42LDAsMzIuNiwwLDMyLjYsMCAgICBjMCwxNC45NSwwLDE0Ljk1LDAsMTQuOTVjLTMyLjE4LDAtMzIuMTgsMC0zMi4xOCwwYzAsMTguMSwwLDE4LjEsMCwxOC4xYzIwLjcyLDAsMjAuNzIsMCwyMC43MiwwICAgIGMxMS40Ni03Ljc5LDExLjQ2LTcuNzksMTEuNDYtNy43OWMwLDIzLjA1LDAsMjMuMDUsMCwyMy4wNUM2Ni45OSwyNC4yMSw2Ni45OSwyNC4yMSw2Ni45OSwyNC4yMXogTTcuMDUsNDcuMjYgICAgQzMyLjYsNjMuODksMzIuNiw2My44OSwzMi42LDYzLjg5YzAtMTEuMTYsMC0xMS4xNiwwLTExLjE2YzMzLjIzLDAsMzMuMjMsMCwzMy4yMywwYzEuNDgsMCwxLjQ4LDQuMTEsMCw0LjExICAgIGMtMjguODEsMC0yOC44MSwwLTI4LjgxLDBjMCwxNS41OCwwLDE1LjU4LDAsMTUuNThDMCw0Ny4yNiwwLDQ3LjI2LDAsNDcuMjZDNy4wNSw0Ny4yNiw3LjA1LDQ3LjI2LDcuMDUsNDcuMjZ6Ii8+JiN4YTsJPC9nPiYjeGE7PC9nPiYjeGE7PC9zdmc+;" vertex="1" parent="1">
          <mxGeometry x="160.0000000000001" y="260" width="67" height="72" as="geometry" />
        </mxCell>
        <mxCell id="FN3_UUnZCpq1qiRNQo3k-48" value="" style="shape=image;verticalLabelPosition=bottom;labelBackgroundColor=#ffffff;verticalAlign=top;aspect=fixed;imageAspect=0;image=data:image/svg+xml,PHN2ZyB4bWxuczpjYz0iaHR0cDovL2NyZWF0aXZlY29tbW9ucy5vcmcvbnMjIiB4bWxuczpkYz0iaHR0cDovL3B1cmwub3JnL2RjL2VsZW1lbnRzLzEuMS8iIHhtbG5zOmlua3NjYXBlPSJodHRwOi8vd3d3Lmlua3NjYXBlLm9yZy9uYW1lc3BhY2VzL2lua3NjYXBlIiB4bWxuczpyZGY9Imh0dHA6Ly93d3cudzMub3JnLzE5OTkvMDIvMjItcmRmLXN5bnRheC1ucyMiIHhtbG5zOnNvZGlwb2RpPSJodHRwOi8vc29kaXBvZGkuc291cmNlZm9yZ2UubmV0L0RURC9zb2RpcG9kaS0wLmR0ZCIgeG1sbnM6c3ZnPSJodHRwOi8vd3d3LnczLm9yZy8yMDAwL3N2ZyIgeG1sbnM9Imh0dHA6Ly93d3cudzMub3JnLzIwMDAvc3ZnIiB4bWxuczp4bGluaz0iaHR0cDovL3d3dy53My5vcmcvMTk5OS94bGluayIgdmVyc2lvbj0iMS4xIiBpZD0ic3ZnNzcyNDciIGlua3NjYXBlOnZlcnNpb249IjAuOTIuMyAoMjQwNTU0NiwgMjAxOC0wMy0xMSkiIHNvZGlwb2RpOmRvY25hbWU9ImNyb3NzX2RldmljZS5zdmciIHg9IjBweCIgeT0iMHB4IiB2aWV3Qm94PSIwIDAgMzcuMzQgMzkuODMiIHN0eWxlPSJlbmFibGUtYmFja2dyb3VuZDpuZXcgMCAwIDM3LjM0IDM5LjgzOyIgeG1sOnNwYWNlPSJwcmVzZXJ2ZSI+JiN4YTs8c29kaXBvZGk6bmFtZWR2aWV3IGJvcmRlcmNvbG9yPSIjNjY2NjY2IiBib3JkZXJvcGFjaXR5PSIxIiBmaXQtbWFyZ2luLWJvdHRvbT0iMCIgZml0LW1hcmdpbi1sZWZ0PSIwIiBmaXQtbWFyZ2luLXJpZ2h0PSIwIiBmaXQtbWFyZ2luLXRvcD0iMCIgZ3JpZHRvbGVyYW5jZT0iMTAiIGd1aWRldG9sZXJhbmNlPSIxMCIgaWQ9Im5hbWVkdmlldzc3MjQ5IiBpbmtzY2FwZTpjdXJyZW50LWxheWVyPSJzdmc3NzI0NyIgaW5rc2NhcGU6Y3g9IjI0Ljg5NDgxNiIgaW5rc2NhcGU6Y3k9IjI2LjU1NjQ4NiIgaW5rc2NhcGU6cGFnZW9wYWNpdHk9IjAiIGlua3NjYXBlOnBhZ2VzaGFkb3c9IjIiIGlua3NjYXBlOndpbmRvdy1oZWlnaHQ9IjEwMTciIGlua3NjYXBlOndpbmRvdy1tYXhpbWl6ZWQ9IjEiIGlua3NjYXBlOndpbmRvdy13aWR0aD0iMTkyMCIgaW5rc2NhcGU6d2luZG93LXg9Ii04IiBpbmtzY2FwZTp3aW5kb3cteT0iLTgiIGlua3NjYXBlOnpvb209IjE2LjMyNzU2NSIgb2JqZWN0dG9sZXJhbmNlPSIxMCIgcGFnZWNvbG9yPSIjZmZmZmZmIiBzaG93Z3JpZD0iZmFsc2UiPiYjeGE7CTwvc29kaXBvZGk6bmFtZWR2aWV3PiYjeGE7PGcgaWQ9Imc3NzI0NSI+JiN4YTsJPHRpdGxlIGlkPSJ0aXRsZTc3MjM4Ij5QYWdlLTE8L3RpdGxlPiYjeGE7CTxnIGlkPSJzaGFwZTU0MDEtMSI+JiN4YTsJCTx0aXRsZSBpZD0idGl0bGU3NzI0MCI+Q3Jvc3MtZGV2aWNlPC90aXRsZT4mI3hhOwkJPHBhdGggaWQ9InBhdGg3NzI0MiIgaW5rc2NhcGU6Y29ubmVjdG9yLWN1cnZhdHVyZT0iMCIgc3R5bGU9ImZpbGw6IzNGNTc2NTsiIGQ9Ik0xLjIyLDIwLjk1TDEuMjIsMjAuOTVDMCwxOS43MiwwLDE5LjcyLDAsMTkuNzIgICAgYzEuNTMtMS40OSwxLjUzLTEuNDksMS41My0xLjQ5QzAsMTYuODEsMCwxNi44MSwwLDE2LjgxYzEuMjItMS4yMiwxLjIyLTEuMjIsMS4yMi0xLjIyYzEuNDYsMS41MywxLjQ2LDEuNTMsMS40NiwxLjUzICAgIGMxLjUzLTEuNTMsMS41My0xLjUzLDEuNTMtMS41M2MxLjE4LDEuMjIsMS4xOCwxLjIyLDEuMTgsMS4yMmMtMS41MywxLjQyLTEuNTMsMS40Mi0xLjUzLDEuNDJjMS40NiwxLjQxLDEuNDYsMS40MSwxLjQ2LDEuNDEgICAgYzAuMDcsMC4wOCwwLjA3LDAuMDgsMC4wNywwLjA4Yy0xLjE4LDEuMjMtMS4xOCwxLjIzLTEuMTgsMS4yM2MtMS41My0xLjU0LTEuNTMtMS41NC0xLjUzLTEuNTRjLTEuNDYsMS40Ni0xLjQ2LDEuNDYtMS40NiwxLjQ2ICAgIEMxLjIyLDIwLjk1LDEuMjIsMjAuOTUsMS4yMiwyMC45NXogTTE0LjY5LDIwLjUzYy0xLjQ1LTEuNDItMS40NS0xLjQyLTEuNDUtMS40MmMxLjUzLTEuNTMsMS41My0xLjUzLDEuNTMtMS41MyAgICBjLTEuMTktMS4xMS0xLjE5LTEuMTEtMS4xOS0xLjExYy0xLjUzLDEuNDUtMS41MywxLjQ1LTEuNTMsMS40NWMtMS40NS0xLjQ1LTEuNDUtMS40NS0xLjQ1LTEuNDVjLTEuMTksMS4xMS0xLjE5LDEuMTEtMS4xOSwxLjExICAgIGMxLjUzLDEuNTMsMS41MywxLjUzLDEuNTMsMS41M2MtMS41MywxLjQyLTEuNTMsMS40Mi0xLjUzLDEuNDJjMS4xOSwxLjE4LDEuMTksMS4xOCwxLjE5LDEuMThsMCwwYzEuNDUtMS40MSwxLjQ1LTEuNDEsMS40NS0xLjQxICAgIGMxLjUzLDEuNDEsMS41MywxLjQxLDEuNTMsMS40MWMxLjE5LTEuMTgsMS4xOS0xLjE4LDEuMTktMS4xOEMxNC42OSwyMC41MywxNC42OSwyMC41MywxNC42OSwyMC41M0wxNC42OSwyMC41M3ogTTIzLjQyLDIwLjUzICAgIGMwLjExLDAsMC4xMSwwLDAuMTEsMGMxLjQyLTEuNDIsMS40Mi0xLjQyLDEuNDItMS40MmMxLjUzLDEuNDIsMS41MywxLjQyLDEuNTMsMS40MmMxLjExLTEuMTksMS4xMS0xLjE5LDEuMTEtMS4xOWwwLDAgICAgYy0xLjQyLTEuNDItMS40Mi0xLjQyLTEuNDItMS40MmMxLjQyLTEuNTMsMS40Mi0xLjUzLDEuNDItMS41M2MtMS4xMS0xLjExLTEuMTEtMS4xMS0xLjExLTEuMTFjLTEuNTMsMS40Mi0xLjUzLDEuNDItMS41MywxLjQyICAgIGMtMS41My0xLjQyLTEuNTMtMS40Mi0xLjUzLTEuNDJjLTEuMTEsMS4xMS0xLjExLDEuMTEtMS4xMSwxLjExYzEuNDEsMS41MywxLjQxLDEuNTMsMS40MSwxLjUzYy0xLjQxLDEuNDItMS40MSwxLjQyLTEuNDEsMS40MiAgICBDMjMuNDIsMjAuNTMsMjMuNDIsMjAuNTMsMjMuNDIsMjAuNTNMMjMuNDIsMjAuNTN6IE0xOC40OCwzNC4zNWMwLjYxLTEuNTcsMS43Mi01LjE3LDEuNzItOS42NWMwLTMuNTYtMC42OS03LjY2LTIuOTgtMTEuNzYgICAgQzE1LjA3LDkuMDgsMTEuNTUsNS4yMSw2LjAxLDEuODhjMi4wMi0wLjU0LDIuMDItMC41NCwyLjAyLTAuNTRDNy42NSwwLDcuNjUsMCw3LjY1LDBjLTQuNCwxLjIzLTQuNCwxLjIzLTQuNCwxLjIzICAgIGMxLjE5LDQuNDQsMS4xOSw0LjQ0LDEuMTksNC40NGMxLjM0LTAuMzUsMS4zNC0wLjM1LDEuMzQtMC4zNUM1LjIsMy4yOSw1LjIsMy4yOSw1LjIsMy4yOWM1LjMyLDMuMjIsOC42NSw2LjgyLDEwLjY0LDEwLjQyICAgIGMyLjEsMy44MywyLjc1LDcuNjYsMi43NSwxMC45OWMwLDIuNzktMC40NSw1LjI4LTAuOTksNy4wNWMtMC4xOSwwLjg4LTAuNDYsMS41Ny0wLjY1LDIuMDZjMCwwLjA0LTAuMDQsMC4xMi0wLjA4LDAuMTIgICAgYy0xLjU3LDAuMTEtMi44MywxLjM4LTIuODMsMi45OGMwLDEuNjEsMS4zLDIuOTIsMi45OSwyLjkyYzEuNiwwLDIuOTQtMS4zMSwyLjk0LTIuOTJDMTkuOTcsMzUuOCwxOS4zNiwzNC44NSwxOC40OCwzNC4zNXogICAgIE0zMS43MiwxOS4xNWMyLjA2LTAuNSwyLjA2LTAuNSwyLjA2LTAuNWMtMC4zNC0xLjMtMC4zNC0xLjMtMC4zNC0xLjNjLTQuNDgsMS4wNy00LjQ4LDEuMDctNC40OCwxLjA3ICAgIGMxLjA3LDQuNDQsMS4wNyw0LjQ0LDEuMDcsNC40NGMxLjM0LTAuMzQsMS4zNC0wLjM0LDEuMzQtMC4zNGMtMC40OS0xLjk5LTAuNDktMS45OS0wLjQ5LTEuOTljNC4yLDIuNTIsNC4yLDIuNTIsNC4yLDIuNTIgICAgYy0xLjc5LDIuNDUtNC4wMSw0LjE0LTUuODEsNS4yOWMtMC45NiwwLjYxLTEuODQsMS4wMy0yLjQxLDEuM2MtMC4xNSwwLjA4LTAuMzEsMC4xNS0wLjM4LDAuMTljLTAuNTQtMC41LTEuMjctMC43Ny0xLjk5LTAuNzcgICAgYy0xLjY1LDAtMi45OSwxLjMxLTIuOTksMi45MmMwLDEuNjQsMS4zNCwyLjk0LDIuOTksMi45NGMxLjYsMCwyLjk0LTEuMywyLjk0LTIuOTRjMC0wLjI3LTAuMDQtMC41NC0wLjExLTAuODEgICAgYzEuODctMC44NCw2LjM5LTMuMjIsOS42LTcuOTNjMC40Mi0wLjY1LDAuNDItMC42NSwwLjQyLTAuNjVMMzEuNzIsMTkuMTV6IE04LjYxLDMxLjY3Yy0wLjE1LDAtMC4zNSwwLTAuNDYsMC4wNCAgICBjLTMuNDQtOC4wNC0zLjQ0LTguMDQtMy40NC04LjA0YzEuOTktMC44MSwxLjk5LTAuODEsMS45OS0wLjgxYy0wLjU4LTEuNDUtMC41OC0xLjQ1LTAuNTgtMS40NWMtNS40NywyLjE0LTUuNDcsMi4xNC01LjQ3LDIuMTQgICAgYzAuNjUsMS40NiwwLjY1LDEuNDYsMC42NSwxLjQ2YzEuOTEtMC43NywxLjkxLTAuNzcsMS45MS0wLjc3YzMuNDUsOC4xMiwzLjQ1LDguMTIsMy40NSw4LjEyYy0wLjY1LDAuNTMtMS4wNCwxLjM4LTEuMDQsMi4yNiAgICBjMCwxLjYxLDEuMzQsMi45NSwyLjk5LDIuOTVjMS42MSwwLDIuOTgtMS4zNCwyLjk4LTIuOTVTMTAuMjIsMzEuNjcsOC42MSwzMS42N3oiLz4mI3hhOwk8L2c+JiN4YTs8L2c+JiN4YTs8L3N2Zz4=;" vertex="1" parent="1">
          <mxGeometry x="632.08" y="490" width="58.12" height="62.83" as="geometry" />
        </mxCell>
        <mxCell id="FN3_UUnZCpq1qiRNQo3k-50" value="" style="shape=image;verticalLabelPosition=bottom;labelBackgroundColor=#ffffff;verticalAlign=top;aspect=fixed;imageAspect=0;image=data:image/svg+xml,PHN2ZyB4bWxuczpkYz0iaHR0cDovL3B1cmwub3JnL2RjL2VsZW1lbnRzLzEuMS8iIHhtbG5zOmNjPSJodHRwOi8vY3JlYXRpdmVjb21tb25zLm9yZy9ucyMiIHhtbG5zOnJkZj0iaHR0cDovL3d3dy53My5vcmcvMTk5OS8wMi8yMi1yZGYtc3ludGF4LW5zIyIgeG1sbnM6c3ZnPSJodHRwOi8vd3d3LnczLm9yZy8yMDAwL3N2ZyIgeG1sbnM9Imh0dHA6Ly93d3cudzMub3JnLzIwMDAvc3ZnIiB4bWxuczp4bGluaz0iaHR0cDovL3d3dy53My5vcmcvMTk5OS94bGluayIgeG1sbnM6c29kaXBvZGk9Imh0dHA6Ly9zb2RpcG9kaS5zb3VyY2Vmb3JnZS5uZXQvRFREL3NvZGlwb2RpLTAuZHRkIiB4bWxuczppbmtzY2FwZT0iaHR0cDovL3d3dy5pbmtzY2FwZS5vcmcvbmFtZXNwYWNlcy9pbmtzY2FwZSIgdmVyc2lvbj0iMS4xIiBpZD0iTGF5ZXJfMSIgeD0iMHB4IiB5PSIwcHgiIHZpZXdCb3g9IjAgMCAzNC4zODExMzQgMTguMTgwMDAyIiB4bWw6c3BhY2U9InByZXNlcnZlIiBzb2RpcG9kaTpkb2NuYW1lPSJzYXBfd2ViX2lkZS5zdmciIHdpZHRoPSIzNC4zODExMzQiIGhlaWdodD0iMTguMTgwMDAyIiBpbmtzY2FwZTp2ZXJzaW9uPSIwLjkyLjMgKDI0MDU1NDYsIDIwMTgtMDMtMTEpIj48bWV0YWRhdGEgaWQ9Im1ldGFkYXRhNjI0NTMiPjxyZGY6UkRGPjxjYzpXb3JrIHJkZjphYm91dD0iIj48ZGM6Zm9ybWF0PmltYWdlL3N2Zyt4bWw8L2RjOmZvcm1hdD48ZGM6dHlwZSByZGY6cmVzb3VyY2U9Imh0dHA6Ly9wdXJsLm9yZy9kYy9kY21pdHlwZS9TdGlsbEltYWdlIi8+PGRjOnRpdGxlLz48L2NjOldvcms+PC9yZGY6UkRGPjwvbWV0YWRhdGE+PGRlZnMgaWQ9ImRlZnM2MjQ1MSIvPjxzb2RpcG9kaTpuYW1lZHZpZXcgcGFnZWNvbG9yPSIjZmZmZmZmIiBib3JkZXJjb2xvcj0iIzY2NjY2NiIgYm9yZGVyb3BhY2l0eT0iMSIgb2JqZWN0dG9sZXJhbmNlPSIxMCIgZ3JpZHRvbGVyYW5jZT0iMTAiIGd1aWRldG9sZXJhbmNlPSIxMCIgaW5rc2NhcGU6cGFnZW9wYWNpdHk9IjAiIGlua3NjYXBlOnBhZ2VzaGFkb3c9IjIiIGlua3NjYXBlOndpbmRvdy13aWR0aD0iMTkyMCIgaW5rc2NhcGU6d2luZG93LWhlaWdodD0iMTAxNyIgaWQ9Im5hbWVkdmlldzYyNDQ5IiBzaG93Z3JpZD0iZmFsc2UiIGZpdC1tYXJnaW4tdG9wPSIwIiBmaXQtbWFyZ2luLWxlZnQ9IjAiIGZpdC1tYXJnaW4tcmlnaHQ9IjAiIGZpdC1tYXJnaW4tYm90dG9tPSIwIiBpbmtzY2FwZTp6b29tPSIxLjAzMDMwMyIgaW5rc2NhcGU6Y3g9Ii0yMC45ODUiIGlua3NjYXBlOmN5PSItMTgyLjg3IiBpbmtzY2FwZTp3aW5kb3cteD0iLTgiIGlua3NjYXBlOndpbmRvdy15PSItOCIgaW5rc2NhcGU6d2luZG93LW1heGltaXplZD0iMSIgaW5rc2NhcGU6Y3VycmVudC1sYXllcj0iTGF5ZXJfMSIvPiYjeGE7JiN4YTs8ZyBpZD0iZzYyNDQ2IiB0cmFuc2Zvcm09InRyYW5zbGF0ZSgtMzE4LjM2LC0yMTkuNykiPiYjeGE7CTxkZWZzIGlkPSJkZWZzNjI0MjUiPiYjeGE7CQk8cmVjdCBpZD0iU1ZHSURfM18iIHg9IjMxOC4zNTk5OSIgeT0iMjE5LjciIHdpZHRoPSIzNi44MiIgaGVpZ2h0PSIxOS44MDk5OTkiLz4mI3hhOwk8L2RlZnM+JiN4YTsJPGNsaXBQYXRoIGlkPSJTVkdJRF80XyI+JiN4YTsJCTx1c2UgeGxpbms6aHJlZj0iI1NWR0lEXzNfIiBzdHlsZT0ib3ZlcmZsb3c6dmlzaWJsZSIgaWQ9InVzZTYyNDI3IiB4PSIwIiB5PSIwIiB3aWR0aD0iMTAwJSIgaGVpZ2h0PSIxMDAlIi8+JiN4YTsJPC9jbGlwUGF0aD4mI3hhOwk8ZyBjbGlwLXBhdGg9InVybCgjU1ZHSURfNF8pIiBpZD0iZzYyNDQ0Ij4mI3hhOwkJPGRlZnMgaWQ9ImRlZnM2MjQzMSI+JiN4YTsJCQk8cmVjdCBpZD0iU1ZHSURfNV8iIHg9IjMxOC4zNTk5OSIgeT0iMjE5LjciIHdpZHRoPSIzNi44MiIgaGVpZ2h0PSIxOS44MDk5OTkiLz4mI3hhOwkJPC9kZWZzPiYjeGE7CQk8Y2xpcFBhdGggaWQ9IlNWR0lEXzZfIj4mI3hhOwkJCTx1c2UgeGxpbms6aHJlZj0iI1NWR0lEXzVfIiBzdHlsZT0ib3ZlcmZsb3c6dmlzaWJsZSIgaWQ9InVzZTYyNDMzIiB4PSIwIiB5PSIwIiB3aWR0aD0iMTAwJSIgaGVpZ2h0PSIxMDAlIi8+JiN4YTsJCTwvY2xpcFBhdGg+JiN4YTsJCTxwYXRoIHN0eWxlPSJmaWxsOiMxYjkwY2QiIGQ9Im0gMzUxLjU0LDIzMi40NCBjIDAsMi4yNyAtMS44LDQuMTkgLTQuMDcsNC4xOSBoIC0yNC41NiBjIC0xLjg2LDAgLTMuMjksLTEuNSAtMy4yOSwtMy4yOSAwLC0xLjY3IDEuMjYsLTMuMTEgMi45NCwtMy4yOSBsIDEuNjgsLTAuMjQgMC4xMiwtMS42OCBjIDAuMzYsLTQuMDEgMy43NywtNy4xOCA3Ljc5LC03LjE4IDIuNCwwIDQuNjcsMS4wOCA2LjE3LDIuOTkgbCAxLjAyLDEuMjYgMS41LC0wLjY2IGMgMC40OCwtMC4yNCAwLjk2LC0wLjMgMS40NCwtMC4zIDEuNSwwIDIuODgsMS4wOCAzLjM1LDIuNTEgbCAwLjQ4LDEuMzggaCAxLjUgYyAyLjE0LDAuMTIgMy45MywyLjAzIDMuOTMsNC4zMSB6IG0gLTMuOTUsLTUuNTEgaCAtMC42IGwgLTAuMTgsLTAuNiBjIC0wLjYsLTIuMDMgLTIuNDYsLTMuMzUgLTQuNTUsLTMuMzUgLTAuNjYsMCAtMS4zOCwwLjEyIC0yLjA0LDAuNDggbCAtMC42LDAuMjQgLTAuMywtMC42IGMgLTEuNzQsLTIuMTUgLTQuMzEsLTMuNDEgLTcuMTMsLTMuNDEgLTQuNjcsMCAtOC42OSwzLjY1IC05LjA0LDguMzEgbCAtMC4wNiwwLjY2IC0wLjY2LDAuMDYgYyAtMi4zNCwwLjMgLTQuMDcsMi4yNyAtNC4wNyw0LjYxIDAsMi41MSAyLjEsNC41NSA0LjU1LDQuNTUgaCAyNC41IGMgMi45NCwwIDUuMzMsLTIuNDUgNS4zMywtNS41NiAwLjA2LC0yLjg3IC0yLjI3LC01LjM5IC01LjE1LC01LjM5IHoiIGNsaXAtcGF0aD0idXJsKCNTVkdJRF82XykiIGlkPSJwYXRoNjI0MzYiIGlua3NjYXBlOmNvbm5lY3Rvci1jdXJ2YXR1cmU9IjAiLz4mI3hhOwkJPHBhdGggc3R5bGU9ImZpbGw6IzFiOTBjZCIgZD0ibSAzMzIuNzQsMjI4LjczIGMgMCwtMC4zNiAtMC4zLC0wLjYgLTAuNiwtMC42IC0wLjEyLDAgLTAuMywwLjA2IC0wLjQ4LDAuMTggbCAtMy4xNywyLjE1IGMgLTAuMTgsMC4wNiAtMC4zNiwwLjI0IC0wLjM2LDAuNiAwLDAuMzYgMC4xOCwwLjU0IDAuMzYsMC42IGwgMy4yMywyLjA5IGMgMC4wNiwwLjA2IDAuMTgsMC4xOCAwLjQyLDAuMTggMC4zLDAgMC42LC0wLjMgMC42LC0wLjcyIDAsLTAuMyAtMC4xMiwtMC40MiAtMC4zNiwtMC42IGwgLTIuNTgsLTEuNjEgMi41MiwtMS42OCBjIDAuMTgsLTAuMDUgMC40MiwtMC4xNyAwLjQyLC0wLjU5IHoiIGNsaXAtcGF0aD0idXJsKCNTVkdJRF82XykiIGlkPSJwYXRoNjI0MzgiIGlua3NjYXBlOmNvbm5lY3Rvci1jdXJ2YXR1cmU9IjAiLz4mI3hhOwkJPHBhdGggc3R5bGU9ImZpbGw6IzFiOTBjZCIgZD0ibSAzMzYuNTcsMjI3Ljc3IGMgLTAuMywwLjA2IC0wLjQ4LDAuMyAtMC41NCwwLjU0IGwgLTIuMSw1LjM4IGMgLTAuMDYsMC4xMiAtMC4xMiwwLjMgLTAuMDYsMC40OCAwLjA2LDAuMyAwLjMsMC41NCAwLjYsMC41NCBoIDAuMDYgYyAwLjM2LC0wLjA2IDAuNDgsLTAuMyAwLjU0LC0wLjQyIGwgMi4xNiwtNS41NiBjIDAsLTAuMDYgMC4wNiwtMC4yNCAwLjA2LC0wLjQyIC0wLjA2LC0wLjQyIC0wLjM2LC0wLjYgLTAuNzIsLTAuNTQgeiIgY2xpcC1wYXRoPSJ1cmwoI1NWR0lEXzZfKSIgaWQ9InBhdGg2MjQ0MCIgaW5rc2NhcGU6Y29ubmVjdG9yLWN1cnZhdHVyZT0iMCIvPiYjeGE7CQk8cGF0aCBzdHlsZT0iZmlsbDojMWI5MGNkIiBkPSJtIDM0Mi42OCwyMzAuNCAtMy4xNywtMi4yMSBjIC0wLjE4LC0wLjA2IC0wLjMsLTAuMTIgLTAuNDgsLTAuMTIgLTAuMywwIC0wLjYsMC4zIC0wLjYsMC42NiAwLDAuMzYgMC4yNCwwLjU0IDAuMzYsMC42IGwgMi41MiwxLjY4IC0yLjU4LDEuNjIgYyAtMC4xMiwwLjA2IC0wLjM2LDAuMyAtMC4zNiwwLjYgMCwwLjM2IDAuMywwLjY2IDAuNiwwLjY2IDAuMjQsMCAwLjM2LC0wLjA2IDAuNDIsLTAuMTIgbCAzLjIzLC0yLjA5IGMgMC4xOCwtMC4wNiAwLjM2LC0wLjI0IDAuMzYsLTAuNiAwLjEyLC0wLjM4IC0wLjEyLC0wLjU2IC0wLjMsLTAuNjggeiIgY2xpcC1wYXRoPSJ1cmwoI1NWR0lEXzZfKSIgaWQ9InBhdGg2MjQ0MiIgaW5rc2NhcGU6Y29ubmVjdG9yLWN1cnZhdHVyZT0iMCIvPiYjeGE7CTwvZz4mI3hhOzwvZz4mI3hhOzwvc3ZnPg==;" vertex="1" parent="1">
          <mxGeometry x="542.08" y="414" width="34" height="18" as="geometry" />
        </mxCell>
        <mxCell id="FN3_UUnZCpq1qiRNQo3k-51" value="rpc / ws" style="text;html=1;resizable=0;autosize=1;align=center;verticalAlign=middle;points=[];fillColor=none;strokeColor=none;rounded=0;" vertex="1" parent="1">
          <mxGeometry x="529.08" y="445" width="60" height="20" as="geometry" />
        </mxCell>
        <mxCell id="FN3_UUnZCpq1qiRNQo3k-53" value="" style="shape=image;verticalLabelPosition=bottom;labelBackgroundColor=#ffffff;verticalAlign=top;aspect=fixed;imageAspect=0;image=data:image/svg+xml,PHN2ZyB4bWxuczpjYz0iaHR0cDovL2NyZWF0aXZlY29tbW9ucy5vcmcvbnMjIiB4bWxuczpkYz0iaHR0cDovL3B1cmwub3JnL2RjL2VsZW1lbnRzLzEuMS8iIHhtbG5zOmlua3NjYXBlPSJodHRwOi8vd3d3Lmlua3NjYXBlLm9yZy9uYW1lc3BhY2VzL2lua3NjYXBlIiB4bWxuczpyZGY9Imh0dHA6Ly93d3cudzMub3JnLzE5OTkvMDIvMjItcmRmLXN5bnRheC1ucyMiIHhtbG5zOnNvZGlwb2RpPSJodHRwOi8vc29kaXBvZGkuc291cmNlZm9yZ2UubmV0L0RURC9zb2RpcG9kaS0wLmR0ZCIgeG1sbnM6c3ZnPSJodHRwOi8vd3d3LnczLm9yZy8yMDAwL3N2ZyIgeG1sbnM9Imh0dHA6Ly93d3cudzMub3JnLzIwMDAvc3ZnIiB4bWxuczp4bGluaz0iaHR0cDovL3d3dy53My5vcmcvMTk5OS94bGluayIgdmVyc2lvbj0iMS4xIiBpZD0ic3ZnOTE0MTYiIGlua3NjYXBlOnZlcnNpb249IjAuOTIuMyAoMjQwNTU0NiwgMjAxOC0wMy0xMSkiIHNvZGlwb2RpOmRvY25hbWU9Im5ld19kb2N1bWVudC5zdmciIHg9IjBweCIgeT0iMHB4IiB2aWV3Qm94PSIwIDAgMjguNzcgMjMuOSIgc3R5bGU9ImVuYWJsZS1iYWNrZ3JvdW5kOm5ldyAwIDAgMjguNzcgMjMuOTsiIHhtbDpzcGFjZT0icHJlc2VydmUiPiYjeGE7PHNvZGlwb2RpOm5hbWVkdmlldyBib3JkZXJjb2xvcj0iIzY2NjY2NiIgYm9yZGVyb3BhY2l0eT0iMSIgZml0LW1hcmdpbi1ib3R0b209IjAiIGZpdC1tYXJnaW4tbGVmdD0iMCIgZml0LW1hcmdpbi1yaWdodD0iMCIgZml0LW1hcmdpbi10b3A9IjAiIGdyaWR0b2xlcmFuY2U9IjEwIiBndWlkZXRvbGVyYW5jZT0iMTAiIGlkPSJuYW1lZHZpZXc5MTQxOCIgaW5rc2NhcGU6Y3VycmVudC1sYXllcj0ic3ZnOTE0MTYiIGlua3NjYXBlOmN4PSIxOS4xODEyMzIiIGlua3NjYXBlOmN5PSIxNS45MzY1MDUiIGlua3NjYXBlOnBhZ2VvcGFjaXR5PSIwIiBpbmtzY2FwZTpwYWdlc2hhZG93PSIyIiBpbmtzY2FwZTp3aW5kb3ctaGVpZ2h0PSIxMDE3IiBpbmtzY2FwZTp3aW5kb3ctbWF4aW1pemVkPSIxIiBpbmtzY2FwZTp3aW5kb3ctd2lkdGg9IjE5MjAiIGlua3NjYXBlOndpbmRvdy14PSItOCIgaW5rc2NhcGU6d2luZG93LXk9Ii04IiBpbmtzY2FwZTp6b29tPSIyNy4yMTI2NDMiIG9iamVjdHRvbGVyYW5jZT0iMTAiIHBhZ2Vjb2xvcj0iI2ZmZmZmZiIgc2hvd2dyaWQ9ImZhbHNlIj4mI3hhOwk8L3NvZGlwb2RpOm5hbWVkdmlldz4mI3hhOzxnIGlkPSJnOTE0MTQiPiYjeGE7CTx0aXRsZSBpZD0idGl0bGU5MTQwNyI+UGFnZS0xPC90aXRsZT4mI3hhOwk8ZyBpZD0ic2hhcGU1NDM4LTEiPiYjeGE7CQk8dGl0bGUgaWQ9InRpdGxlOTE0MDkiPk5ldyBEb2N1bWVudDwvdGl0bGU+JiN4YTsJCTxwYXRoIGlkPSJwYXRoOTE0MTEiIGlua3NjYXBlOmNvbm5lY3Rvci1jdXJ2YXR1cmU9IjAiIHN0eWxlPSJmaWxsOiMzRjU3NjU7IiBkPSJNMjQuOTEsNy44MUMxMy45MywxOC43MywxMy45MywxOC43MywxMy45MywxOC43MyAgICBjLTUuODYsMS40MS01Ljg2LDEuNDEtNS44NiwxLjQxYzEuNjktNS40NCwxLjY5LTUuNDQsMS42OS01LjQ0QzIxLDMuNzksMjEsMy43OSwyMSwzLjc5QzI0LjkxLDcuODEsMjQuOTEsNy44MSwyNC45MSw3LjgxeiAgICAgTTExLjcxLDE0LjdjLTAuMjMsMC4yMy0wLjIzLDAuNjksMCwwLjkybDAsMGMwLjI3LDAuMjMsMC43MiwwLjIzLDAuOTksMGM4Ljc2LTguNSw4Ljc2LTguNSw4Ljc2LTguNWMwLjI3LTAuMjMsMC4yNy0wLjcyLDAtMC45NSAgICBsMCwwYy0wLjIzLTAuMjMtMC43Mi0wLjIzLTAuOTUsMEwxMS43MSwxNC43eiBNMjYuMDksNi42MmMyLjY4LTIuNiwyLjY4LTIuNiwyLjY4LTIuNkMyNC42NCwwLDI0LjY0LDAsMjQuNjQsMCAgICBjLTIuNjgsMi42LTIuNjgsMi42LTIuNjgsMi42TDI2LjA5LDYuNjJ6IE0xOS41MSwwLjVjLTEzLjY2LDAtMTMuNjYsMC0xMy42NiwwQzAsNS4yMSwwLDUuMjEsMCw1LjIxQzAsMjMuOSwwLDIzLjksMCwyMy45ICAgIGMxOS41MSwwLDE5LjUxLDAsMTkuNTEsMGMwLTguMjgsMC04LjI4LDAtOC4yOGMtMS45NSwxLjkyLTEuOTUsMS45Mi0xLjk1LDEuOTJjMCw0LjcxLDAsNC43MSwwLDQuNzFjLTE1LjYxLDAtMTUuNjEsMC0xNS42MSwwICAgIGMwLTE1LjEzLDAtMTUuMTMsMC0xNS4xM2M2LjEyLDAsNi4xMiwwLDYuMTIsMGMwLTQuOTgsMC00Ljk4LDAtNC45OGM5LjQ5LDAsOS40OSwwLDkuNDksMGMwLDIuODQsMCwyLjg0LDAsMi44NCAgICBjMS45NS0yLjExLDEuOTUtMi4xMSwxLjk1LTIuMTFWMC41eiIvPiYjeGE7CTwvZz4mI3hhOzwvZz4mI3hhOzwvc3ZnPg==;" vertex="1" parent="1">
          <mxGeometry x="566" y="566" width="19.33" height="16" as="geometry" />
        </mxCell>
        <mxCell id="FN3_UUnZCpq1qiRNQo3k-56" value="" style="shape=image;verticalLabelPosition=bottom;labelBackgroundColor=#ffffff;verticalAlign=top;aspect=fixed;imageAspect=0;image=data:image/svg+xml,PHN2ZyB4bWxuczpkYz0iaHR0cDovL3B1cmwub3JnL2RjL2VsZW1lbnRzLzEuMS8iIHhtbG5zOmNjPSJodHRwOi8vY3JlYXRpdmVjb21tb25zLm9yZy9ucyMiIHhtbG5zOnJkZj0iaHR0cDovL3d3dy53My5vcmcvMTk5OS8wMi8yMi1yZGYtc3ludGF4LW5zIyIgeG1sbnM6c3ZnPSJodHRwOi8vd3d3LnczLm9yZy8yMDAwL3N2ZyIgeG1sbnM9Imh0dHA6Ly93d3cudzMub3JnLzIwMDAvc3ZnIiB4bWxuczpzb2RpcG9kaT0iaHR0cDovL3NvZGlwb2RpLnNvdXJjZWZvcmdlLm5ldC9EVEQvc29kaXBvZGktMC5kdGQiIHhtbG5zOmlua3NjYXBlPSJodHRwOi8vd3d3Lmlua3NjYXBlLm9yZy9uYW1lc3BhY2VzL2lua3NjYXBlIiB2ZXJzaW9uPSIxLjEiIGlkPSJzdmcyODMzMiIgaW5rc2NhcGU6dmVyc2lvbj0iMC45Mi4zICgyNDA1NTQ2LCAyMDE4LTAzLTExKSIgc29kaXBvZGk6ZG9jbmFtZT0iYXp1cmVfc2VydmljZV9idXNfdG9waWNzLnN2ZyIgeD0iMHB4IiB5PSIwcHgiIHZpZXdCb3g9IjAgMCAzNy41IDM3LjUiIHN0eWxlPSJlbmFibGUtYmFja2dyb3VuZDpuZXcgMCAwIDM3LjUgMzcuNTsiIHhtbDpzcGFjZT0icHJlc2VydmUiPjxtZXRhZGF0YSBpZD0ibWV0YWRhdGE0Mzg2NiI+PHJkZjpSREY+PGNjOldvcmsgcmRmOmFib3V0PSIiPjxkYzpmb3JtYXQ+aW1hZ2Uvc3ZnK3htbDwvZGM6Zm9ybWF0PjxkYzp0eXBlIHJkZjpyZXNvdXJjZT0iaHR0cDovL3B1cmwub3JnL2RjL2RjbWl0eXBlL1N0aWxsSW1hZ2UiLz48ZGM6dGl0bGUvPjwvY2M6V29yaz48L3JkZjpSREY+PC9tZXRhZGF0YT48ZGVmcyBpZD0iZGVmczQzODY0Ii8+JiN4YTs8ZmlsdGVyIGlkPSJmaWx0ZXJfMiI+JiN4YTsJPGZlR2F1c3NpYW5CbHVyIGlkPSJmZUdhdXNzaWFuQmx1cjI4MjA5IiBzdGREZXZpYXRpb249IjIiLz4mI3hhOzwvZmlsdGVyPiYjeGE7PHNvZGlwb2RpOm5hbWVkdmlldyBib3JkZXJjb2xvcj0iIzY2NjY2NiIgYm9yZGVyb3BhY2l0eT0iMSIgZml0LW1hcmdpbi1ib3R0b209IjAiIGZpdC1tYXJnaW4tbGVmdD0iMCIgZml0LW1hcmdpbi1yaWdodD0iMCIgZml0LW1hcmdpbi10b3A9IjAiIGdyaWR0b2xlcmFuY2U9IjEwIiBndWlkZXRvbGVyYW5jZT0iMTAiIGlkPSJuYW1lZHZpZXcyODMzNCIgaW5rc2NhcGU6Y3VycmVudC1sYXllcj0ic3ZnMjgzMzIiIGlua3NjYXBlOmN4PSIyNS40NjA4MTQiIGlua3NjYXBlOmN5PSIyMi4zNjk2IiBpbmtzY2FwZTpwYWdlb3BhY2l0eT0iMCIgaW5rc2NhcGU6cGFnZXNoYWRvdz0iMiIgaW5rc2NhcGU6d2luZG93LWhlaWdodD0iMTAxNyIgaW5rc2NhcGU6d2luZG93LW1heGltaXplZD0iMSIgaW5rc2NhcGU6d2luZG93LXdpZHRoPSIxOTIwIiBpbmtzY2FwZTp3aW5kb3cteD0iLTgiIGlua3NjYXBlOndpbmRvdy15PSItOCIgaW5rc2NhcGU6em9vbT0iMTQuOTQ4MjY4IiBvYmplY3R0b2xlcmFuY2U9IjEwIiBwYWdlY29sb3I9IiNmZmZmZmYiIHNob3dncmlkPSJmYWxzZSI+JiN4YTsJPC9zb2RpcG9kaTpuYW1lZHZpZXc+JiN4YTsmI3hhOzxwYXRoIGlkPSJwYXRoMjgyMjIiIGlua3NjYXBlOmNvbm5lY3Rvci1jdXJ2YXR1cmU9IjAiIHN0eWxlPSJmaWxsOiMwMDcyQzY7IiBkPSJNMC42MiwwQzAuMjUsMCwwLDAuMjUsMCwwLjYydjcuNSAgQzAsOC41LDAuMjUsOC43NSwwLjYyLDguNzVoMy43NUM0Ljc1LDguNzUsNSw4LjUsNSw4LjEyVjVoMjcuNXYzLjEzYzAsMC4zNywwLjI1LDAuNjIsMC43NSwwLjYyaDMuNjJjMC4zOCwwLDAuNjMtMC4yNSwwLjYzLTAuNjIgIFY0LjM4VjAuNjNDMzcuNSwwLjI1LDM3LjI1LDAsMzYuODgsMEgwLjYyeiIvPiYjeGE7JiN4YTs8cGF0aCBpZD0icGF0aDI4MjMwIiBpbmtzY2FwZTpjb25uZWN0b3ItY3VydmF0dXJlPSIwIiBzdHlsZT0iZmlsbDojMDA3MkM2OyIgZD0iTTM2Ljg4LDM3LjVjMC4zNywwLDAuNjItMC4yNSwwLjYyLTAuNjJWMjkuNSAgYzAtMC4zNy0wLjI1LTAuNjItMC42Mi0wLjYyaC0zLjYzYy0wLjM3LDAtMC42MiwwLjI1LTAuNjIsMC42MnYzSDV2LTMuMTJjMC0wLjM4LTAuMjUtMC42My0wLjc1LTAuNjNIMC42MkMwLjI1LDI4Ljc1LDAsMjksMCwyOS41ICB2Ny4zOGMwLDAuMzcsMC4yNSwwLjYyLDAuNjIsMC42MkgzNi44OHoiLz4mI3hhOyYjeGE7PHJlY3QgaWQ9InJlY3QyODIzOCIgeD0iMTQuMSIgeT0iMTYuMDMiIHRyYW5zZm9ybT0ibWF0cml4KDAuNzA3MSAtMC43MDcxIDAuNzA3MSAwLjcwNzEgLTcuNDY2OCAxNS43MjI0KSIgc3R5bGU9ImZpbGw6I0I4RDQzMjsiIHdpZHRoPSIyLjI5IiBoZWlnaHQ9IjEuNjkiLz4mI3hhOyYjeGE7PHJlY3QgaWQ9InJlY3QyODI0NiIgeD0iMTYuNDUiIHk9IjEzLjY4IiB0cmFuc2Zvcm09Im1hdHJpeCgwLjcwNzEgLTAuNzA3MSAwLjcwNzEgMC43MDcxIC01LjExOSAxNi42OTU5KSIgc3R5bGU9ImZpbGw6I0I4RDQzMjsiIHdpZHRoPSIyLjI5IiBoZWlnaHQ9IjEuNyIvPiYjeGE7JiN4YTs8cGF0aCBpZD0icGF0aDI4MjU0IiBpbmtzY2FwZTpjb25uZWN0b3ItY3VydmF0dXJlPSIwIiBzdHlsZT0iZmlsbDojQjhENDMyOyIgZD0iTTE5LjczLDEzLjU4bC0xLjItMS4xOWwxLjYtMS42MWwxLjIsMS4yICBMMTkuNzMsMTMuNTh6Ii8+JiN4YTsmI3hhOzxyZWN0IGlkPSJyZWN0MjgyNjIiIHg9IjE5LjA5IiB5PSIyMy42OCIgdHJhbnNmb3JtPSJtYXRyaXgoMC43MDczIC0wLjcwNjkgMC43MDY5IDAuNzA3MyAtMTEuNzA1IDIxLjM1NDIpIiBzdHlsZT0iZmlsbDojQjhENDMyOyIgd2lkdGg9IjEuNyIgaGVpZ2h0PSIyLjI3Ii8+JiN4YTsmI3hhOzxwYXRoIGlkPSJwYXRoMjgyNzAiIGlua3NjYXBlOmNvbm5lY3Rvci1jdXJ2YXR1cmU9IjAiIHN0eWxlPSJmaWxsOiNCOEQ0MzI7IiBkPSJNMTcuODEsMjMuODdsLTEuNjItMS42MmwxLjItMS4xOWwxLjYyLDEuNjIgIEwxNy44MSwyMy44N3oiLz4mI3hhOyYjeGE7PHBhdGggaWQ9InBhdGgyODI3OCIgaW5rc2NhcGU6Y29ubmVjdG9yLWN1cnZhdHVyZT0iMCIgc3R5bGU9ImZpbGw6I0I4RDQzMjsiIGQ9Ik0xNS40NiwyMS41MmwtMS42Mi0xLjYybDEuMi0xLjE5bDEuNjEsMS42MSAgTDE1LjQ2LDIxLjUyeiIvPiYjeGE7JiN4YTs8cGF0aCBpZD0icGF0aDI4Mjg2IiBpbmtzY2FwZTpjb25uZWN0b3ItY3VydmF0dXJlPSIwIiBzdHlsZT0iZmlsbDojNTlCNEQ5OyIgZD0iTTI3LjEsMTEuNDRjLTAuNCwwLjM5LTAuOTIsMC42MS0xLjQ4LDAuNjEgIHMtMS4wOS0wLjIxLTEuNDgtMC42MUwyMS4zLDguNnY1Ljc3aDguNjRWOC42TDI3LjEsMTEuNDR6Ii8+JiN4YTs8ZyBpZD0ic2hhZG93MjU1LTQ4IiB0cmFuc2Zvcm09InRyYW5zbGF0ZSgyMS42NDQ5LC0yOS45MDAyKSI+JiN4YTsJPGcgaWQ9InBhdGgyODI5MSIgaW5rc2NhcGU6Y29ubmVjdG9yLWN1cnZhdHVyZT0iMCIgc3R5bGU9ImZpbHRlcjp1cmwoI2ZpbHRlcl8yKTsiPiYjeGE7CQk8cGF0aCBzdHlsZT0ib3BhY2l0eTowLjIyO2ZpbGw6IzVCOUJENTsiIGQ9Ik00LjMyLDQzLjVjMC40NCwwLDAuODYtMC4xNywxLjE4LTAuNDlsMy4xNC0zLjE0di0wLjE2SDB2MC4xNmwzLjE0LDMuMTQgICAgQzMuNDUsNDMuMzMsMy44Nyw0My41LDQuMzIsNDMuNXoiIGlkPSJwYXRoNDM4MzgiLz4mI3hhOwk8L2c+JiN4YTs8L2c+JiN4YTs8cGF0aCBpZD0icGF0aDI4Mjk0IiBpbmtzY2FwZTpjb25uZWN0b3ItY3VydmF0dXJlPSIwIiBzdHlsZT0iZmlsbDojNTlCNEQ5OyIgZD0iTTI1LjYyLDExLjYzYzAuNDQsMCwwLjg2LTAuMTcsMS4xOC0wLjQ5TDI5Ljk0LDggIFY3Ljg0SDIxLjNWOGwzLjE0LDMuMTRDMjQuNzUsMTEuNDYsMjUuMTcsMTEuNjMsMjUuNjIsMTEuNjN6Ii8+JiN4YTsmI3hhOzxwYXRoIGlkPSJwYXRoMjgzMDIiIGlua3NjYXBlOmNvbm5lY3Rvci1jdXJ2YXR1cmU9IjAiIHN0eWxlPSJmaWxsOiM1OUI0RDk7IiBkPSJNMjcuMSwyNi4yM2MtMC40LDAuMzktMC45MiwwLjYxLTEuNDgsMC42MSAgcy0xLjA5LTAuMjEtMS40OC0wLjYxbC0yLjg0LTIuODR2NS43N2g4LjY0di01Ljc3TDI3LjEsMjYuMjN6Ii8+JiN4YTs8ZyBpZD0ic2hhZG93MjU3LTU4IiB0cmFuc2Zvcm09InRyYW5zbGF0ZSgyMS42NDQ5LC0xNS4xMDcxKSI+JiN4YTsJPGcgaWQ9InBhdGgyODMwNyIgaW5rc2NhcGU6Y29ubmVjdG9yLWN1cnZhdHVyZT0iMCIgc3R5bGU9ImZpbHRlcjp1cmwoI2ZpbHRlcl8yKTsiPiYjeGE7CQk8cGF0aCBzdHlsZT0ib3BhY2l0eTowLjIyO2ZpbGw6IzVCOUJENTsiIGQ9Ik00LjMyLDQzLjVjMC40NCwwLDAuODYtMC4xNywxLjE4LTAuNDlsMy4xNC0zLjE0di0wLjE2SDB2MC4xNmwzLjE0LDMuMTQgICAgQzMuNDUsNDMuMzMsMy44Nyw0My41LDQuMzIsNDMuNXoiIGlkPSJwYXRoNDM4NDgiLz4mI3hhOwk8L2c+JiN4YTs8L2c+JiN4YTs8cGF0aCBpZD0icGF0aDI4MzEwIiBpbmtzY2FwZTpjb25uZWN0b3ItY3VydmF0dXJlPSIwIiBzdHlsZT0iZmlsbDojNTlCNEQ5OyIgZD0iTTI1LjYyLDI2LjQyYzAuNDQsMCwwLjg2LTAuMTcsMS4xOC0wLjQ5bDMuMTQtMy4xNCAgdi0wLjE2SDIxLjN2MC4xNmwzLjE0LDMuMTRDMjQuNzUsMjYuMjUsMjUuMTcsMjYuNDIsMjUuNjIsMjYuNDJ6Ii8+JiN4YTsmI3hhOzxwYXRoIGlkPSJwYXRoMjgzMTgiIGlua3NjYXBlOmNvbm5lY3Rvci1jdXJ2YXR1cmU9IjAiIHN0eWxlPSJmaWxsOiM1OUI0RDk7IiBkPSJNOS4yNCwxOS4wM2MtMC42MywwLjYzLTEuNDcsMC45OC0yLjM2LDAuOTggIHMtMS43My0wLjM1LTIuMzYtMC45OEwwLDE0LjUxdjkuMTloMTMuNzd2LTkuMTlMOS4yNCwxOS4wM3oiLz4mI3hhOzxnIGlkPSJzaGFkb3cyNTktNjgiIHRyYW5zZm9ybT0idHJhbnNsYXRlKDAuMzQ1NiwtMjIuMTkwOSkiPiYjeGE7CTxnIGlkPSJwYXRoMjgzMjMiIGlua3NjYXBlOmNvbm5lY3Rvci1jdXJ2YXR1cmU9IjAiIHN0eWxlPSJmaWx0ZXI6dXJsKCNmaWx0ZXJfMik7Ij4mI3hhOwkJPHBhdGggc3R5bGU9Im9wYWNpdHk6MC4yMjtmaWxsOiM1QjlCRDU7IiBkPSJNNi44OCw0My41YzAuNzIsMCwxLjM4LTAuMjgsMS44OS0wLjc4bDUtNXYtMC4yNkgwdjAuMjZsNSw1ICAgIEM1LjUsNDMuMjIsNi4xNyw0My41LDYuODgsNDMuNXoiIGlkPSJwYXRoNDM4NTgiLz4mI3hhOwk8L2c+JiN4YTs8L2c+JiN4YTs8cGF0aCBpZD0icGF0aDI4MzI2IiBpbmtzY2FwZTpjb25uZWN0b3ItY3VydmF0dXJlPSIwIiBzdHlsZT0iZmlsbDojNTlCNEQ5OyIgZD0iTTYuODgsMTkuMzRjMC43MiwwLDEuMzgtMC4yOCwxLjg5LTAuNzhsNS01VjEzLjNIMCAgdjAuMjZsNSw1QzUuNSwxOS4wNiw2LjE3LDE5LjM0LDYuODgsMTkuMzR6Ii8+JiN4YTs8L3N2Zz4=;" vertex="1" parent="1">
          <mxGeometry x="623.08" y="566" width="58" height="58" as="geometry" />
        </mxCell>
        <mxCell id="FN3_UUnZCpq1qiRNQo3k-57" value="" style="shape=image;verticalLabelPosition=bottom;labelBackgroundColor=#ffffff;verticalAlign=top;aspect=fixed;imageAspect=0;image=data:image/svg+xml,PHN2ZyB4bWxuczpjYz0iaHR0cDovL2NyZWF0aXZlY29tbW9ucy5vcmcvbnMjIiB4bWxuczpkYz0iaHR0cDovL3B1cmwub3JnL2RjL2VsZW1lbnRzLzEuMS8iIHhtbG5zOmlua3NjYXBlPSJodHRwOi8vd3d3Lmlua3NjYXBlLm9yZy9uYW1lc3BhY2VzL2lua3NjYXBlIiB4bWxuczpyZGY9Imh0dHA6Ly93d3cudzMub3JnLzE5OTkvMDIvMjItcmRmLXN5bnRheC1ucyMiIHhtbG5zOnNvZGlwb2RpPSJodHRwOi8vc29kaXBvZGkuc291cmNlZm9yZ2UubmV0L0RURC9zb2RpcG9kaS0wLmR0ZCIgeG1sbnM6c3ZnPSJodHRwOi8vd3d3LnczLm9yZy8yMDAwL3N2ZyIgeG1sbnM9Imh0dHA6Ly93d3cudzMub3JnLzIwMDAvc3ZnIiB4bWxuczp4bGluaz0iaHR0cDovL3d3dy53My5vcmcvMTk5OS94bGluayIgdmVyc2lvbj0iMS4xIiBpZD0ic3ZnNjMzNTgiIGlua3NjYXBlOnZlcnNpb249IjAuOTIuMyAoMjQwNTU0NiwgMjAxOC0wMy0xMSkiIHNvZGlwb2RpOmRvY25hbWU9ImF6dXJlX3NlcnZpY2VfaGVhbHRoLnN2ZyIgeD0iMHB4IiB5PSIwcHgiIHZpZXdCb3g9IjAgMCAzNi4wNSAzMC42NSIgc3R5bGU9ImVuYWJsZS1iYWNrZ3JvdW5kOm5ldyAwIDAgMzYuMDUgMzAuNjU7IiB4bWw6c3BhY2U9InByZXNlcnZlIj4mI3hhOzxzb2RpcG9kaTpuYW1lZHZpZXcgYm9yZGVyY29sb3I9IiM2NjY2NjYiIGJvcmRlcm9wYWNpdHk9IjEiIGZpdC1tYXJnaW4tYm90dG9tPSIwIiBmaXQtbWFyZ2luLWxlZnQ9IjAiIGZpdC1tYXJnaW4tcmlnaHQ9IjAiIGZpdC1tYXJnaW4tdG9wPSIwIiBncmlkdG9sZXJhbmNlPSIxMCIgZ3VpZGV0b2xlcmFuY2U9IjEwIiBpZD0ibmFtZWR2aWV3NjMzNjAiIGlua3NjYXBlOmN1cnJlbnQtbGF5ZXI9InN2ZzYzMzU4IiBpbmtzY2FwZTpjeD0iMjIuOTQwMDY4IiBpbmtzY2FwZTpjeT0iMTUuODM3MDUiIGlua3NjYXBlOnBhZ2VvcGFjaXR5PSIwIiBpbmtzY2FwZTpwYWdlc2hhZG93PSIyIiBpbmtzY2FwZTp3aW5kb3ctaGVpZ2h0PSIxMDE3IiBpbmtzY2FwZTp3aW5kb3ctbWF4aW1pemVkPSIxIiBpbmtzY2FwZTp3aW5kb3ctd2lkdGg9IjE5MjAiIGlua3NjYXBlOndpbmRvdy14PSItOCIgaW5rc2NhcGU6d2luZG93LXk9Ii04IiBpbmtzY2FwZTp6b29tPSIxNS4wMjI4MDMiIG9iamVjdHRvbGVyYW5jZT0iMTAiIHBhZ2Vjb2xvcj0iI2ZmZmZmZiIgc2hvd2dyaWQ9ImZhbHNlIj4mI3hhOwk8L3NvZGlwb2RpOm5hbWVkdmlldz4mI3hhOzxnIGlkPSJnNjMzNTYiIHRyYW5zZm9ybT0idHJhbnNsYXRlKDAuMDAzNTcxNzEsMC4wMzc1MDA4NikiPiYjeGE7CTx0aXRsZSBpZD0idGl0bGU2MzM0OSI+UGFnZS0xPC90aXRsZT4mI3hhOwk8ZyBpZD0ic2hhcGU1OTE1LTEiPiYjeGE7CQk8dGl0bGUgaWQ9InRpdGxlNjMzNTEiPkF6dXJlIFNlcnZpY2UgSGVhbHRoPC90aXRsZT4mI3hhOwkJPHBhdGggaWQ9InBhdGg2MzM1MyIgaW5rc2NhcGU6Y29ubmVjdG9yLWN1cnZhdHVyZT0iMCIgc3R5bGU9ImZpbGw6IzU5QjREOTsiIGQ9Ik0zMy4zNiwyLjE3Yy0zLjYtMy45LTEwLjk4LTIuMjgtMTUuMywzLjg0ICAgIEMxMi42Ni0wLjQ3LDYuMTgtMS43MywyLjUyLDIuMTdjLTMuNzgsNC4wMi0yLjc2LDguNzYtMC41NCwxMi42NmwzLjg0LTAuMDZsMy42Ni0wLjE4bDIuNzYtNy4zMmwwLDAgICAgYzAuMTgtMC40OCwwLjQ4LTEuMjYsMS42Mi0xLjI2YzEuMiwwLDEuMjYsMC45LDEuMjYsMS4zMmwwLjA2LDEyLjI0bDEuOTgtNC4xNGwwLDBjMC4xMi0wLjM2LDAuNDgtMC42LDAuOS0wLjZoMTEuNyAgICBjMC40OCwwLDAuOTYsMC41NCwwLjk2LDEuMDhjMCwwLjQ4LTAuNDgsMS4yNi0wLjk2LDEuMjZoLTEwLjVsLTMuNzgsNy41bDAsMGMtMC4yNCwwLjcyLTAuNiwwLjk2LTEuNDQsMC45ICAgIGMtMC40Mi0wLjA2LTAuNzgtMC43OC0wLjc4LTEuMmwtMC4xOC0xMS4yOGwtMS4xNCwzLjEybDAsMGMtMC4wNiwwLjM2LTAuNDIsMC45Ni0wLjc4LDEuMDJINy42OEgzLjA2bDAsMCAgICBjNC41Niw2LjY2LDEyLjQyLDEyLjMsMTQuNywxMy4yNnYwLjEybDAsMGwwLDB2LTAuMTJsMCwwQzIyLjI2LDI4Ljg3LDQzLjQ0LDEzLjA5LDMzLjM2LDIuMTd6Ii8+JiN4YTsJPC9nPiYjeGE7PC9nPiYjeGE7PC9zdmc+;" vertex="1" parent="1">
          <mxGeometry x="494.08" y="564" width="23.23" height="20" as="geometry" />
        </mxCell>
      </root>
    </mxGraphModel>
  </diagram>
</mxfile>
